<ttFont>
    <TTGlyph name=".notdef" xMin="99" yMin="0" xMax="537" yMax="760">
      <contour>
        <pt x="537" y="760" on="1"/>
        <pt x="537" y="0" on="1"/>
        <pt x="99" y="0" on="1"/>
        <pt x="99" y="760" on="1"/>
      </contour>
      <contour>
        <pt x="179" y="690" on="1"/>
        <pt x="179" y="70" on="1"/>
        <pt x="456" y="70" on="1"/>
        <pt x="456" y="690" on="1"/>
      </contour>
    </TTGlyph>
    <TTGlyph name="A" xMin="10" yMin="0" xMax="522" yMax="705">
      <contour>
        <pt x="328" y="705" on="1"/>
        <pt x="522" y="0" on="1"/>
        <pt x="421" y="0" on="1"/>
        <pt x="374" y="185" on="1"/>
        <pt x="152" y="185" on="1"/>
        <pt x="103" y="0" on="1"/>
        <pt x="10" y="0" on="1"/>
        <pt x="205" y="693" on="1"/>
      </contour>
      <contour>
        <pt x="262" y="615" on="1"/>
        <pt x="175" y="267" on="1"/>
        <pt x="354" y="267" on="1"/>
        <pt x="269" y="615" on="1"/>
      </contour>
    </TTGlyph>
    <TTGlyph name="AE" xMin="-20" yMin="0" xMax="768" yMax="700">
      <contour>
        <pt x="487" y="614" on="1"/>
        <pt x="487" y="399" on="1"/>
        <pt x="719" y="399" on="1"/>
        <pt x="707" y="315" on="1"/>
        <pt x="487" y="315" on="1"/>
        <pt x="487" y="86" on="1"/>
        <pt x="768" y="86" on="1"/>
        <pt x="756" y="0" on="1"/>
        <pt x="391" y="0" on="1"/>
        <pt x="391" y="185" on="1"/>
        <pt x="171" y="185" on="1"/>
        <pt x="78" y="0" on="1"/>
        <pt x="-20" y="0" on="1"/>
        <pt x="337" y="700" on="1"/>
        <pt x="763" y="700" on="1"/>
        <pt x="751" y="614" on="1"/>
      </contour>
      <contour>
        <pt x="391" y="267" on="1"/>
        <pt x="391" y="615" on="1"/>
        <pt x="378" y="615" on="1"/>
        <pt x="210" y="267" on="1"/>
      </contour>
    </TTGlyph>
    <TTGlyph name="AEacute" xMin="-20" yMin="0" xMax="768" yMax="898">
      <contour>
        <pt x="487" y="614" on="1"/>
        <pt x="487" y="399" on="1"/>
        <pt x="719" y="399" on="1"/>
        <pt x="707" y="315" on="1"/>
        <pt x="487" y="315" on="1"/>
        <pt x="487" y="86" on="1"/>
        <pt x="768" y="86" on="1"/>
        <pt x="756" y="0" on="1"/>
        <pt x="391" y="0" on="1"/>
        <pt x="391" y="185" on="1"/>
        <pt x="171" y="185" on="1"/>
        <pt x="78" y="0" on="1"/>
        <pt x="-20" y="0" on="1"/>
        <pt x="337" y="700" on="1"/>
        <pt x="763" y="700" on="1"/>
        <pt x="751" y="614" on="1"/>
      </contour>
      <contour>
        <pt x="599" y="898" on="1"/>
        <pt x="637" y="821" on="1"/>
        <pt x="429" y="736" on="1"/>
        <pt x="396" y="792" on="1"/>
      </contour>
      <contour>
        <pt x="391" y="267" on="1"/>
        <pt x="391" y="615" on="1"/>
        <pt x="378" y="615" on="1"/>
        <pt x="210" y="267" on="1"/>
      </contour>
    </TTGlyph>
    <TTGlyph name="Aacute" xMin="10" yMin="0" xMax="522" yMax="898">
      <contour>
        <pt x="383" y="898" on="1"/>
        <pt x="421" y="821" on="1"/>
        <pt x="214" y="736" on="1"/>
        <pt x="181" y="792" on="1"/>
      </contour>
      <contour>
        <pt x="328" y="705" on="1"/>
        <pt x="522" y="0" on="1"/>
        <pt x="421" y="0" on="1"/>
        <pt x="374" y="185" on="1"/>
        <pt x="152" y="185" on="1"/>
        <pt x="103" y="0" on="1"/>
        <pt x="10" y="0" on="1"/>
        <pt x="205" y="693" on="1"/>
      </contour>
      <contour>
        <pt x="262" y="615" on="1"/>
        <pt x="175" y="267" on="1"/>
        <pt x="354" y="267" on="1"/>
        <pt x="269" y="615" on="1"/>
      </contour>
    </TTGlyph>
    <TTGlyph name="Abreve" xMin="10" yMin="0" xMax="522" yMax="886">
      <contour>
        <pt x="328" y="705" on="1"/>
        <pt x="522" y="0" on="1"/>
        <pt x="421" y="0" on="1"/>
        <pt x="374" y="185" on="1"/>
        <pt x="152" y="185" on="1"/>
        <pt x="103" y="0" on="1"/>
        <pt x="10" y="0" on="1"/>
        <pt x="205" y="693" on="1"/>
      </contour>
      <contour>
        <pt x="262" y="615" on="1"/>
        <pt x="175" y="267" on="1"/>
        <pt x="354" y="267" on="1"/>
        <pt x="269" y="615" on="1"/>
      </contour>
      <contour>
        <pt x="418" y="843" on="1"/>
        <pt x="361" y="770" on="0"/>
        <pt x="173" y="770" on="0"/>
        <pt x="116" y="843" on="1"/>
        <pt x="156" y="886" on="1"/>
        <pt x="209" y="842" on="0"/>
        <pt x="327" y="842" on="0"/>
        <pt x="380" y="886" on="1"/>
      </contour>
    </TTGlyph>
    <TTGlyph name="Acaron" xMin="10" yMin="0" xMax="522" yMax="885">
      <contour>
        <pt x="328" y="705" on="1"/>
        <pt x="522" y="0" on="1"/>
        <pt x="421" y="0" on="1"/>
        <pt x="374" y="185" on="1"/>
        <pt x="152" y="185" on="1"/>
        <pt x="103" y="0" on="1"/>
        <pt x="10" y="0" on="1"/>
        <pt x="205" y="693" on="1"/>
      </contour>
      <contour>
        <pt x="262" y="615" on="1"/>
        <pt x="175" y="267" on="1"/>
        <pt x="354" y="267" on="1"/>
        <pt x="269" y="615" on="1"/>
      </contour>
      <contour>
        <pt x="382" y="885" on="1"/>
        <pt x="420" y="841" on="1"/>
        <pt x="293" y="735" on="1"/>
        <pt x="241" y="735" on="1"/>
        <pt x="114" y="841" on="1"/>
        <pt x="152" y="885" on="1"/>
        <pt x="267" y="808" on="1"/>
      </contour>
    </TTGlyph>
    <TTGlyph name="Acircumflex" xMin="10" yMin="0" xMax="522" yMax="885">
      <contour>
        <pt x="293" y="885" on="1"/>
        <pt x="420" y="779" on="1"/>
        <pt x="382" y="735" on="1"/>
        <pt x="267" y="812" on="1"/>
        <pt x="152" y="735" on="1"/>
        <pt x="114" y="779" on="1"/>
        <pt x="241" y="885" on="1"/>
      </contour>
      <contour>
        <pt x="328" y="705" on="1"/>
        <pt x="522" y="0" on="1"/>
        <pt x="421" y="0" on="1"/>
        <pt x="374" y="185" on="1"/>
        <pt x="152" y="185" on="1"/>
        <pt x="103" y="0" on="1"/>
        <pt x="10" y="0" on="1"/>
        <pt x="205" y="693" on="1"/>
      </contour>
      <contour>
        <pt x="262" y="615" on="1"/>
        <pt x="175" y="267" on="1"/>
        <pt x="354" y="267" on="1"/>
        <pt x="269" y="615" on="1"/>
      </contour>
    </TTGlyph>
    <TTGlyph name="Adieresis" xMin="10" yMin="0" xMax="522" yMax="884">
      <contour>
        <pt x="179" y="884" on="1"/>
        <pt x="231" y="884" on="0"/>
        <pt x="231" y="825" on="1"/>
        <pt x="231" y="773" on="0"/>
        <pt x="172" y="773" on="1"/>
        <pt x="119" y="773" on="0"/>
        <pt x="119" y="832" on="1"/>
        <pt x="119" y="857" on="0"/>
        <pt x="144" y="884" on="0"/>
      </contour>
      <contour>
        <pt x="362" y="884" on="1"/>
        <pt x="415" y="884" on="0"/>
        <pt x="415" y="825" on="1"/>
        <pt x="415" y="800" on="0"/>
        <pt x="390" y="773" on="0"/>
        <pt x="355" y="773" on="1"/>
        <pt x="303" y="773" on="0"/>
        <pt x="303" y="832" on="1"/>
        <pt x="303" y="884" on="0"/>
      </contour>
      <contour>
        <pt x="328" y="705" on="1"/>
        <pt x="522" y="0" on="1"/>
        <pt x="421" y="0" on="1"/>
        <pt x="374" y="185" on="1"/>
        <pt x="152" y="185" on="1"/>
        <pt x="103" y="0" on="1"/>
        <pt x="10" y="0" on="1"/>
        <pt x="205" y="693" on="1"/>
      </contour>
      <contour>
        <pt x="262" y="615" on="1"/>
        <pt x="175" y="267" on="1"/>
        <pt x="354" y="267" on="1"/>
        <pt x="269" y="615" on="1"/>
      </contour>
    </TTGlyph>
    <TTGlyph name="Agrave" xMin="10" yMin="0" xMax="522" yMax="898">
      <contour>
        <pt x="348" y="792" on="1"/>
        <pt x="315" y="736" on="1"/>
        <pt x="107" y="821" on="1"/>
        <pt x="145" y="898" on="1"/>
      </contour>
      <contour>
        <pt x="328" y="705" on="1"/>
        <pt x="522" y="0" on="1"/>
        <pt x="421" y="0" on="1"/>
        <pt x="374" y="185" on="1"/>
        <pt x="152" y="185" on="1"/>
        <pt x="103" y="0" on="1"/>
        <pt x="10" y="0" on="1"/>
        <pt x="205" y="693" on="1"/>
      </contour>
      <contour>
        <pt x="262" y="615" on="1"/>
        <pt x="175" y="267" on="1"/>
        <pt x="354" y="267" on="1"/>
        <pt x="269" y="615" on="1"/>
      </contour>
    </TTGlyph>
    <TTGlyph name="Amacron" xMin="10" yMin="0" xMax="522" yMax="868">
      <contour>
        <pt x="328" y="705" on="1"/>
        <pt x="522" y="0" on="1"/>
        <pt x="421" y="0" on="1"/>
        <pt x="374" y="185" on="1"/>
        <pt x="152" y="185" on="1"/>
        <pt x="103" y="0" on="1"/>
        <pt x="10" y="0" on="1"/>
        <pt x="205" y="693" on="1"/>
      </contour>
      <contour>
        <pt x="262" y="615" on="1"/>
        <pt x="175" y="267" on="1"/>
        <pt x="354" y="267" on="1"/>
        <pt x="269" y="615" on="1"/>
      </contour>
      <contour>
        <pt x="397" y="868" on="1"/>
        <pt x="397" y="794" on="1"/>
        <pt x="137" y="794" on="1"/>
        <pt x="137" y="868" on="1"/>
      </contour>
    </TTGlyph>
    <TTGlyph name="Aogonek" xMin="10" yMin="-188" xMax="530" yMax="705">
      <contour>
        <pt x="530" y="-168" on="1"/>
        <pt x="496" y="-188" on="0"/>
        <pt x="429" y="-188" on="0"/>
        <pt x="383" y="-147" on="0"/>
        <pt x="383" y="-87" on="0"/>
        <pt x="411" y="-40" on="0"/>
        <pt x="431" y="-22" on="0"/>
        <pt x="458" y="0" on="1"/>
        <pt x="421" y="0" on="1"/>
        <pt x="374" y="185" on="1"/>
        <pt x="152" y="185" on="1"/>
        <pt x="103" y="0" on="1"/>
        <pt x="10" y="0" on="1"/>
        <pt x="205" y="693" on="1"/>
        <pt x="328" y="705" on="1"/>
        <pt x="522" y="0" on="1"/>
        <pt x="451" y="-66" on="0"/>
        <pt x="451" y="-103" on="1"/>
        <pt x="451" y="-117" on="0"/>
        <pt x="468" y="-137" on="0"/>
        <pt x="503" y="-137" on="0"/>
        <pt x="519" y="-130" on="1"/>
      </contour>
      <contour>
        <pt x="354" y="267" on="1"/>
        <pt x="269" y="615" on="1"/>
        <pt x="262" y="615" on="1"/>
        <pt x="175" y="267" on="1"/>
      </contour>
    </TTGlyph>
    <TTGlyph name="Aring" xMin="10" yMin="0" xMax="522" yMax="916">
      <contour>
        <pt x="328" y="705" on="1"/>
        <pt x="522" y="0" on="1"/>
        <pt x="421" y="0" on="1"/>
        <pt x="374" y="185" on="1"/>
        <pt x="152" y="185" on="1"/>
        <pt x="103" y="0" on="1"/>
        <pt x="10" y="0" on="1"/>
        <pt x="205" y="693" on="1"/>
      </contour>
      <contour>
        <pt x="262" y="615" on="1"/>
        <pt x="175" y="267" on="1"/>
        <pt x="354" y="267" on="1"/>
        <pt x="269" y="615" on="1"/>
      </contour>
      <contour>
        <pt x="180" y="863" on="0"/>
        <pt x="227" y="916" on="0"/>
        <pt x="312" y="916" on="0"/>
        <pt x="354" y="868" on="0"/>
        <pt x="354" y="797" on="0"/>
        <pt x="307" y="742" on="0"/>
        <pt x="223" y="742" on="0"/>
        <pt x="180" y="792" on="0"/>
      </contour>
      <contour>
        <pt x="264" y="871" on="1"/>
        <pt x="246" y="871" on="0"/>
        <pt x="227" y="847" on="0"/>
        <pt x="227" y="830" on="1"/>
        <pt x="227" y="787" on="0"/>
        <pt x="270" y="787" on="1"/>
        <pt x="288" y="787" on="0"/>
        <pt x="307" y="811" on="0"/>
        <pt x="307" y="828" on="1"/>
        <pt x="307" y="871" on="0"/>
      </contour>
    </TTGlyph>
    <TTGlyph name="Aringbelow" xMin="10" yMin="-198" xMax="522" yMax="705">
      <contour>
        <pt x="328" y="705" on="1"/>
        <pt x="522" y="0" on="1"/>
        <pt x="421" y="0" on="1"/>
        <pt x="374" y="185" on="1"/>
        <pt x="152" y="185" on="1"/>
        <pt x="103" y="0" on="1"/>
        <pt x="10" y="0" on="1"/>
        <pt x="205" y="693" on="1"/>
      </contour>
      <contour>
        <pt x="262" y="615" on="1"/>
        <pt x="175" y="267" on="1"/>
        <pt x="354" y="267" on="1"/>
        <pt x="269" y="615" on="1"/>
      </contour>
      <contour>
        <pt x="171" y="-77" on="0"/>
        <pt x="218" y="-24" on="0"/>
        <pt x="303" y="-24" on="0"/>
        <pt x="345" y="-72" on="0"/>
        <pt x="345" y="-143" on="0"/>
        <pt x="298" y="-198" on="0"/>
        <pt x="214" y="-198" on="0"/>
        <pt x="171" y="-148" on="0"/>
      </contour>
      <contour>
        <pt x="255" y="-69" on="1"/>
        <pt x="237" y="-69" on="0"/>
        <pt x="218" y="-93" on="0"/>
        <pt x="218" y="-110" on="1"/>
        <pt x="218" y="-153" on="0"/>
        <pt x="261" y="-153" on="1"/>
        <pt x="279" y="-153" on="0"/>
        <pt x="298" y="-129" on="0"/>
        <pt x="298" y="-112" on="1"/>
        <pt x="298" y="-69" on="0"/>
      </contour>
    </TTGlyph>
    <TTGlyph name="Atilde" xMin="10" yMin="0" xMax="522" yMax="885">
      <contour>
        <pt x="328" y="705" on="1"/>
        <pt x="522" y="0" on="1"/>
        <pt x="421" y="0" on="1"/>
        <pt x="374" y="185" on="1"/>
        <pt x="152" y="185" on="1"/>
        <pt x="103" y="0" on="1"/>
        <pt x="10" y="0" on="1"/>
        <pt x="205" y="693" on="1"/>
      </contour>
      <contour>
        <pt x="262" y="615" on="1"/>
        <pt x="175" y="267" on="1"/>
        <pt x="354" y="267" on="1"/>
        <pt x="269" y="615" on="1"/>
      </contour>
      <contour>
        <pt x="324" y="775" on="1"/>
        <pt x="298" y="775" on="0"/>
        <pt x="221" y="807" on="0"/>
        <pt x="168" y="807" on="0"/>
        <pt x="122" y="775" on="1"/>
        <pt x="101" y="836" on="1"/>
        <pt x="157" y="885" on="0"/>
        <pt x="210" y="885" on="1"/>
        <pt x="236" y="885" on="0"/>
        <pt x="313" y="853" on="0"/>
        <pt x="366" y="853" on="0"/>
        <pt x="412" y="885" on="1"/>
        <pt x="433" y="824" on="1"/>
        <pt x="377" y="775" on="0"/>
      </contour>
    </TTGlyph>
    <TTGlyph name="B" xMin="90" yMin="0" xMax="536" yMax="700">
      <contour>
        <pt x="90" y="700" on="1"/>
        <pt x="330" y="700" on="1"/>
        <pt x="416" y="700" on="0"/>
        <pt x="499" y="610" on="0"/>
        <pt x="499" y="479" on="0"/>
        <pt x="434" y="393" on="0"/>
        <pt x="378" y="380" on="1"/>
        <pt x="378" y="376" on="1"/>
        <pt x="536" y="361" on="0"/>
        <pt x="536" y="198" on="1"/>
        <pt x="536" y="117" on="0"/>
        <pt x="409" y="0" on="0"/>
        <pt x="309" y="0" on="1"/>
        <pt x="90" y="0" on="1"/>
      </contour>
      <contour>
        <pt x="186" y="328" on="1"/>
        <pt x="186" y="78" on="1"/>
        <pt x="292" y="78" on="1"/>
        <pt x="375" y="78" on="0"/>
        <pt x="434" y="144" on="0"/>
        <pt x="434" y="261" on="0"/>
        <pt x="357" y="328" on="0"/>
        <pt x="275" y="328" on="1"/>
      </contour>
      <contour>
        <pt x="186" y="627" on="1"/>
        <pt x="186" y="408" on="1"/>
        <pt x="276" y="408" on="1"/>
        <pt x="335" y="408" on="0"/>
        <pt x="397" y="466" on="0"/>
        <pt x="397" y="574" on="0"/>
        <pt x="346" y="627" on="0"/>
        <pt x="282" y="627" on="1"/>
      </contour>
    </TTGlyph>
    <TTGlyph name="C" xMin="50" yMin="-12" xMax="516" yMax="712">
      <contour>
        <pt x="324" y="712" on="1"/>
        <pt x="428" y="712" on="0"/>
        <pt x="516" y="610" on="0"/>
        <pt x="516" y="508" on="1"/>
        <pt x="414" y="498" on="1"/>
        <pt x="414" y="571" on="0"/>
        <pt x="362" y="626" on="0"/>
        <pt x="265" y="626" on="0"/>
        <pt x="208" y="595" on="0"/>
        <pt x="175" y="545" on="0"/>
        <pt x="166" y="503" on="1"/>
        <pt x="152" y="438" on="0"/>
        <pt x="152" y="196" on="0"/>
        <pt x="244" y="74" on="0"/>
        <pt x="340" y="74" on="1"/>
        <pt x="385" y="74" on="0"/>
        <pt x="466" y="102" on="1"/>
        <pt x="485" y="109" on="0"/>
        <pt x="488" y="110" on="1"/>
        <pt x="516" y="38" on="1"/>
        <pt x="423" y="-12" on="0"/>
        <pt x="322" y="-12" on="1"/>
        <pt x="254" y="-12" on="0"/>
        <pt x="154" y="30" on="0"/>
        <pt x="96" y="95" on="0"/>
        <pt x="78" y="144" on="1"/>
        <pt x="50" y="224" on="0"/>
        <pt x="50" y="421" on="0"/>
        <pt x="80" y="548" on="0"/>
        <pt x="143" y="653" on="0"/>
        <pt x="252" y="712" on="0"/>
      </contour>
    </TTGlyph>
    <TTGlyph name="Cacute" xMin="50" yMin="-12" xMax="516" yMax="898">
      <contour>
        <pt x="324" y="712" on="1"/>
        <pt x="428" y="712" on="0"/>
        <pt x="516" y="610" on="0"/>
        <pt x="516" y="508" on="1"/>
        <pt x="414" y="498" on="1"/>
        <pt x="414" y="571" on="0"/>
        <pt x="362" y="626" on="0"/>
        <pt x="265" y="626" on="0"/>
        <pt x="208" y="595" on="0"/>
        <pt x="175" y="545" on="0"/>
        <pt x="166" y="503" on="1"/>
        <pt x="152" y="438" on="0"/>
        <pt x="152" y="196" on="0"/>
        <pt x="244" y="74" on="0"/>
        <pt x="340" y="74" on="1"/>
        <pt x="385" y="74" on="0"/>
        <pt x="466" y="102" on="1"/>
        <pt x="485" y="109" on="0"/>
        <pt x="488" y="110" on="1"/>
        <pt x="516" y="38" on="1"/>
        <pt x="423" y="-12" on="0"/>
        <pt x="322" y="-12" on="1"/>
        <pt x="254" y="-12" on="0"/>
        <pt x="154" y="30" on="0"/>
        <pt x="96" y="95" on="0"/>
        <pt x="78" y="144" on="1"/>
        <pt x="50" y="224" on="0"/>
        <pt x="50" y="421" on="0"/>
        <pt x="80" y="548" on="0"/>
        <pt x="143" y="653" on="0"/>
        <pt x="252" y="712" on="0"/>
      </contour>
      <contour>
        <pt x="404" y="898" on="1"/>
        <pt x="442" y="821" on="1"/>
        <pt x="234" y="736" on="1"/>
        <pt x="201" y="792" on="1"/>
      </contour>
    </TTGlyph>
    <TTGlyph name="Ccaron" xMin="50" yMin="-12" xMax="516" yMax="885">
      <contour>
        <pt x="324" y="712" on="1"/>
        <pt x="428" y="712" on="0"/>
        <pt x="516" y="610" on="0"/>
        <pt x="516" y="508" on="1"/>
        <pt x="414" y="498" on="1"/>
        <pt x="414" y="571" on="0"/>
        <pt x="362" y="626" on="0"/>
        <pt x="265" y="626" on="0"/>
        <pt x="208" y="595" on="0"/>
        <pt x="175" y="545" on="0"/>
        <pt x="166" y="503" on="1"/>
        <pt x="152" y="438" on="0"/>
        <pt x="152" y="196" on="0"/>
        <pt x="244" y="74" on="0"/>
        <pt x="340" y="74" on="1"/>
        <pt x="385" y="74" on="0"/>
        <pt x="466" y="102" on="1"/>
        <pt x="485" y="109" on="0"/>
        <pt x="488" y="110" on="1"/>
        <pt x="516" y="38" on="1"/>
        <pt x="423" y="-12" on="0"/>
        <pt x="322" y="-12" on="1"/>
        <pt x="254" y="-12" on="0"/>
        <pt x="154" y="30" on="0"/>
        <pt x="96" y="95" on="0"/>
        <pt x="78" y="144" on="1"/>
        <pt x="50" y="224" on="0"/>
        <pt x="50" y="421" on="0"/>
        <pt x="80" y="548" on="0"/>
        <pt x="143" y="653" on="0"/>
        <pt x="252" y="712" on="0"/>
      </contour>
      <contour>
        <pt x="456" y="841" on="1"/>
        <pt x="329" y="735" on="1"/>
        <pt x="277" y="735" on="1"/>
        <pt x="150" y="841" on="1"/>
        <pt x="188" y="885" on="1"/>
        <pt x="303" y="808" on="1"/>
        <pt x="418" y="885" on="1"/>
      </contour>
    </TTGlyph>
    <TTGlyph name="Ccedilla" xMin="50" yMin="-188" xMax="516" yMax="712">
      <contour>
        <pt x="398" y="-114" on="1"/>
        <pt x="398" y="-150" on="0"/>
        <pt x="351" y="-188" on="0"/>
        <pt x="271" y="-188" on="0"/>
        <pt x="225" y="-165" on="1"/>
        <pt x="243" y="-120" on="1"/>
        <pt x="280" y="-137" on="0"/>
        <pt x="336" y="-137" on="0"/>
        <pt x="336" y="-111" on="1"/>
        <pt x="336" y="-94" on="0"/>
        <pt x="283" y="-81" on="1"/>
        <pt x="262" y="-76" on="0"/>
        <pt x="260" y="-75" on="1"/>
        <pt x="277" y="-9" on="1"/>
        <pt x="221" y="-3" on="0"/>
        <pt x="137" y="44" on="0"/>
        <pt x="89" y="110" on="0"/>
        <pt x="74" y="156" on="1"/>
        <pt x="50" y="235" on="0"/>
        <pt x="50" y="421" on="0"/>
        <pt x="80" y="548" on="0"/>
        <pt x="143" y="653" on="0"/>
        <pt x="252" y="712" on="0"/>
        <pt x="324" y="712" on="1"/>
        <pt x="428" y="712" on="0"/>
        <pt x="516" y="610" on="0"/>
        <pt x="516" y="508" on="1"/>
        <pt x="414" y="498" on="1"/>
        <pt x="414" y="559" on="0"/>
        <pt x="366" y="626" on="0"/>
        <pt x="306" y="626" on="1"/>
        <pt x="228" y="626" on="0"/>
        <pt x="192" y="570" on="1"/>
        <pt x="161" y="524" on="0"/>
        <pt x="154" y="420" on="1"/>
        <pt x="152" y="380" on="0"/>
        <pt x="152" y="320" on="1"/>
        <pt x="152" y="196" on="0"/>
        <pt x="244" y="74" on="0"/>
        <pt x="340" y="74" on="1"/>
        <pt x="385" y="74" on="0"/>
        <pt x="466" y="102" on="1"/>
        <pt x="485" y="109" on="0"/>
        <pt x="488" y="110" on="1"/>
        <pt x="516" y="38" on="1"/>
        <pt x="430" y="-9" on="0"/>
        <pt x="327" y="-12" on="1"/>
        <pt x="322" y="-44" on="1"/>
        <pt x="383" y="-59" on="0"/>
        <pt x="393" y="-84" on="1"/>
        <pt x="398" y="-96" on="0"/>
      </contour>
    </TTGlyph>
    <TTGlyph name="Ccircumflex" xMin="50" yMin="-12" xMax="516" yMax="885">
      <contour>
        <pt x="324" y="712" on="1"/>
        <pt x="428" y="712" on="0"/>
        <pt x="516" y="610" on="0"/>
        <pt x="516" y="508" on="1"/>
        <pt x="414" y="498" on="1"/>
        <pt x="414" y="571" on="0"/>
        <pt x="362" y="626" on="0"/>
        <pt x="265" y="626" on="0"/>
        <pt x="208" y="595" on="0"/>
        <pt x="175" y="545" on="0"/>
        <pt x="166" y="503" on="1"/>
        <pt x="152" y="438" on="0"/>
        <pt x="152" y="196" on="0"/>
        <pt x="244" y="74" on="0"/>
        <pt x="340" y="74" on="1"/>
        <pt x="385" y="74" on="0"/>
        <pt x="466" y="102" on="1"/>
        <pt x="485" y="109" on="0"/>
        <pt x="488" y="110" on="1"/>
        <pt x="516" y="38" on="1"/>
        <pt x="423" y="-12" on="0"/>
        <pt x="322" y="-12" on="1"/>
        <pt x="254" y="-12" on="0"/>
        <pt x="154" y="30" on="0"/>
        <pt x="96" y="95" on="0"/>
        <pt x="78" y="144" on="1"/>
        <pt x="50" y="224" on="0"/>
        <pt x="50" y="421" on="0"/>
        <pt x="80" y="548" on="0"/>
        <pt x="143" y="653" on="0"/>
        <pt x="252" y="712" on="0"/>
      </contour>
      <contour>
        <pt x="329" y="885" on="1"/>
        <pt x="456" y="779" on="1"/>
        <pt x="418" y="735" on="1"/>
        <pt x="303" y="812" on="1"/>
        <pt x="188" y="735" on="1"/>
        <pt x="150" y="779" on="1"/>
        <pt x="277" y="885" on="1"/>
      </contour>
    </TTGlyph>
    <TTGlyph name="Cdotaccent" xMin="50" yMin="-12" xMax="516" yMax="892">
      <contour>
        <pt x="324" y="712" on="1"/>
        <pt x="428" y="712" on="0"/>
        <pt x="516" y="610" on="0"/>
        <pt x="516" y="508" on="1"/>
        <pt x="414" y="498" on="1"/>
        <pt x="414" y="571" on="0"/>
        <pt x="362" y="626" on="0"/>
        <pt x="265" y="626" on="0"/>
        <pt x="208" y="595" on="0"/>
        <pt x="175" y="545" on="0"/>
        <pt x="166" y="503" on="1"/>
        <pt x="152" y="438" on="0"/>
        <pt x="152" y="196" on="0"/>
        <pt x="244" y="74" on="0"/>
        <pt x="340" y="74" on="1"/>
        <pt x="385" y="74" on="0"/>
        <pt x="466" y="102" on="1"/>
        <pt x="485" y="109" on="0"/>
        <pt x="488" y="110" on="1"/>
        <pt x="516" y="38" on="1"/>
        <pt x="423" y="-12" on="0"/>
        <pt x="322" y="-12" on="1"/>
        <pt x="254" y="-12" on="0"/>
        <pt x="154" y="30" on="0"/>
        <pt x="96" y="95" on="0"/>
        <pt x="78" y="144" on="1"/>
        <pt x="50" y="224" on="0"/>
        <pt x="50" y="421" on="0"/>
        <pt x="80" y="548" on="0"/>
        <pt x="143" y="653" on="0"/>
        <pt x="252" y="712" on="0"/>
      </contour>
      <contour>
        <pt x="306" y="892" on="1"/>
        <pt x="367" y="892" on="0"/>
        <pt x="367" y="824" on="1"/>
        <pt x="367" y="799" on="0"/>
        <pt x="334" y="763" on="0"/>
        <pt x="299" y="763" on="1"/>
        <pt x="238" y="763" on="0"/>
        <pt x="238" y="831" on="1"/>
        <pt x="238" y="856" on="0"/>
        <pt x="271" y="892" on="0"/>
      </contour>
    </TTGlyph>
    <TTGlyph name="D" xMin="90" yMin="0" xMax="562" yMax="700">
      <contour>
        <pt x="90" y="700" on="1"/>
        <pt x="294" y="700" on="1"/>
        <pt x="360" y="700" on="0"/>
        <pt x="459" y="657" on="0"/>
        <pt x="516" y="591" on="0"/>
        <pt x="534" y="542" on="1"/>
        <pt x="562" y="462" on="0"/>
        <pt x="562" y="344" on="1"/>
        <pt x="562" y="204" on="0"/>
        <pt x="504" y="107" on="1"/>
        <pt x="474" y="57" on="0"/>
        <pt x="368" y="0" on="0"/>
        <pt x="297" y="0" on="1"/>
        <pt x="90" y="0" on="1"/>
      </contour>
      <contour>
        <pt x="186" y="616" on="1"/>
        <pt x="186" y="84" on="1"/>
        <pt x="286" y="84" on="1"/>
        <pt x="397" y="84" on="0"/>
        <pt x="431" y="167" on="1"/>
        <pt x="448" y="208" on="0"/>
        <pt x="460" y="294" on="0"/>
        <pt x="460" y="414" on="0"/>
        <pt x="443" y="503" on="0"/>
        <pt x="424" y="540" on="1"/>
        <pt x="383" y="616" on="0"/>
        <pt x="278" y="616" on="1"/>
      </contour>
    </TTGlyph>
    <TTGlyph name="Dcaron" xMin="90" yMin="0" xMax="562" yMax="885">
      <contour>
        <pt x="90" y="700" on="1"/>
        <pt x="294" y="700" on="1"/>
        <pt x="360" y="700" on="0"/>
        <pt x="459" y="657" on="0"/>
        <pt x="516" y="591" on="0"/>
        <pt x="534" y="542" on="1"/>
        <pt x="562" y="462" on="0"/>
        <pt x="562" y="344" on="1"/>
        <pt x="562" y="204" on="0"/>
        <pt x="504" y="107" on="1"/>
        <pt x="474" y="57" on="0"/>
        <pt x="368" y="0" on="0"/>
        <pt x="297" y="0" on="1"/>
        <pt x="90" y="0" on="1"/>
      </contour>
      <contour>
        <pt x="186" y="614" on="1"/>
        <pt x="186" y="86" on="1"/>
        <pt x="286" y="86" on="1"/>
        <pt x="410" y="86" on="0"/>
        <pt x="442" y="199" on="1"/>
        <pt x="460" y="261" on="0"/>
        <pt x="460" y="477" on="0"/>
        <pt x="379" y="614" on="0"/>
        <pt x="278" y="614" on="1"/>
      </contour>
      <contour>
        <pt x="452" y="841" on="1"/>
        <pt x="325" y="735" on="1"/>
        <pt x="273" y="735" on="1"/>
        <pt x="146" y="841" on="1"/>
        <pt x="184" y="885" on="1"/>
        <pt x="299" y="808" on="1"/>
        <pt x="414" y="885" on="1"/>
      </contour>
    </TTGlyph>
    <TTGlyph name="Dcroat" xMin="11" yMin="0" xMax="562" yMax="700">
      <contour>
        <pt x="90" y="700" on="1"/>
        <pt x="294" y="700" on="1"/>
        <pt x="360" y="700" on="0"/>
        <pt x="459" y="657" on="0"/>
        <pt x="516" y="591" on="0"/>
        <pt x="534" y="542" on="1"/>
        <pt x="562" y="462" on="0"/>
        <pt x="562" y="344" on="1"/>
        <pt x="562" y="204" on="0"/>
        <pt x="504" y="107" on="1"/>
        <pt x="474" y="57" on="0"/>
        <pt x="368" y="0" on="0"/>
        <pt x="297" y="0" on="1"/>
        <pt x="90" y="0" on="1"/>
        <pt x="90" y="318" on="1"/>
        <pt x="11" y="318" on="1"/>
        <pt x="21" y="388" on="1"/>
        <pt x="90" y="394" on="1"/>
      </contour>
      <contour>
        <pt x="278" y="616" on="1"/>
        <pt x="186" y="616" on="1"/>
        <pt x="186" y="394" on="1"/>
        <pt x="341" y="394" on="1"/>
        <pt x="329" y="318" on="1"/>
        <pt x="186" y="318" on="1"/>
        <pt x="186" y="84" on="1"/>
        <pt x="286" y="84" on="1"/>
        <pt x="410" y="84" on="0"/>
        <pt x="442" y="198" on="1"/>
        <pt x="460" y="260" on="0"/>
        <pt x="460" y="414" on="0"/>
        <pt x="443" y="503" on="0"/>
        <pt x="424" y="540" on="1"/>
        <pt x="383" y="616" on="0"/>
      </contour>
    </TTGlyph>
    <TTGlyph name="E" xMin="90" yMin="0" xMax="474" yMax="700">
      <contour>
        <pt x="90" y="700" on="1"/>
        <pt x="469" y="700" on="1"/>
        <pt x="457" y="614" on="1"/>
        <pt x="186" y="614" on="1"/>
        <pt x="186" y="399" on="1"/>
        <pt x="425" y="399" on="1"/>
        <pt x="413" y="315" on="1"/>
        <pt x="186" y="315" on="1"/>
        <pt x="186" y="86" on="1"/>
        <pt x="474" y="86" on="1"/>
        <pt x="462" y="0" on="1"/>
        <pt x="90" y="0" on="1"/>
      </contour>
    </TTGlyph>
    <TTGlyph name="Eacute" xMin="90" yMin="0" xMax="474" yMax="898">
      <contour>
        <pt x="400" y="898" on="1"/>
        <pt x="438" y="821" on="1"/>
        <pt x="231" y="736" on="1"/>
        <pt x="198" y="792" on="1"/>
      </contour>
      <contour>
        <pt x="90" y="700" on="1"/>
        <pt x="469" y="700" on="1"/>
        <pt x="457" y="614" on="1"/>
        <pt x="186" y="614" on="1"/>
        <pt x="186" y="399" on="1"/>
        <pt x="425" y="399" on="1"/>
        <pt x="413" y="315" on="1"/>
        <pt x="186" y="315" on="1"/>
        <pt x="186" y="86" on="1"/>
        <pt x="474" y="86" on="1"/>
        <pt x="462" y="0" on="1"/>
        <pt x="90" y="0" on="1"/>
      </contour>
    </TTGlyph>
    <TTGlyph name="Ebreve" xMin="90" yMin="0" xMax="474" yMax="886">
      <contour>
        <pt x="90" y="700" on="1"/>
        <pt x="469" y="700" on="1"/>
        <pt x="457" y="614" on="1"/>
        <pt x="186" y="614" on="1"/>
        <pt x="186" y="399" on="1"/>
        <pt x="425" y="399" on="1"/>
        <pt x="413" y="315" on="1"/>
        <pt x="186" y="315" on="1"/>
        <pt x="186" y="86" on="1"/>
        <pt x="474" y="86" on="1"/>
        <pt x="462" y="0" on="1"/>
        <pt x="90" y="0" on="1"/>
      </contour>
      <contour>
        <pt x="427" y="843" on="1"/>
        <pt x="370" y="770" on="0"/>
        <pt x="182" y="770" on="0"/>
        <pt x="125" y="843" on="1"/>
        <pt x="165" y="886" on="1"/>
        <pt x="218" y="842" on="0"/>
        <pt x="336" y="842" on="0"/>
        <pt x="389" y="886" on="1"/>
      </contour>
    </TTGlyph>
    <TTGlyph name="Ecaron" xMin="90" yMin="0" xMax="474" yMax="885">
      <contour>
        <pt x="186" y="614" on="1"/>
        <pt x="186" y="399" on="1"/>
        <pt x="425" y="399" on="1"/>
        <pt x="413" y="315" on="1"/>
        <pt x="186" y="315" on="1"/>
        <pt x="186" y="86" on="1"/>
        <pt x="474" y="86" on="1"/>
        <pt x="462" y="0" on="1"/>
        <pt x="90" y="0" on="1"/>
        <pt x="90" y="700" on="1"/>
        <pt x="469" y="700" on="1"/>
        <pt x="457" y="614" on="1"/>
      </contour>
      <contour>
        <pt x="429" y="841" on="1"/>
        <pt x="302" y="735" on="1"/>
        <pt x="250" y="735" on="1"/>
        <pt x="123" y="841" on="1"/>
        <pt x="161" y="885" on="1"/>
        <pt x="276" y="808" on="1"/>
        <pt x="391" y="885" on="1"/>
      </contour>
    </TTGlyph>
    <TTGlyph name="Ecircumflex" xMin="90" yMin="0" xMax="474" yMax="885">
      <contour>
        <pt x="302" y="885" on="1"/>
        <pt x="429" y="779" on="1"/>
        <pt x="391" y="735" on="1"/>
        <pt x="276" y="812" on="1"/>
        <pt x="161" y="735" on="1"/>
        <pt x="123" y="779" on="1"/>
        <pt x="250" y="885" on="1"/>
      </contour>
      <contour>
        <pt x="90" y="700" on="1"/>
        <pt x="469" y="700" on="1"/>
        <pt x="457" y="614" on="1"/>
        <pt x="186" y="614" on="1"/>
        <pt x="186" y="399" on="1"/>
        <pt x="425" y="399" on="1"/>
        <pt x="413" y="315" on="1"/>
        <pt x="186" y="315" on="1"/>
        <pt x="186" y="86" on="1"/>
        <pt x="474" y="86" on="1"/>
        <pt x="462" y="0" on="1"/>
        <pt x="90" y="0" on="1"/>
      </contour>
    </TTGlyph>
    <TTGlyph name="Edieresis" xMin="90" yMin="0" xMax="474" yMax="884">
      <contour>
        <pt x="188" y="884" on="1"/>
        <pt x="240" y="884" on="0"/>
        <pt x="240" y="825" on="1"/>
        <pt x="240" y="773" on="0"/>
        <pt x="181" y="773" on="1"/>
        <pt x="128" y="773" on="0"/>
        <pt x="128" y="832" on="1"/>
        <pt x="128" y="857" on="0"/>
        <pt x="153" y="884" on="0"/>
      </contour>
      <contour>
        <pt x="371" y="884" on="1"/>
        <pt x="424" y="884" on="0"/>
        <pt x="424" y="825" on="1"/>
        <pt x="424" y="800" on="0"/>
        <pt x="399" y="773" on="0"/>
        <pt x="364" y="773" on="1"/>
        <pt x="312" y="773" on="0"/>
        <pt x="312" y="832" on="1"/>
        <pt x="312" y="884" on="0"/>
      </contour>
      <contour>
        <pt x="90" y="700" on="1"/>
        <pt x="469" y="700" on="1"/>
        <pt x="457" y="614" on="1"/>
        <pt x="186" y="614" on="1"/>
        <pt x="186" y="399" on="1"/>
        <pt x="425" y="399" on="1"/>
        <pt x="413" y="315" on="1"/>
        <pt x="186" y="315" on="1"/>
        <pt x="186" y="86" on="1"/>
        <pt x="474" y="86" on="1"/>
        <pt x="462" y="0" on="1"/>
        <pt x="90" y="0" on="1"/>
      </contour>
    </TTGlyph>
    <TTGlyph name="Edotaccent" xMin="90" yMin="0" xMax="474" yMax="892">
      <contour>
        <pt x="186" y="614" on="1"/>
        <pt x="186" y="399" on="1"/>
        <pt x="425" y="399" on="1"/>
        <pt x="413" y="315" on="1"/>
        <pt x="186" y="315" on="1"/>
        <pt x="186" y="86" on="1"/>
        <pt x="474" y="86" on="1"/>
        <pt x="462" y="0" on="1"/>
        <pt x="90" y="0" on="1"/>
        <pt x="90" y="700" on="1"/>
        <pt x="469" y="700" on="1"/>
        <pt x="457" y="614" on="1"/>
      </contour>
      <contour>
        <pt x="279" y="892" on="1"/>
        <pt x="340" y="892" on="0"/>
        <pt x="340" y="824" on="1"/>
        <pt x="340" y="799" on="0"/>
        <pt x="307" y="763" on="0"/>
        <pt x="272" y="763" on="1"/>
        <pt x="211" y="763" on="0"/>
        <pt x="211" y="831" on="1"/>
        <pt x="211" y="856" on="0"/>
        <pt x="244" y="892" on="0"/>
      </contour>
    </TTGlyph>
    <TTGlyph name="Egrave" xMin="90" yMin="0" xMax="474" yMax="898">
      <contour>
        <pt x="363" y="792" on="1"/>
        <pt x="330" y="736" on="1"/>
        <pt x="122" y="821" on="1"/>
        <pt x="160" y="898" on="1"/>
      </contour>
      <contour>
        <pt x="90" y="700" on="1"/>
        <pt x="469" y="700" on="1"/>
        <pt x="457" y="614" on="1"/>
        <pt x="186" y="614" on="1"/>
        <pt x="186" y="399" on="1"/>
        <pt x="425" y="399" on="1"/>
        <pt x="413" y="315" on="1"/>
        <pt x="186" y="315" on="1"/>
        <pt x="186" y="86" on="1"/>
        <pt x="474" y="86" on="1"/>
        <pt x="462" y="0" on="1"/>
        <pt x="90" y="0" on="1"/>
      </contour>
    </TTGlyph>
    <TTGlyph name="Emacron" xMin="90" yMin="0" xMax="474" yMax="868">
      <contour>
        <pt x="186" y="614" on="1"/>
        <pt x="186" y="399" on="1"/>
        <pt x="425" y="399" on="1"/>
        <pt x="413" y="315" on="1"/>
        <pt x="186" y="315" on="1"/>
        <pt x="186" y="86" on="1"/>
        <pt x="474" y="86" on="1"/>
        <pt x="462" y="0" on="1"/>
        <pt x="90" y="0" on="1"/>
        <pt x="90" y="700" on="1"/>
        <pt x="469" y="700" on="1"/>
        <pt x="457" y="614" on="1"/>
      </contour>
      <contour>
        <pt x="146" y="868" on="1"/>
        <pt x="406" y="868" on="1"/>
        <pt x="406" y="794" on="1"/>
        <pt x="146" y="794" on="1"/>
      </contour>
    </TTGlyph>
    <TTGlyph name="Eng" xMin="90" yMin="-188" xMax="540" yMax="700">
      <contour>
        <pt x="540" y="700" on="1"/>
        <pt x="540" y="86" on="1"/>
        <pt x="540" y="-23" on="0"/>
        <pt x="518" y="-62" on="1"/>
        <pt x="488" y="-112" on="0"/>
        <pt x="440" y="-146" on="1"/>
        <pt x="411" y="-166" on="0"/>
        <pt x="370" y="-188" on="1"/>
        <pt x="311" y="-121" on="1"/>
        <pt x="374" y="-80" on="0"/>
        <pt x="425" y="-30" on="0"/>
        <pt x="435" y="8" on="1"/>
        <pt x="207" y="474" on="1"/>
        <pt x="174" y="566" on="1"/>
        <pt x="171" y="562" on="1"/>
        <pt x="186" y="431" on="1"/>
        <pt x="186" y="0" on="1"/>
        <pt x="90" y="0" on="1"/>
        <pt x="90" y="700" on="1"/>
        <pt x="192" y="700" on="1"/>
        <pt x="423" y="214" on="1"/>
        <pt x="457" y="119" on="1"/>
        <pt x="460" y="123" on="1"/>
        <pt x="444" y="254" on="1"/>
        <pt x="444" y="700" on="1"/>
      </contour>
    </TTGlyph>
    <TTGlyph name="Eogonek" xMin="90" yMin="-188" xMax="474" yMax="700">
      <contour>
        <pt x="186" y="614" on="1"/>
        <pt x="186" y="399" on="1"/>
        <pt x="425" y="399" on="1"/>
        <pt x="413" y="315" on="1"/>
        <pt x="186" y="315" on="1"/>
        <pt x="186" y="86" on="1"/>
        <pt x="474" y="86" on="1"/>
        <pt x="462" y="0" on="1"/>
        <pt x="391" y="-66" on="0"/>
        <pt x="391" y="-103" on="1"/>
        <pt x="391" y="-117" on="0"/>
        <pt x="408" y="-137" on="0"/>
        <pt x="443" y="-137" on="0"/>
        <pt x="459" y="-130" on="1"/>
        <pt x="470" y="-168" on="1"/>
        <pt x="436" y="-188" on="0"/>
        <pt x="369" y="-188" on="0"/>
        <pt x="323" y="-147" on="0"/>
        <pt x="323" y="-75" on="0"/>
        <pt x="355" y="-41" on="1"/>
        <pt x="367" y="-26" on="0"/>
        <pt x="398" y="0" on="1"/>
        <pt x="90" y="0" on="1"/>
        <pt x="90" y="700" on="1"/>
        <pt x="469" y="700" on="1"/>
        <pt x="457" y="614" on="1"/>
      </contour>
    </TTGlyph>
    <TTGlyph name="Eth" xMin="16" yMin="0" xMax="567" yMax="700">
      <contour>
        <pt x="95" y="700" on="1"/>
        <pt x="299" y="700" on="1"/>
        <pt x="365" y="700" on="0"/>
        <pt x="464" y="657" on="0"/>
        <pt x="521" y="591" on="0"/>
        <pt x="538" y="542" on="1"/>
        <pt x="567" y="462" on="0"/>
        <pt x="567" y="344" on="1"/>
        <pt x="567" y="204" on="0"/>
        <pt x="509" y="107" on="1"/>
        <pt x="479" y="57" on="0"/>
        <pt x="373" y="0" on="0"/>
        <pt x="302" y="0" on="1"/>
        <pt x="95" y="0" on="1"/>
        <pt x="95" y="318" on="1"/>
        <pt x="16" y="318" on="1"/>
        <pt x="26" y="388" on="1"/>
        <pt x="95" y="394" on="1"/>
      </contour>
      <contour>
        <pt x="191" y="616" on="1"/>
        <pt x="191" y="394" on="1"/>
        <pt x="346" y="394" on="1"/>
        <pt x="334" y="318" on="1"/>
        <pt x="191" y="318" on="1"/>
        <pt x="191" y="84" on="1"/>
        <pt x="291" y="84" on="1"/>
        <pt x="415" y="84" on="0"/>
        <pt x="448" y="198" on="1"/>
        <pt x="465" y="260" on="0"/>
        <pt x="465" y="414" on="0"/>
        <pt x="448" y="503" on="0"/>
        <pt x="428" y="540" on="1"/>
        <pt x="388" y="616" on="0"/>
        <pt x="283" y="616" on="1"/>
      </contour>
    </TTGlyph>
    <TTGlyph name="Euro" xMin="16" yMin="61" xMax="488" yMax="616">
      <contour>
        <pt x="459" y="509" on="1"/>
        <pt x="398" y="536" on="0"/>
        <pt x="289" y="536" on="0"/>
        <pt x="220" y="484" on="0"/>
        <pt x="205" y="425" on="1"/>
        <pt x="387" y="425" on="1"/>
        <pt x="363" y="362" on="1"/>
        <pt x="196" y="362" on="1"/>
        <pt x="193" y="335" on="0"/>
        <pt x="193" y="304" on="1"/>
        <pt x="341" y="304" on="1"/>
        <pt x="317" y="242" on="1"/>
        <pt x="196" y="242" on="1"/>
        <pt x="203" y="188" on="0"/>
        <pt x="257" y="142" on="0"/>
        <pt x="379" y="142" on="0"/>
        <pt x="433" y="171" on="1"/>
        <pt x="454" y="112" on="1"/>
        <pt x="391" y="61" on="0"/>
        <pt x="300" y="61" on="1"/>
        <pt x="124" y="61" on="0"/>
        <pt x="100" y="242" on="1"/>
        <pt x="16" y="242" on="1"/>
        <pt x="30" y="298" on="1"/>
        <pt x="97" y="303" on="1"/>
        <pt x="97" y="334" on="0"/>
        <pt x="100" y="362" on="1"/>
        <pt x="31" y="362" on="1"/>
        <pt x="45" y="419" on="1"/>
        <pt x="112" y="425" on="1"/>
        <pt x="135" y="513" on="0"/>
        <pt x="248" y="616" on="0"/>
        <pt x="428" y="616" on="0"/>
        <pt x="488" y="574" on="1"/>
      </contour>
    </TTGlyph>
    <TTGlyph name="F" xMin="90" yMin="0" xMax="461" yMax="700">
      <contour>
        <pt x="90" y="700" on="1"/>
        <pt x="461" y="700" on="1"/>
        <pt x="449" y="615" on="1"/>
        <pt x="186" y="615" on="1"/>
        <pt x="186" y="391" on="1"/>
        <pt x="412" y="391" on="1"/>
        <pt x="400" y="307" on="1"/>
        <pt x="186" y="307" on="1"/>
        <pt x="186" y="0" on="1"/>
        <pt x="90" y="0" on="1"/>
      </contour>
    </TTGlyph>
    <TTGlyph name="G" xMin="55" yMin="-12" xMax="533" yMax="712">
      <contour>
        <pt x="327" y="712" on="1"/>
        <pt x="438" y="712" on="0"/>
        <pt x="528" y="610" on="0"/>
        <pt x="528" y="509" on="1"/>
        <pt x="426" y="499" on="1"/>
        <pt x="426" y="570" on="0"/>
        <pt x="373" y="626" on="0"/>
        <pt x="276" y="626" on="0"/>
        <pt x="217" y="597" on="0"/>
        <pt x="183" y="549" on="0"/>
        <pt x="173" y="510" on="1"/>
        <pt x="157" y="446" on="0"/>
        <pt x="157" y="197" on="0"/>
        <pt x="244" y="74" on="0"/>
        <pt x="341" y="74" on="1"/>
        <pt x="396" y="74" on="0"/>
        <pt x="443" y="92" on="1"/>
        <pt x="443" y="251" on="1"/>
        <pt x="308" y="251" on="1"/>
        <pt x="318" y="335" on="1"/>
        <pt x="533" y="335" on="1"/>
        <pt x="533" y="35" on="1"/>
        <pt x="431" y="-12" on="0"/>
        <pt x="325" y="-12" on="1"/>
        <pt x="172" y="-12" on="0"/>
        <pt x="112" y="81" on="1"/>
        <pt x="63" y="158" on="0"/>
        <pt x="56" y="282" on="1"/>
        <pt x="55" y="313" on="0"/>
        <pt x="55" y="355" on="1"/>
        <pt x="55" y="515" on="0"/>
        <pt x="196" y="712" on="0"/>
      </contour>
    </TTGlyph>
    <TTGlyph name="Gbreve" xMin="55" yMin="-12" xMax="533" yMax="886">
      <contour>
        <pt x="327" y="712" on="1"/>
        <pt x="438" y="712" on="0"/>
        <pt x="528" y="610" on="0"/>
        <pt x="528" y="509" on="1"/>
        <pt x="426" y="499" on="1"/>
        <pt x="426" y="570" on="0"/>
        <pt x="373" y="626" on="0"/>
        <pt x="276" y="626" on="0"/>
        <pt x="217" y="597" on="0"/>
        <pt x="183" y="549" on="0"/>
        <pt x="173" y="510" on="1"/>
        <pt x="157" y="446" on="0"/>
        <pt x="157" y="197" on="0"/>
        <pt x="244" y="74" on="0"/>
        <pt x="341" y="74" on="1"/>
        <pt x="396" y="74" on="0"/>
        <pt x="443" y="92" on="1"/>
        <pt x="443" y="251" on="1"/>
        <pt x="308" y="251" on="1"/>
        <pt x="318" y="335" on="1"/>
        <pt x="533" y="335" on="1"/>
        <pt x="533" y="35" on="1"/>
        <pt x="431" y="-12" on="0"/>
        <pt x="325" y="-12" on="1"/>
        <pt x="172" y="-12" on="0"/>
        <pt x="112" y="81" on="1"/>
        <pt x="63" y="158" on="0"/>
        <pt x="56" y="282" on="1"/>
        <pt x="55" y="313" on="0"/>
        <pt x="55" y="355" on="1"/>
        <pt x="55" y="515" on="0"/>
        <pt x="196" y="712" on="0"/>
      </contour>
      <contour>
        <pt x="472" y="843" on="1"/>
        <pt x="415" y="770" on="0"/>
        <pt x="227" y="770" on="0"/>
        <pt x="170" y="843" on="1"/>
        <pt x="210" y="886" on="1"/>
        <pt x="263" y="842" on="0"/>
        <pt x="381" y="842" on="0"/>
        <pt x="434" y="886" on="1"/>
      </contour>
    </TTGlyph>
    <TTGlyph name="Gcircumflex" xMin="55" yMin="-12" xMax="533" yMax="885">
      <contour>
        <pt x="327" y="712" on="1"/>
        <pt x="438" y="712" on="0"/>
        <pt x="528" y="610" on="0"/>
        <pt x="528" y="509" on="1"/>
        <pt x="426" y="499" on="1"/>
        <pt x="426" y="570" on="0"/>
        <pt x="373" y="626" on="0"/>
        <pt x="276" y="626" on="0"/>
        <pt x="217" y="597" on="0"/>
        <pt x="183" y="549" on="0"/>
        <pt x="173" y="510" on="1"/>
        <pt x="157" y="446" on="0"/>
        <pt x="157" y="197" on="0"/>
        <pt x="244" y="74" on="0"/>
        <pt x="341" y="74" on="1"/>
        <pt x="396" y="74" on="0"/>
        <pt x="443" y="92" on="1"/>
        <pt x="443" y="251" on="1"/>
        <pt x="308" y="251" on="1"/>
        <pt x="318" y="335" on="1"/>
        <pt x="533" y="335" on="1"/>
        <pt x="533" y="35" on="1"/>
        <pt x="431" y="-12" on="0"/>
        <pt x="325" y="-12" on="1"/>
        <pt x="172" y="-12" on="0"/>
        <pt x="112" y="81" on="1"/>
        <pt x="63" y="158" on="0"/>
        <pt x="56" y="282" on="1"/>
        <pt x="55" y="313" on="0"/>
        <pt x="55" y="355" on="1"/>
        <pt x="55" y="515" on="0"/>
        <pt x="196" y="712" on="0"/>
      </contour>
      <contour>
        <pt x="347" y="885" on="1"/>
        <pt x="474" y="779" on="1"/>
        <pt x="436" y="735" on="1"/>
        <pt x="321" y="812" on="1"/>
        <pt x="206" y="735" on="1"/>
        <pt x="168" y="779" on="1"/>
        <pt x="295" y="885" on="1"/>
      </contour>
    </TTGlyph>
    <TTGlyph name="Gcommaaccent" xMin="55" yMin="-247" xMax="533" yMax="712">
      <contour>
        <pt x="327" y="712" on="1"/>
        <pt x="438" y="712" on="0"/>
        <pt x="528" y="610" on="0"/>
        <pt x="528" y="509" on="1"/>
        <pt x="426" y="499" on="1"/>
        <pt x="426" y="570" on="0"/>
        <pt x="373" y="626" on="0"/>
        <pt x="276" y="626" on="0"/>
        <pt x="217" y="597" on="0"/>
        <pt x="183" y="549" on="0"/>
        <pt x="173" y="510" on="1"/>
        <pt x="157" y="446" on="0"/>
        <pt x="157" y="197" on="0"/>
        <pt x="244" y="74" on="0"/>
        <pt x="341" y="74" on="1"/>
        <pt x="396" y="74" on="0"/>
        <pt x="443" y="92" on="1"/>
        <pt x="443" y="251" on="1"/>
        <pt x="308" y="251" on="1"/>
        <pt x="318" y="335" on="1"/>
        <pt x="533" y="335" on="1"/>
        <pt x="533" y="35" on="1"/>
        <pt x="431" y="-12" on="0"/>
        <pt x="325" y="-12" on="1"/>
        <pt x="172" y="-12" on="0"/>
        <pt x="112" y="81" on="1"/>
        <pt x="63" y="158" on="0"/>
        <pt x="56" y="282" on="1"/>
        <pt x="55" y="313" on="0"/>
        <pt x="55" y="355" on="1"/>
        <pt x="55" y="515" on="0"/>
        <pt x="196" y="712" on="0"/>
      </contour>
      <contour>
        <pt x="358" y="-31" on="1"/>
        <pt x="366" y="-95" on="0"/>
        <pt x="366" y="-147" on="0"/>
        <pt x="329" y="-196" on="0"/>
        <pt x="271" y="-247" on="1"/>
        <pt x="234" y="-207" on="1"/>
        <pt x="268" y="-165" on="0"/>
        <pt x="284" y="-134" on="0"/>
        <pt x="284" y="-110" on="0"/>
        <pt x="274" y="-43" on="1"/>
      </contour>
    </TTGlyph>
    <TTGlyph name="Gdotaccent" xMin="55" yMin="-12" xMax="533" yMax="892">
      <contour>
        <pt x="327" y="712" on="1"/>
        <pt x="438" y="712" on="0"/>
        <pt x="528" y="610" on="0"/>
        <pt x="528" y="509" on="1"/>
        <pt x="426" y="499" on="1"/>
        <pt x="426" y="570" on="0"/>
        <pt x="373" y="626" on="0"/>
        <pt x="276" y="626" on="0"/>
        <pt x="217" y="597" on="0"/>
        <pt x="183" y="549" on="0"/>
        <pt x="173" y="510" on="1"/>
        <pt x="157" y="446" on="0"/>
        <pt x="157" y="197" on="0"/>
        <pt x="244" y="74" on="0"/>
        <pt x="341" y="74" on="1"/>
        <pt x="396" y="74" on="0"/>
        <pt x="443" y="92" on="1"/>
        <pt x="443" y="251" on="1"/>
        <pt x="308" y="251" on="1"/>
        <pt x="318" y="335" on="1"/>
        <pt x="533" y="335" on="1"/>
        <pt x="533" y="35" on="1"/>
        <pt x="431" y="-12" on="0"/>
        <pt x="325" y="-12" on="1"/>
        <pt x="172" y="-12" on="0"/>
        <pt x="112" y="81" on="1"/>
        <pt x="63" y="158" on="0"/>
        <pt x="56" y="282" on="1"/>
        <pt x="55" y="313" on="0"/>
        <pt x="55" y="355" on="1"/>
        <pt x="55" y="515" on="0"/>
        <pt x="196" y="712" on="0"/>
      </contour>
      <contour>
        <pt x="324" y="892" on="1"/>
        <pt x="385" y="892" on="0"/>
        <pt x="385" y="824" on="1"/>
        <pt x="385" y="799" on="0"/>
        <pt x="352" y="763" on="0"/>
        <pt x="317" y="763" on="1"/>
        <pt x="256" y="763" on="0"/>
        <pt x="256" y="831" on="1"/>
        <pt x="256" y="856" on="0"/>
        <pt x="289" y="892" on="0"/>
      </contour>
    </TTGlyph>
    <TTGlyph name="H" xMin="90" yMin="0" xMax="537" yMax="700">
      <contour>
        <pt x="441" y="0" on="1"/>
        <pt x="441" y="321" on="1"/>
        <pt x="186" y="321" on="1"/>
        <pt x="186" y="0" on="1"/>
        <pt x="90" y="0" on="1"/>
        <pt x="90" y="700" on="1"/>
        <pt x="186" y="700" on="1"/>
        <pt x="186" y="405" on="1"/>
        <pt x="441" y="405" on="1"/>
        <pt x="441" y="700" on="1"/>
        <pt x="537" y="700" on="1"/>
        <pt x="537" y="0" on="1"/>
      </contour>
    </TTGlyph>
    <TTGlyph name="Hbar" xMin="25" yMin="0" xMax="610" yMax="700">
      <contour>
        <pt x="542" y="700" on="1"/>
        <pt x="542" y="591" on="1"/>
        <pt x="610" y="591" on="1"/>
        <pt x="610" y="516" on="1"/>
        <pt x="542" y="516" on="1"/>
        <pt x="542" y="0" on="1"/>
        <pt x="446" y="0" on="1"/>
        <pt x="446" y="321" on="1"/>
        <pt x="191" y="321" on="1"/>
        <pt x="191" y="0" on="1"/>
        <pt x="95" y="0" on="1"/>
        <pt x="95" y="516" on="1"/>
        <pt x="25" y="516" on="1"/>
        <pt x="25" y="591" on="1"/>
        <pt x="95" y="591" on="1"/>
        <pt x="95" y="700" on="1"/>
        <pt x="191" y="700" on="1"/>
        <pt x="191" y="591" on="1"/>
        <pt x="446" y="591" on="1"/>
        <pt x="446" y="700" on="1"/>
      </contour>
      <contour>
        <pt x="191" y="405" on="1"/>
        <pt x="446" y="405" on="1"/>
        <pt x="446" y="516" on="1"/>
        <pt x="191" y="516" on="1"/>
      </contour>
    </TTGlyph>
    <TTGlyph name="Hcircumflex" xMin="90" yMin="0" xMax="537" yMax="885">
      <contour>
        <pt x="537" y="700" on="1"/>
        <pt x="537" y="0" on="1"/>
        <pt x="441" y="0" on="1"/>
        <pt x="441" y="321" on="1"/>
        <pt x="186" y="321" on="1"/>
        <pt x="186" y="0" on="1"/>
        <pt x="90" y="0" on="1"/>
        <pt x="90" y="700" on="1"/>
        <pt x="186" y="700" on="1"/>
        <pt x="186" y="405" on="1"/>
        <pt x="441" y="405" on="1"/>
        <pt x="441" y="700" on="1"/>
      </contour>
      <contour>
        <pt x="339" y="885" on="1"/>
        <pt x="466" y="779" on="1"/>
        <pt x="428" y="735" on="1"/>
        <pt x="313" y="812" on="1"/>
        <pt x="198" y="735" on="1"/>
        <pt x="160" y="779" on="1"/>
        <pt x="287" y="885" on="1"/>
      </contour>
    </TTGlyph>
    <TTGlyph name="I" xMin="90" yMin="0" xMax="186" yMax="700">
      <contour>
        <pt x="186" y="700" on="1"/>
        <pt x="186" y="0" on="1"/>
        <pt x="90" y="0" on="1"/>
        <pt x="90" y="700" on="1"/>
      </contour>
    </TTGlyph>
    <TTGlyph name="IJ" xMin="90" yMin="-174" xMax="462" yMax="700">
      <contour>
        <pt x="186" y="700" on="1"/>
        <pt x="186" y="0" on="1"/>
        <pt x="90" y="0" on="1"/>
        <pt x="90" y="700" on="1"/>
      </contour>
      <contour>
        <pt x="462" y="700" on="1"/>
        <pt x="462" y="94" on="1"/>
        <pt x="462" y="-1" on="0"/>
        <pt x="391" y="-127" on="0"/>
        <pt x="286" y="-174" on="1"/>
        <pt x="227" y="-107" on="1"/>
        <pt x="281" y="-80" on="0"/>
        <pt x="308" y="-54" on="1"/>
        <pt x="366" y="-1" on="0"/>
        <pt x="366" y="134" on="1"/>
        <pt x="366" y="700" on="1"/>
      </contour>
    </TTGlyph>
    <TTGlyph name="Iacute" xMin="55" yMin="0" xMax="296" yMax="898">
      <contour>
        <pt x="258" y="898" on="1"/>
        <pt x="296" y="821" on="1"/>
        <pt x="88" y="736" on="1"/>
        <pt x="55" y="792" on="1"/>
      </contour>
      <contour>
        <pt x="186" y="700" on="1"/>
        <pt x="186" y="0" on="1"/>
        <pt x="90" y="0" on="1"/>
        <pt x="90" y="700" on="1"/>
      </contour>
    </TTGlyph>
    <TTGlyph name="Ibreve" xMin="-13" yMin="0" xMax="289" yMax="886">
      <contour>
        <pt x="186" y="700" on="1"/>
        <pt x="186" y="0" on="1"/>
        <pt x="90" y="0" on="1"/>
        <pt x="90" y="700" on="1"/>
      </contour>
      <contour>
        <pt x="289" y="843" on="1"/>
        <pt x="232" y="770" on="0"/>
        <pt x="44" y="770" on="0"/>
        <pt x="-13" y="843" on="1"/>
        <pt x="27" y="886" on="1"/>
        <pt x="80" y="842" on="0"/>
        <pt x="198" y="842" on="0"/>
        <pt x="251" y="886" on="1"/>
      </contour>
    </TTGlyph>
    <TTGlyph name="Icaron" xMin="0" yMin="0" xMax="276" yMax="885">
      <contour>
        <pt x="186" y="700" on="1"/>
        <pt x="186" y="0" on="1"/>
        <pt x="90" y="0" on="1"/>
        <pt x="90" y="700" on="1"/>
      </contour>
      <contour>
        <pt x="276" y="841" on="1"/>
        <pt x="164" y="735" on="1"/>
        <pt x="112" y="735" on="1"/>
        <pt x="0" y="841" on="1"/>
        <pt x="38" y="885" on="1"/>
        <pt x="138" y="808" on="1"/>
        <pt x="238" y="885" on="1"/>
      </contour>
    </TTGlyph>
    <TTGlyph name="Icircumflex" xMin="-5" yMin="0" xMax="281" yMax="885">
      <contour>
        <pt x="164" y="885" on="1"/>
        <pt x="281" y="779" on="1"/>
        <pt x="243" y="735" on="1"/>
        <pt x="138" y="812" on="1"/>
        <pt x="33" y="735" on="1"/>
        <pt x="-5" y="779" on="1"/>
        <pt x="112" y="885" on="1"/>
      </contour>
      <contour>
        <pt x="186" y="700" on="1"/>
        <pt x="186" y="0" on="1"/>
        <pt x="90" y="0" on="1"/>
        <pt x="90" y="700" on="1"/>
      </contour>
    </TTGlyph>
    <TTGlyph name="Idieresis" xMin="10" yMin="0" xMax="266" yMax="884">
      <contour>
        <pt x="70" y="884" on="1"/>
        <pt x="122" y="884" on="0"/>
        <pt x="122" y="825" on="1"/>
        <pt x="122" y="773" on="0"/>
        <pt x="63" y="773" on="1"/>
        <pt x="10" y="773" on="0"/>
        <pt x="10" y="832" on="1"/>
        <pt x="10" y="857" on="0"/>
        <pt x="35" y="884" on="0"/>
      </contour>
      <contour>
        <pt x="213" y="884" on="1"/>
        <pt x="266" y="884" on="0"/>
        <pt x="266" y="825" on="1"/>
        <pt x="266" y="800" on="0"/>
        <pt x="241" y="773" on="0"/>
        <pt x="206" y="773" on="1"/>
        <pt x="154" y="773" on="0"/>
        <pt x="154" y="832" on="1"/>
        <pt x="154" y="884" on="0"/>
      </contour>
      <contour>
        <pt x="186" y="700" on="1"/>
        <pt x="186" y="0" on="1"/>
        <pt x="90" y="0" on="1"/>
        <pt x="90" y="700" on="1"/>
      </contour>
    </TTGlyph>
    <TTGlyph name="Idotaccent" xMin="73" yMin="0" xMax="202" yMax="892">
      <contour>
        <pt x="186" y="700" on="1"/>
        <pt x="186" y="0" on="1"/>
        <pt x="90" y="0" on="1"/>
        <pt x="90" y="700" on="1"/>
      </contour>
      <contour>
        <pt x="141" y="892" on="1"/>
        <pt x="202" y="892" on="0"/>
        <pt x="202" y="824" on="1"/>
        <pt x="202" y="799" on="0"/>
        <pt x="169" y="763" on="0"/>
        <pt x="134" y="763" on="1"/>
        <pt x="73" y="763" on="0"/>
        <pt x="73" y="831" on="1"/>
        <pt x="73" y="856" on="0"/>
        <pt x="106" y="892" on="0"/>
      </contour>
    </TTGlyph>
    <TTGlyph name="Igrave" xMin="-22" yMin="0" xMax="219" yMax="898">
      <contour>
        <pt x="219" y="792" on="1"/>
        <pt x="186" y="736" on="1"/>
        <pt x="-22" y="821" on="1"/>
        <pt x="16" y="898" on="1"/>
      </contour>
      <contour>
        <pt x="186" y="700" on="1"/>
        <pt x="186" y="0" on="1"/>
        <pt x="90" y="0" on="1"/>
        <pt x="90" y="700" on="1"/>
      </contour>
    </TTGlyph>
    <TTGlyph name="Imacron" xMin="8" yMin="0" xMax="268" yMax="868">
      <contour>
        <pt x="186" y="700" on="1"/>
        <pt x="186" y="0" on="1"/>
        <pt x="90" y="0" on="1"/>
        <pt x="90" y="700" on="1"/>
      </contour>
      <contour>
        <pt x="268" y="868" on="1"/>
        <pt x="268" y="794" on="1"/>
        <pt x="8" y="794" on="1"/>
        <pt x="8" y="868" on="1"/>
      </contour>
    </TTGlyph>
    <TTGlyph name="Iogonek" xMin="47" yMin="-188" xMax="194" yMax="700">
      <contour>
        <pt x="186" y="0" on="1"/>
        <pt x="115" y="-66" on="0"/>
        <pt x="115" y="-103" on="1"/>
        <pt x="115" y="-117" on="0"/>
        <pt x="132" y="-137" on="0"/>
        <pt x="167" y="-137" on="0"/>
        <pt x="183" y="-130" on="1"/>
        <pt x="194" y="-168" on="1"/>
        <pt x="160" y="-188" on="0"/>
        <pt x="93" y="-188" on="0"/>
        <pt x="47" y="-147" on="0"/>
        <pt x="47" y="-75" on="0"/>
        <pt x="79" y="-41" on="1"/>
        <pt x="91" y="-26" on="0"/>
        <pt x="122" y="0" on="1"/>
        <pt x="90" y="0" on="1"/>
        <pt x="90" y="700" on="1"/>
        <pt x="186" y="700" on="1"/>
      </contour>
    </TTGlyph>
    <TTGlyph name="Itilde" xMin="-3" yMin="0" xMax="279" yMax="885">
      <contour>
        <pt x="186" y="700" on="1"/>
        <pt x="186" y="0" on="1"/>
        <pt x="90" y="0" on="1"/>
        <pt x="90" y="700" on="1"/>
      </contour>
      <contour>
        <pt x="185" y="775" on="1"/>
        <pt x="163" y="775" on="0"/>
        <pt x="98" y="807" on="0"/>
        <pt x="55" y="807" on="0"/>
        <pt x="18" y="775" on="1"/>
        <pt x="-3" y="836" on="1"/>
        <pt x="45" y="885" on="0"/>
        <pt x="91" y="885" on="1"/>
        <pt x="113" y="885" on="0"/>
        <pt x="178" y="853" on="0"/>
        <pt x="221" y="853" on="0"/>
        <pt x="258" y="885" on="1"/>
        <pt x="279" y="824" on="1"/>
        <pt x="231" y="775" on="0"/>
      </contour>
    </TTGlyph>
    <TTGlyph name="J" xMin="-49" yMin="-174" xMax="186" yMax="700">
      <contour>
        <pt x="186" y="700" on="1"/>
        <pt x="186" y="94" on="1"/>
        <pt x="186" y="-1" on="0"/>
        <pt x="115" y="-127" on="0"/>
        <pt x="10" y="-174" on="1"/>
        <pt x="-49" y="-107" on="1"/>
        <pt x="5" y="-80" on="0"/>
        <pt x="32" y="-54" on="1"/>
        <pt x="90" y="-1" on="0"/>
        <pt x="90" y="134" on="1"/>
        <pt x="90" y="700" on="1"/>
      </contour>
    </TTGlyph>
    <TTGlyph name="Jcircumflex" xMin="-49" yMin="-174" xMax="276" yMax="885">
      <contour>
        <pt x="186" y="700" on="1"/>
        <pt x="186" y="94" on="1"/>
        <pt x="186" y="-1" on="0"/>
        <pt x="115" y="-127" on="0"/>
        <pt x="10" y="-174" on="1"/>
        <pt x="-49" y="-107" on="1"/>
        <pt x="5" y="-80" on="0"/>
        <pt x="32" y="-54" on="1"/>
        <pt x="90" y="-1" on="0"/>
        <pt x="90" y="134" on="1"/>
        <pt x="90" y="700" on="1"/>
      </contour>
      <contour>
        <pt x="164" y="885" on="1"/>
        <pt x="276" y="779" on="1"/>
        <pt x="238" y="735" on="1"/>
        <pt x="138" y="812" on="1"/>
        <pt x="38" y="735" on="1"/>
        <pt x="0" y="779" on="1"/>
        <pt x="112" y="885" on="1"/>
      </contour>
    </TTGlyph>
    <TTGlyph name="K" xMin="90" yMin="0" xMax="542" yMax="701">
      <contour>
        <pt x="186" y="700" on="1"/>
        <pt x="186" y="0" on="1"/>
        <pt x="90" y="0" on="1"/>
        <pt x="90" y="700" on="1"/>
      </contour>
      <contour>
        <pt x="428" y="701" on="1"/>
        <pt x="511" y="665" on="1"/>
        <pt x="293" y="361" on="1"/>
        <pt x="542" y="0" on="1"/>
        <pt x="425" y="0" on="1"/>
        <pt x="190" y="350" on="1"/>
      </contour>
    </TTGlyph>
    <TTGlyph name="Kcommaaccent" xMin="90" yMin="-247" xMax="542" yMax="701">
      <contour>
        <pt x="329" y="-31" on="1"/>
        <pt x="337" y="-95" on="0"/>
        <pt x="337" y="-147" on="0"/>
        <pt x="300" y="-196" on="0"/>
        <pt x="242" y="-247" on="1"/>
        <pt x="205" y="-207" on="1"/>
        <pt x="239" y="-165" on="0"/>
        <pt x="255" y="-134" on="0"/>
        <pt x="255" y="-110" on="0"/>
        <pt x="245" y="-43" on="1"/>
      </contour>
      <contour>
        <pt x="186" y="700" on="1"/>
        <pt x="186" y="0" on="1"/>
        <pt x="90" y="0" on="1"/>
        <pt x="90" y="700" on="1"/>
      </contour>
      <contour>
        <pt x="428" y="701" on="1"/>
        <pt x="511" y="665" on="1"/>
        <pt x="293" y="361" on="1"/>
        <pt x="542" y="0" on="1"/>
        <pt x="425" y="0" on="1"/>
        <pt x="190" y="350" on="1"/>
      </contour>
    </TTGlyph>
    <TTGlyph name="L" xMin="90" yMin="0" xMax="443" yMax="700">
      <contour>
        <pt x="186" y="700" on="1"/>
        <pt x="186" y="85" on="1"/>
        <pt x="443" y="85" on="1"/>
        <pt x="431" y="0" on="1"/>
        <pt x="90" y="0" on="1"/>
        <pt x="90" y="700" on="1"/>
      </contour>
    </TTGlyph>
    <TTGlyph name="Lacute" xMin="90" yMin="0" xMax="443" yMax="898">
      <contour>
        <pt x="186" y="700" on="1"/>
        <pt x="186" y="86" on="1"/>
        <pt x="443" y="86" on="1"/>
        <pt x="431" y="0" on="1"/>
        <pt x="90" y="0" on="1"/>
        <pt x="90" y="700" on="1"/>
      </contour>
      <contour>
        <pt x="310" y="898" on="1"/>
        <pt x="348" y="821" on="1"/>
        <pt x="140" y="736" on="1"/>
        <pt x="107" y="792" on="1"/>
      </contour>
    </TTGlyph>
    <TTGlyph name="Lcaron" xMin="90" yMin="0" xMax="443" yMax="749">
      <contour>
        <pt x="388" y="749" on="1"/>
        <pt x="397" y="674" on="0"/>
        <pt x="397" y="623" on="0"/>
        <pt x="359" y="558" on="0"/>
        <pt x="301" y="507" on="1"/>
        <pt x="261" y="548" on="1"/>
        <pt x="294" y="582" on="0"/>
        <pt x="313" y="615" on="0"/>
        <pt x="313" y="666" on="0"/>
        <pt x="298" y="730" on="1"/>
      </contour>
      <contour>
        <pt x="186" y="700" on="1"/>
        <pt x="186" y="86" on="1"/>
        <pt x="443" y="86" on="1"/>
        <pt x="431" y="0" on="1"/>
        <pt x="90" y="0" on="1"/>
        <pt x="90" y="700" on="1"/>
      </contour>
    </TTGlyph>
    <TTGlyph name="Lcommaaccent" xMin="90" yMin="-247" xMax="443" yMax="700">
      <contour>
        <pt x="186" y="700" on="1"/>
        <pt x="186" y="86" on="1"/>
        <pt x="443" y="86" on="1"/>
        <pt x="431" y="0" on="1"/>
        <pt x="90" y="0" on="1"/>
        <pt x="90" y="700" on="1"/>
      </contour>
      <contour>
        <pt x="299" y="-31" on="1"/>
        <pt x="307" y="-95" on="0"/>
        <pt x="307" y="-147" on="0"/>
        <pt x="270" y="-196" on="0"/>
        <pt x="212" y="-247" on="1"/>
        <pt x="175" y="-207" on="1"/>
        <pt x="209" y="-165" on="0"/>
        <pt x="225" y="-134" on="0"/>
        <pt x="225" y="-110" on="0"/>
        <pt x="215" y="-43" on="1"/>
      </contour>
    </TTGlyph>
    <TTGlyph name="Ldot" xMin="90" yMin="0" xMax="443" yMax="700">
      <contour>
        <pt x="186" y="700" on="1"/>
        <pt x="186" y="86" on="1"/>
        <pt x="443" y="86" on="1"/>
        <pt x="431" y="0" on="1"/>
        <pt x="90" y="0" on="1"/>
        <pt x="90" y="700" on="1"/>
      </contour>
      <contour>
        <pt x="349" y="443" on="1"/>
        <pt x="410" y="443" on="0"/>
        <pt x="410" y="375" on="1"/>
        <pt x="410" y="350" on="0"/>
        <pt x="377" y="314" on="0"/>
        <pt x="342" y="314" on="1"/>
        <pt x="281" y="314" on="0"/>
        <pt x="281" y="382" on="1"/>
        <pt x="281" y="407" on="0"/>
        <pt x="314" y="443" on="0"/>
      </contour>
    </TTGlyph>
    <TTGlyph name="Lslash" xMin="13" yMin="0" xMax="448" yMax="700">
      <contour>
        <pt x="191" y="700" on="1"/>
        <pt x="191" y="403" on="1"/>
        <pt x="313" y="461" on="1"/>
        <pt x="313" y="379" on="1"/>
        <pt x="191" y="322" on="1"/>
        <pt x="191" y="86" on="1"/>
        <pt x="448" y="86" on="1"/>
        <pt x="436" y="0" on="1"/>
        <pt x="95" y="0" on="1"/>
        <pt x="95" y="277" on="1"/>
        <pt x="13" y="239" on="1"/>
        <pt x="13" y="320" on="1"/>
        <pt x="95" y="358" on="1"/>
        <pt x="95" y="700" on="1"/>
      </contour>
    </TTGlyph>
    <TTGlyph name="M" xMin="61" yMin="0" xMax="677" yMax="700">
      <contour>
        <pt x="640" y="700" on="1"/>
        <pt x="677" y="0" on="1"/>
        <pt x="583" y="0" on="1"/>
        <pt x="559" y="494" on="1"/>
        <pt x="566" y="614" on="1"/>
        <pt x="560" y="614" on="1"/>
        <pt x="425" y="40" on="1"/>
        <pt x="310" y="30" on="1"/>
        <pt x="155" y="614" on="1"/>
        <pt x="148" y="614" on="1"/>
        <pt x="160" y="496" on="1"/>
        <pt x="143" y="0" on="1"/>
        <pt x="61" y="0" on="1"/>
        <pt x="88" y="700" on="1"/>
        <pt x="228" y="700" on="1"/>
        <pt x="348" y="230" on="1"/>
        <pt x="369" y="120" on="1"/>
        <pt x="374" y="120" on="1"/>
        <pt x="392" y="227" on="1"/>
        <pt x="500" y="700" on="1"/>
      </contour>
    </TTGlyph>
    <TTGlyph name="Macute" xMin="61" yMin="0" xMax="677" yMax="898">
      <contour>
        <pt x="640" y="700" on="1"/>
        <pt x="677" y="0" on="1"/>
        <pt x="583" y="0" on="1"/>
        <pt x="559" y="494" on="1"/>
        <pt x="566" y="614" on="1"/>
        <pt x="560" y="614" on="1"/>
        <pt x="425" y="40" on="1"/>
        <pt x="310" y="30" on="1"/>
        <pt x="155" y="614" on="1"/>
        <pt x="148" y="614" on="1"/>
        <pt x="160" y="496" on="1"/>
        <pt x="143" y="0" on="1"/>
        <pt x="61" y="0" on="1"/>
        <pt x="88" y="700" on="1"/>
        <pt x="228" y="700" on="1"/>
        <pt x="348" y="230" on="1"/>
        <pt x="369" y="120" on="1"/>
        <pt x="374" y="120" on="1"/>
        <pt x="392" y="227" on="1"/>
        <pt x="500" y="700" on="1"/>
      </contour>
      <contour>
        <pt x="487" y="898" on="1"/>
        <pt x="525" y="821" on="1"/>
        <pt x="317" y="736" on="1"/>
        <pt x="284" y="792" on="1"/>
      </contour>
    </TTGlyph>
    <TTGlyph name="N" xMin="90" yMin="0" xMax="540" yMax="700">
      <contour>
        <pt x="540" y="700" on="1"/>
        <pt x="540" y="0" on="1"/>
        <pt x="439" y="0" on="1"/>
        <pt x="207" y="474" on="1"/>
        <pt x="174" y="566" on="1"/>
        <pt x="169" y="563" on="1"/>
        <pt x="186" y="460" on="1"/>
        <pt x="186" y="0" on="1"/>
        <pt x="90" y="0" on="1"/>
        <pt x="90" y="700" on="1"/>
        <pt x="192" y="700" on="1"/>
        <pt x="423" y="214" on="1"/>
        <pt x="457" y="119" on="1"/>
        <pt x="462" y="122" on="1"/>
        <pt x="444" y="240" on="1"/>
        <pt x="444" y="700" on="1"/>
      </contour>
    </TTGlyph>
    <TTGlyph name="Nacute" xMin="90" yMin="0" xMax="540" yMax="898">
      <contour>
        <pt x="471" y="821" on="1"/>
        <pt x="263" y="736" on="1"/>
        <pt x="230" y="792" on="1"/>
        <pt x="433" y="898" on="1"/>
      </contour>
      <contour>
        <pt x="540" y="700" on="1"/>
        <pt x="540" y="0" on="1"/>
        <pt x="439" y="0" on="1"/>
        <pt x="207" y="474" on="1"/>
        <pt x="174" y="566" on="1"/>
        <pt x="169" y="563" on="1"/>
        <pt x="186" y="460" on="1"/>
        <pt x="186" y="0" on="1"/>
        <pt x="90" y="0" on="1"/>
        <pt x="90" y="700" on="1"/>
        <pt x="192" y="700" on="1"/>
        <pt x="423" y="214" on="1"/>
        <pt x="457" y="119" on="1"/>
        <pt x="462" y="122" on="1"/>
        <pt x="444" y="240" on="1"/>
        <pt x="444" y="700" on="1"/>
      </contour>
    </TTGlyph>
    <TTGlyph name="Ncaron" xMin="90" yMin="0" xMax="540" yMax="885">
      <contour>
        <pt x="468" y="841" on="1"/>
        <pt x="341" y="735" on="1"/>
        <pt x="289" y="735" on="1"/>
        <pt x="162" y="841" on="1"/>
        <pt x="200" y="885" on="1"/>
        <pt x="315" y="808" on="1"/>
        <pt x="430" y="885" on="1"/>
      </contour>
      <contour>
        <pt x="540" y="700" on="1"/>
        <pt x="540" y="0" on="1"/>
        <pt x="439" y="0" on="1"/>
        <pt x="207" y="474" on="1"/>
        <pt x="174" y="566" on="1"/>
        <pt x="169" y="563" on="1"/>
        <pt x="186" y="460" on="1"/>
        <pt x="186" y="0" on="1"/>
        <pt x="90" y="0" on="1"/>
        <pt x="90" y="700" on="1"/>
        <pt x="192" y="700" on="1"/>
        <pt x="423" y="214" on="1"/>
        <pt x="457" y="119" on="1"/>
        <pt x="462" y="122" on="1"/>
        <pt x="444" y="240" on="1"/>
        <pt x="444" y="700" on="1"/>
      </contour>
    </TTGlyph>
    <TTGlyph name="Ncommaaccent" xMin="90" yMin="-247" xMax="540" yMax="700">
      <contour>
        <pt x="351" y="-31" on="1"/>
        <pt x="359" y="-89" on="0"/>
        <pt x="359" y="-147" on="0"/>
        <pt x="322" y="-196" on="0"/>
        <pt x="264" y="-247" on="1"/>
        <pt x="227" y="-207" on="1"/>
        <pt x="261" y="-165" on="0"/>
        <pt x="277" y="-134" on="0"/>
        <pt x="277" y="-110" on="0"/>
        <pt x="267" y="-43" on="1"/>
      </contour>
      <contour>
        <pt x="540" y="700" on="1"/>
        <pt x="540" y="0" on="1"/>
        <pt x="439" y="0" on="1"/>
        <pt x="207" y="474" on="1"/>
        <pt x="174" y="566" on="1"/>
        <pt x="169" y="563" on="1"/>
        <pt x="186" y="460" on="1"/>
        <pt x="186" y="0" on="1"/>
        <pt x="90" y="0" on="1"/>
        <pt x="90" y="700" on="1"/>
        <pt x="192" y="700" on="1"/>
        <pt x="423" y="214" on="1"/>
        <pt x="457" y="119" on="1"/>
        <pt x="462" y="122" on="1"/>
        <pt x="444" y="240" on="1"/>
        <pt x="444" y="700" on="1"/>
      </contour>
    </TTGlyph>
    <TTGlyph name="Ntilde" xMin="90" yMin="0" xMax="540" yMax="885">
      <contour>
        <pt x="372" y="775" on="1"/>
        <pt x="346" y="775" on="0"/>
        <pt x="269" y="807" on="0"/>
        <pt x="216" y="807" on="0"/>
        <pt x="170" y="775" on="1"/>
        <pt x="149" y="836" on="1"/>
        <pt x="205" y="885" on="0"/>
        <pt x="258" y="885" on="1"/>
        <pt x="284" y="885" on="0"/>
        <pt x="361" y="853" on="0"/>
        <pt x="414" y="853" on="0"/>
        <pt x="460" y="885" on="1"/>
        <pt x="481" y="824" on="1"/>
        <pt x="425" y="775" on="0"/>
      </contour>
      <contour>
        <pt x="540" y="700" on="1"/>
        <pt x="540" y="0" on="1"/>
        <pt x="439" y="0" on="1"/>
        <pt x="207" y="474" on="1"/>
        <pt x="174" y="566" on="1"/>
        <pt x="169" y="563" on="1"/>
        <pt x="186" y="460" on="1"/>
        <pt x="186" y="0" on="1"/>
        <pt x="90" y="0" on="1"/>
        <pt x="90" y="700" on="1"/>
        <pt x="192" y="700" on="1"/>
        <pt x="423" y="214" on="1"/>
        <pt x="457" y="119" on="1"/>
        <pt x="462" y="122" on="1"/>
        <pt x="444" y="240" on="1"/>
        <pt x="444" y="700" on="1"/>
      </contour>
    </TTGlyph>
    <TTGlyph name="O" xMin="50" yMin="-12" xMax="576" yMax="712">
      <contour>
        <pt x="410" y="597" on="0"/>
        <pt x="346" y="626" on="0"/>
        <pt x="255" y="626" on="0"/>
        <pt x="192" y="581" on="0"/>
        <pt x="177" y="538" on="1"/>
        <pt x="152" y="465" on="0"/>
        <pt x="152" y="342" on="1"/>
        <pt x="152" y="182" on="0"/>
        <pt x="197" y="126" on="1"/>
        <pt x="238" y="74" on="0"/>
        <pt x="323" y="74" on="1"/>
        <pt x="363" y="74" on="0"/>
        <pt x="420" y="107" on="0"/>
        <pt x="451" y="156" on="0"/>
        <pt x="460" y="196" on="1"/>
        <pt x="474" y="258" on="0"/>
        <pt x="474" y="408" on="0"/>
        <pt x="468" y="479" on="0"/>
        <pt x="447" y="552" on="0"/>
      </contour>
      <contour>
        <pt x="324" y="712" on="1"/>
        <pt x="576" y="712" on="0"/>
        <pt x="576" y="365" on="1"/>
        <pt x="576" y="186" on="0"/>
        <pt x="438" y="-12" on="0"/>
        <pt x="302" y="-12" on="1"/>
        <pt x="50" y="-12" on="0"/>
        <pt x="50" y="335" on="1"/>
        <pt x="50" y="514" on="0"/>
        <pt x="188" y="712" on="0"/>
      </contour>
    </TTGlyph>
    <TTGlyph name="OE" xMin="50" yMin="-12" xMax="789" yMax="712">
      <contour>
        <pt x="501" y="614" on="1"/>
        <pt x="501" y="399" on="1"/>
        <pt x="740" y="399" on="1"/>
        <pt x="728" y="315" on="1"/>
        <pt x="501" y="315" on="1"/>
        <pt x="501" y="86" on="1"/>
        <pt x="789" y="86" on="1"/>
        <pt x="777" y="0" on="1"/>
        <pt x="375" y="0" on="1"/>
        <pt x="334" y="-12" on="0"/>
        <pt x="292" y="-12" on="1"/>
        <pt x="50" y="-12" on="0"/>
        <pt x="50" y="335" on="1"/>
        <pt x="50" y="513" on="0"/>
        <pt x="185" y="712" on="0"/>
        <pt x="315" y="712" on="1"/>
        <pt x="359" y="712" on="0"/>
        <pt x="389" y="700" on="1"/>
        <pt x="784" y="700" on="1"/>
        <pt x="772" y="614" on="1"/>
      </contour>
      <contour>
        <pt x="405" y="601" on="1"/>
        <pt x="355" y="626" on="0"/>
        <pt x="262" y="626" on="0"/>
        <pt x="207" y="594" on="0"/>
        <pt x="176" y="544" on="0"/>
        <pt x="167" y="504" on="1"/>
        <pt x="152" y="439" on="0"/>
        <pt x="152" y="282" on="0"/>
        <pt x="165" y="194" on="0"/>
        <pt x="182" y="154" on="1"/>
        <pt x="217" y="74" on="0"/>
        <pt x="317" y="74" on="1"/>
        <pt x="369" y="74" on="0"/>
        <pt x="405" y="97" on="1"/>
      </contour>
    </TTGlyph>
    <TTGlyph name="Oacute" xMin="50" yMin="-12" xMax="576" yMax="898">
      <contour>
        <pt x="432" y="898" on="1"/>
        <pt x="470" y="821" on="1"/>
        <pt x="262" y="736" on="1"/>
        <pt x="229" y="792" on="1"/>
      </contour>
      <contour>
        <pt x="410" y="597" on="0"/>
        <pt x="346" y="626" on="0"/>
        <pt x="255" y="626" on="0"/>
        <pt x="192" y="581" on="0"/>
        <pt x="177" y="538" on="1"/>
        <pt x="152" y="465" on="0"/>
        <pt x="152" y="342" on="1"/>
        <pt x="152" y="182" on="0"/>
        <pt x="197" y="126" on="1"/>
        <pt x="238" y="74" on="0"/>
        <pt x="323" y="74" on="1"/>
        <pt x="363" y="74" on="0"/>
        <pt x="420" y="107" on="0"/>
        <pt x="451" y="156" on="0"/>
        <pt x="460" y="196" on="1"/>
        <pt x="474" y="258" on="0"/>
        <pt x="474" y="408" on="0"/>
        <pt x="468" y="479" on="0"/>
        <pt x="447" y="552" on="0"/>
      </contour>
      <contour>
        <pt x="324" y="712" on="1"/>
        <pt x="576" y="712" on="0"/>
        <pt x="576" y="365" on="1"/>
        <pt x="576" y="186" on="0"/>
        <pt x="438" y="-12" on="0"/>
        <pt x="302" y="-12" on="1"/>
        <pt x="50" y="-12" on="0"/>
        <pt x="50" y="335" on="1"/>
        <pt x="50" y="514" on="0"/>
        <pt x="188" y="712" on="0"/>
      </contour>
    </TTGlyph>
    <TTGlyph name="Obreve" xMin="50" yMin="-12" xMax="576" yMax="886">
      <contour>
        <pt x="410" y="597" on="0"/>
        <pt x="346" y="626" on="0"/>
        <pt x="255" y="626" on="0"/>
        <pt x="192" y="581" on="0"/>
        <pt x="177" y="538" on="1"/>
        <pt x="152" y="465" on="0"/>
        <pt x="152" y="342" on="1"/>
        <pt x="152" y="182" on="0"/>
        <pt x="197" y="126" on="1"/>
        <pt x="238" y="74" on="0"/>
        <pt x="323" y="74" on="1"/>
        <pt x="363" y="74" on="0"/>
        <pt x="420" y="107" on="0"/>
        <pt x="451" y="156" on="0"/>
        <pt x="460" y="196" on="1"/>
        <pt x="474" y="258" on="0"/>
        <pt x="474" y="408" on="0"/>
        <pt x="468" y="479" on="0"/>
        <pt x="447" y="552" on="0"/>
      </contour>
      <contour>
        <pt x="324" y="712" on="1"/>
        <pt x="576" y="712" on="0"/>
        <pt x="576" y="365" on="1"/>
        <pt x="576" y="186" on="0"/>
        <pt x="438" y="-12" on="0"/>
        <pt x="302" y="-12" on="1"/>
        <pt x="50" y="-12" on="0"/>
        <pt x="50" y="335" on="1"/>
        <pt x="50" y="514" on="0"/>
        <pt x="188" y="712" on="0"/>
      </contour>
      <contour>
        <pt x="470" y="843" on="1"/>
        <pt x="413" y="770" on="0"/>
        <pt x="225" y="770" on="0"/>
        <pt x="168" y="843" on="1"/>
        <pt x="208" y="886" on="1"/>
        <pt x="261" y="842" on="0"/>
        <pt x="379" y="842" on="0"/>
        <pt x="432" y="886" on="1"/>
      </contour>
    </TTGlyph>
    <TTGlyph name="Ocaron" xMin="50" yMin="-12" xMax="576" yMax="885">
      <contour>
        <pt x="410" y="597" on="0"/>
        <pt x="346" y="626" on="0"/>
        <pt x="255" y="626" on="0"/>
        <pt x="192" y="581" on="0"/>
        <pt x="177" y="538" on="1"/>
        <pt x="152" y="465" on="0"/>
        <pt x="152" y="342" on="1"/>
        <pt x="152" y="182" on="0"/>
        <pt x="197" y="126" on="1"/>
        <pt x="238" y="74" on="0"/>
        <pt x="323" y="74" on="1"/>
        <pt x="363" y="74" on="0"/>
        <pt x="420" y="107" on="0"/>
        <pt x="451" y="156" on="0"/>
        <pt x="460" y="196" on="1"/>
        <pt x="474" y="258" on="0"/>
        <pt x="474" y="408" on="0"/>
        <pt x="468" y="479" on="0"/>
        <pt x="447" y="552" on="0"/>
      </contour>
      <contour>
        <pt x="324" y="712" on="1"/>
        <pt x="576" y="712" on="0"/>
        <pt x="576" y="365" on="1"/>
        <pt x="576" y="186" on="0"/>
        <pt x="438" y="-12" on="0"/>
        <pt x="302" y="-12" on="1"/>
        <pt x="50" y="-12" on="0"/>
        <pt x="50" y="335" on="1"/>
        <pt x="50" y="514" on="0"/>
        <pt x="188" y="712" on="0"/>
      </contour>
      <contour>
        <pt x="472" y="841" on="1"/>
        <pt x="345" y="735" on="1"/>
        <pt x="293" y="735" on="1"/>
        <pt x="166" y="841" on="1"/>
        <pt x="204" y="885" on="1"/>
        <pt x="319" y="808" on="1"/>
        <pt x="434" y="885" on="1"/>
      </contour>
    </TTGlyph>
    <TTGlyph name="Ocircumflex" xMin="50" yMin="-12" xMax="576" yMax="885">
      <contour>
        <pt x="345" y="885" on="1"/>
        <pt x="472" y="779" on="1"/>
        <pt x="434" y="735" on="1"/>
        <pt x="319" y="812" on="1"/>
        <pt x="204" y="735" on="1"/>
        <pt x="166" y="779" on="1"/>
        <pt x="293" y="885" on="1"/>
      </contour>
      <contour>
        <pt x="410" y="597" on="0"/>
        <pt x="346" y="626" on="0"/>
        <pt x="255" y="626" on="0"/>
        <pt x="192" y="581" on="0"/>
        <pt x="177" y="538" on="1"/>
        <pt x="152" y="465" on="0"/>
        <pt x="152" y="342" on="1"/>
        <pt x="152" y="182" on="0"/>
        <pt x="197" y="126" on="1"/>
        <pt x="238" y="74" on="0"/>
        <pt x="323" y="74" on="1"/>
        <pt x="363" y="74" on="0"/>
        <pt x="420" y="107" on="0"/>
        <pt x="451" y="156" on="0"/>
        <pt x="460" y="196" on="1"/>
        <pt x="474" y="258" on="0"/>
        <pt x="474" y="408" on="0"/>
        <pt x="468" y="479" on="0"/>
        <pt x="447" y="552" on="0"/>
      </contour>
      <contour>
        <pt x="324" y="712" on="1"/>
        <pt x="576" y="712" on="0"/>
        <pt x="576" y="365" on="1"/>
        <pt x="576" y="186" on="0"/>
        <pt x="438" y="-12" on="0"/>
        <pt x="302" y="-12" on="1"/>
        <pt x="50" y="-12" on="0"/>
        <pt x="50" y="335" on="1"/>
        <pt x="50" y="514" on="0"/>
        <pt x="188" y="712" on="0"/>
      </contour>
    </TTGlyph>
    <TTGlyph name="Odieresis" xMin="50" yMin="-12" xMax="576" yMax="884">
      <contour>
        <pt x="231" y="884" on="1"/>
        <pt x="283" y="884" on="0"/>
        <pt x="283" y="825" on="1"/>
        <pt x="283" y="773" on="0"/>
        <pt x="224" y="773" on="1"/>
        <pt x="171" y="773" on="0"/>
        <pt x="171" y="832" on="1"/>
        <pt x="171" y="857" on="0"/>
        <pt x="196" y="884" on="0"/>
      </contour>
      <contour>
        <pt x="414" y="884" on="1"/>
        <pt x="467" y="884" on="0"/>
        <pt x="467" y="825" on="1"/>
        <pt x="467" y="800" on="0"/>
        <pt x="442" y="773" on="0"/>
        <pt x="407" y="773" on="1"/>
        <pt x="355" y="773" on="0"/>
        <pt x="355" y="832" on="1"/>
        <pt x="355" y="884" on="0"/>
      </contour>
      <contour>
        <pt x="410" y="597" on="0"/>
        <pt x="346" y="626" on="0"/>
        <pt x="255" y="626" on="0"/>
        <pt x="192" y="581" on="0"/>
        <pt x="177" y="538" on="1"/>
        <pt x="152" y="465" on="0"/>
        <pt x="152" y="342" on="1"/>
        <pt x="152" y="182" on="0"/>
        <pt x="197" y="126" on="1"/>
        <pt x="238" y="74" on="0"/>
        <pt x="323" y="74" on="1"/>
        <pt x="363" y="74" on="0"/>
        <pt x="420" y="107" on="0"/>
        <pt x="451" y="156" on="0"/>
        <pt x="460" y="196" on="1"/>
        <pt x="474" y="258" on="0"/>
        <pt x="474" y="408" on="0"/>
        <pt x="468" y="479" on="0"/>
        <pt x="447" y="552" on="0"/>
      </contour>
      <contour>
        <pt x="324" y="712" on="1"/>
        <pt x="576" y="712" on="0"/>
        <pt x="576" y="365" on="1"/>
        <pt x="576" y="186" on="0"/>
        <pt x="438" y="-12" on="0"/>
        <pt x="302" y="-12" on="1"/>
        <pt x="50" y="-12" on="0"/>
        <pt x="50" y="335" on="1"/>
        <pt x="50" y="514" on="0"/>
        <pt x="188" y="712" on="0"/>
      </contour>
    </TTGlyph>
    <TTGlyph name="Ograve" xMin="50" yMin="-12" xMax="576" yMax="898">
      <contour>
        <pt x="394" y="792" on="1"/>
        <pt x="361" y="736" on="1"/>
        <pt x="153" y="821" on="1"/>
        <pt x="191" y="898" on="1"/>
      </contour>
      <contour>
        <pt x="410" y="597" on="0"/>
        <pt x="346" y="626" on="0"/>
        <pt x="255" y="626" on="0"/>
        <pt x="192" y="581" on="0"/>
        <pt x="177" y="538" on="1"/>
        <pt x="152" y="465" on="0"/>
        <pt x="152" y="342" on="1"/>
        <pt x="152" y="182" on="0"/>
        <pt x="197" y="126" on="1"/>
        <pt x="238" y="74" on="0"/>
        <pt x="323" y="74" on="1"/>
        <pt x="363" y="74" on="0"/>
        <pt x="420" y="107" on="0"/>
        <pt x="451" y="156" on="0"/>
        <pt x="460" y="196" on="1"/>
        <pt x="474" y="258" on="0"/>
        <pt x="474" y="408" on="0"/>
        <pt x="468" y="479" on="0"/>
        <pt x="447" y="552" on="0"/>
      </contour>
      <contour>
        <pt x="324" y="712" on="1"/>
        <pt x="576" y="712" on="0"/>
        <pt x="576" y="365" on="1"/>
        <pt x="576" y="186" on="0"/>
        <pt x="438" y="-12" on="0"/>
        <pt x="302" y="-12" on="1"/>
        <pt x="50" y="-12" on="0"/>
        <pt x="50" y="335" on="1"/>
        <pt x="50" y="514" on="0"/>
        <pt x="188" y="712" on="0"/>
      </contour>
    </TTGlyph>
    <TTGlyph name="Ohorn" xMin="49" yMin="-12" xMax="674" yMax="760">
      <contour>
        <pt x="49" y="514" on="0"/>
        <pt x="187" y="712" on="0"/>
        <pt x="454" y="712" on="0"/>
        <pt x="519" y="616" on="1"/>
        <pt x="561" y="634" on="0"/>
        <pt x="589" y="674" on="0"/>
        <pt x="589" y="740" on="0"/>
        <pt x="588" y="750" on="1"/>
        <pt x="674" y="760" on="1"/>
        <pt x="674" y="719" on="0"/>
        <pt x="665" y="651" on="0"/>
        <pt x="616" y="597" on="0"/>
        <pt x="543" y="570" on="1"/>
        <pt x="575" y="491" on="0"/>
        <pt x="575" y="365" on="1"/>
        <pt x="575" y="186" on="0"/>
        <pt x="437" y="-12" on="0"/>
        <pt x="301" y="-12" on="1"/>
        <pt x="49" y="-12" on="0"/>
        <pt x="49" y="335" on="1"/>
      </contour>
      <contour>
        <pt x="409" y="597" on="0"/>
        <pt x="345" y="626" on="0"/>
        <pt x="254" y="626" on="0"/>
        <pt x="191" y="581" on="0"/>
        <pt x="176" y="538" on="1"/>
        <pt x="151" y="465" on="0"/>
        <pt x="151" y="342" on="1"/>
        <pt x="151" y="182" on="0"/>
        <pt x="196" y="126" on="1"/>
        <pt x="237" y="74" on="0"/>
        <pt x="322" y="74" on="1"/>
        <pt x="362" y="74" on="0"/>
        <pt x="419" y="107" on="0"/>
        <pt x="450" y="156" on="0"/>
        <pt x="459" y="196" on="1"/>
        <pt x="473" y="258" on="0"/>
        <pt x="473" y="408" on="0"/>
        <pt x="467" y="479" on="0"/>
        <pt x="446" y="552" on="0"/>
      </contour>
    </TTGlyph>
    <TTGlyph name="Ohungarumlaut" xMin="50" yMin="-12" xMax="578" yMax="941">
      <contour>
        <pt x="351" y="941" on="1"/>
        <pt x="411" y="880" on="1"/>
        <pt x="237" y="736" on="1"/>
        <pt x="189" y="779" on="1"/>
      </contour>
      <contour>
        <pt x="523" y="931" on="1"/>
        <pt x="578" y="864" on="1"/>
        <pt x="393" y="736" on="1"/>
        <pt x="349" y="783" on="1"/>
      </contour>
      <contour>
        <pt x="410" y="597" on="0"/>
        <pt x="346" y="626" on="0"/>
        <pt x="255" y="626" on="0"/>
        <pt x="192" y="581" on="0"/>
        <pt x="177" y="538" on="1"/>
        <pt x="152" y="465" on="0"/>
        <pt x="152" y="342" on="1"/>
        <pt x="152" y="182" on="0"/>
        <pt x="197" y="126" on="1"/>
        <pt x="238" y="74" on="0"/>
        <pt x="323" y="74" on="1"/>
        <pt x="363" y="74" on="0"/>
        <pt x="420" y="107" on="0"/>
        <pt x="451" y="156" on="0"/>
        <pt x="460" y="196" on="1"/>
        <pt x="474" y="258" on="0"/>
        <pt x="474" y="408" on="0"/>
        <pt x="468" y="479" on="0"/>
        <pt x="447" y="552" on="0"/>
      </contour>
      <contour>
        <pt x="324" y="712" on="1"/>
        <pt x="576" y="712" on="0"/>
        <pt x="576" y="365" on="1"/>
        <pt x="576" y="186" on="0"/>
        <pt x="438" y="-12" on="0"/>
        <pt x="302" y="-12" on="1"/>
        <pt x="50" y="-12" on="0"/>
        <pt x="50" y="335" on="1"/>
        <pt x="50" y="514" on="0"/>
        <pt x="188" y="712" on="0"/>
      </contour>
    </TTGlyph>
    <TTGlyph name="Omacron" xMin="50" yMin="-12" xMax="576" yMax="868">
      <contour>
        <pt x="410" y="597" on="0"/>
        <pt x="346" y="626" on="0"/>
        <pt x="255" y="626" on="0"/>
        <pt x="192" y="581" on="0"/>
        <pt x="177" y="538" on="1"/>
        <pt x="152" y="465" on="0"/>
        <pt x="152" y="342" on="1"/>
        <pt x="152" y="182" on="0"/>
        <pt x="197" y="126" on="1"/>
        <pt x="238" y="74" on="0"/>
        <pt x="323" y="74" on="1"/>
        <pt x="363" y="74" on="0"/>
        <pt x="420" y="107" on="0"/>
        <pt x="451" y="156" on="0"/>
        <pt x="460" y="196" on="1"/>
        <pt x="474" y="258" on="0"/>
        <pt x="474" y="408" on="0"/>
        <pt x="468" y="479" on="0"/>
        <pt x="447" y="552" on="0"/>
      </contour>
      <contour>
        <pt x="324" y="712" on="1"/>
        <pt x="576" y="712" on="0"/>
        <pt x="576" y="365" on="1"/>
        <pt x="576" y="186" on="0"/>
        <pt x="438" y="-12" on="0"/>
        <pt x="302" y="-12" on="1"/>
        <pt x="50" y="-12" on="0"/>
        <pt x="50" y="335" on="1"/>
        <pt x="50" y="514" on="0"/>
        <pt x="188" y="712" on="0"/>
      </contour>
      <contour>
        <pt x="191" y="868" on="1"/>
        <pt x="451" y="868" on="1"/>
        <pt x="451" y="794" on="1"/>
        <pt x="191" y="794" on="1"/>
      </contour>
    </TTGlyph>
    <TTGlyph name="Oslash" xMin="50" yMin="-91" xMax="576" yMax="791">
      <contour>
        <pt x="576" y="365" on="1"/>
        <pt x="576" y="186" on="0"/>
        <pt x="438" y="-12" on="0"/>
        <pt x="302" y="-12" on="1"/>
        <pt x="265" y="-12" on="0"/>
        <pt x="231" y="-4" on="1"/>
        <pt x="201" y="-91" on="1"/>
        <pt x="139" y="-70" on="1"/>
        <pt x="170" y="21" on="1"/>
        <pt x="50" y="94" on="0"/>
        <pt x="50" y="335" on="1"/>
        <pt x="50" y="514" on="0"/>
        <pt x="188" y="712" on="0"/>
        <pt x="324" y="712" on="1"/>
        <pt x="367" y="712" on="0"/>
        <pt x="405" y="701" on="1"/>
        <pt x="436" y="791" on="1"/>
        <pt x="498" y="769" on="1"/>
        <pt x="465" y="673" on="1"/>
        <pt x="576" y="596" on="0"/>
      </contour>
      <contour>
        <pt x="375" y="613" on="1"/>
        <pt x="342" y="626" on="0"/>
        <pt x="255" y="626" on="0"/>
        <pt x="189" y="570" on="0"/>
        <pt x="174" y="530" on="1"/>
        <pt x="149" y="459" on="0"/>
        <pt x="149" y="351" on="1"/>
        <pt x="149" y="179" on="0"/>
        <pt x="204" y="118" on="1"/>
      </contour>
      <contour>
        <pt x="261" y="82" on="1"/>
        <pt x="288" y="74" on="0"/>
        <pt x="364" y="74" on="0"/>
        <pt x="423" y="109" on="0"/>
        <pt x="439" y="142" on="1"/>
        <pt x="473" y="213" on="0"/>
        <pt x="475" y="291" on="1"/>
        <pt x="476" y="314" on="0"/>
        <pt x="476" y="334" on="1"/>
        <pt x="476" y="380" on="0"/>
        <pt x="463" y="528" on="0"/>
        <pt x="430" y="571" on="1"/>
      </contour>
    </TTGlyph>
    <TTGlyph name="Oslashacute" xMin="50" yMin="-91" xMax="576" yMax="898">
      <contour>
        <pt x="324" y="712" on="1"/>
        <pt x="367" y="712" on="0"/>
        <pt x="405" y="701" on="1"/>
        <pt x="436" y="791" on="1"/>
        <pt x="498" y="769" on="1"/>
        <pt x="465" y="673" on="1"/>
        <pt x="576" y="596" on="0"/>
        <pt x="576" y="365" on="1"/>
        <pt x="576" y="186" on="0"/>
        <pt x="438" y="-12" on="0"/>
        <pt x="302" y="-12" on="1"/>
        <pt x="265" y="-12" on="0"/>
        <pt x="231" y="-4" on="1"/>
        <pt x="201" y="-91" on="1"/>
        <pt x="139" y="-70" on="1"/>
        <pt x="170" y="21" on="1"/>
        <pt x="50" y="94" on="0"/>
        <pt x="50" y="335" on="1"/>
        <pt x="50" y="514" on="0"/>
        <pt x="188" y="712" on="0"/>
      </contour>
      <contour>
        <pt x="375" y="613" on="1"/>
        <pt x="342" y="626" on="0"/>
        <pt x="255" y="626" on="0"/>
        <pt x="192" y="581" on="0"/>
        <pt x="177" y="538" on="1"/>
        <pt x="152" y="465" on="0"/>
        <pt x="152" y="261" on="0"/>
        <pt x="173" y="152" on="0"/>
        <pt x="204" y="118" on="1"/>
      </contour>
      <contour>
        <pt x="261" y="82" on="1"/>
        <pt x="288" y="74" on="0"/>
        <pt x="363" y="74" on="0"/>
        <pt x="420" y="107" on="0"/>
        <pt x="451" y="156" on="0"/>
        <pt x="460" y="196" on="1"/>
        <pt x="474" y="258" on="0"/>
        <pt x="474" y="359" on="1"/>
        <pt x="474" y="513" on="0"/>
        <pt x="430" y="571" on="1"/>
      </contour>
      <contour>
        <pt x="412" y="898" on="1"/>
        <pt x="450" y="821" on="1"/>
        <pt x="242" y="736" on="1"/>
        <pt x="209" y="792" on="1"/>
      </contour>
    </TTGlyph>
    <TTGlyph name="Otilde" xMin="50" yMin="-12" xMax="576" yMax="885">
      <contour>
        <pt x="410" y="597" on="0"/>
        <pt x="346" y="626" on="0"/>
        <pt x="255" y="626" on="0"/>
        <pt x="192" y="581" on="0"/>
        <pt x="177" y="538" on="1"/>
        <pt x="152" y="465" on="0"/>
        <pt x="152" y="342" on="1"/>
        <pt x="152" y="182" on="0"/>
        <pt x="197" y="126" on="1"/>
        <pt x="238" y="74" on="0"/>
        <pt x="323" y="74" on="1"/>
        <pt x="363" y="74" on="0"/>
        <pt x="420" y="107" on="0"/>
        <pt x="451" y="156" on="0"/>
        <pt x="460" y="196" on="1"/>
        <pt x="474" y="258" on="0"/>
        <pt x="474" y="408" on="0"/>
        <pt x="468" y="479" on="0"/>
        <pt x="447" y="552" on="0"/>
      </contour>
      <contour>
        <pt x="324" y="712" on="1"/>
        <pt x="576" y="712" on="0"/>
        <pt x="576" y="365" on="1"/>
        <pt x="576" y="186" on="0"/>
        <pt x="438" y="-12" on="0"/>
        <pt x="302" y="-12" on="1"/>
        <pt x="50" y="-12" on="0"/>
        <pt x="50" y="335" on="1"/>
        <pt x="50" y="514" on="0"/>
        <pt x="188" y="712" on="0"/>
      </contour>
      <contour>
        <pt x="376" y="775" on="1"/>
        <pt x="350" y="775" on="0"/>
        <pt x="273" y="807" on="0"/>
        <pt x="220" y="807" on="0"/>
        <pt x="174" y="775" on="1"/>
        <pt x="153" y="836" on="1"/>
        <pt x="209" y="885" on="0"/>
        <pt x="262" y="885" on="1"/>
        <pt x="288" y="885" on="0"/>
        <pt x="365" y="853" on="0"/>
        <pt x="418" y="853" on="0"/>
        <pt x="464" y="885" on="1"/>
        <pt x="485" y="824" on="1"/>
        <pt x="429" y="775" on="0"/>
      </contour>
    </TTGlyph>
    <TTGlyph name="P" xMin="90" yMin="0" xMax="515" yMax="700">
      <contour>
        <pt x="90" y="700" on="1"/>
        <pt x="320" y="700" on="1"/>
        <pt x="430" y="700" on="0"/>
        <pt x="515" y="591" on="0"/>
        <pt x="515" y="500" on="1"/>
        <pt x="515" y="411" on="0"/>
        <pt x="467" y="344" on="1"/>
        <pt x="441" y="307" on="0"/>
        <pt x="335" y="264" on="0"/>
        <pt x="260" y="264" on="1"/>
        <pt x="186" y="264" on="1"/>
        <pt x="186" y="0" on="1"/>
        <pt x="90" y="0" on="1"/>
      </contour>
      <contour>
        <pt x="186" y="627" on="1"/>
        <pt x="186" y="344" on="1"/>
        <pt x="286" y="344" on="1"/>
        <pt x="413" y="344" on="0"/>
        <pt x="413" y="480" on="1"/>
        <pt x="413" y="554" on="0"/>
        <pt x="360" y="627" on="0"/>
        <pt x="277" y="627" on="1"/>
      </contour>
    </TTGlyph>
    <TTGlyph name="Q" xMin="49" yMin="-170" xMax="575" yMax="712">
      <contour>
        <pt x="49" y="335" on="1"/>
        <pt x="49" y="514" on="0"/>
        <pt x="187" y="712" on="0"/>
        <pt x="324" y="712" on="1"/>
        <pt x="575" y="712" on="0"/>
        <pt x="575" y="365" on="1"/>
        <pt x="575" y="186" on="0"/>
        <pt x="437" y="-12" on="0"/>
        <pt x="300" y="-12" on="1"/>
        <pt x="300" y="-16" on="1"/>
        <pt x="560" y="-94" on="1"/>
        <pt x="523" y="-170" on="1"/>
        <pt x="254" y="-68" on="1"/>
        <pt x="271" y="-11" on="1"/>
        <pt x="49" y="8" on="0"/>
      </contour>
      <contour>
        <pt x="214" y="103" on="0"/>
        <pt x="278" y="74" on="0"/>
        <pt x="362" y="74" on="0"/>
        <pt x="419" y="107" on="0"/>
        <pt x="450" y="156" on="0"/>
        <pt x="459" y="196" on="1"/>
        <pt x="473" y="260" on="0"/>
        <pt x="473" y="409" on="0"/>
        <pt x="467" y="479" on="0"/>
        <pt x="446" y="552" on="0"/>
        <pt x="428" y="574" on="1"/>
        <pt x="385" y="626" on="0"/>
        <pt x="301" y="626" on="1"/>
        <pt x="207" y="626" on="0"/>
        <pt x="176" y="538" on="1"/>
        <pt x="151" y="465" on="0"/>
        <pt x="151" y="341" on="1"/>
        <pt x="151" y="182" on="0"/>
        <pt x="196" y="126" on="1"/>
      </contour>
    </TTGlyph>
    <TTGlyph name="R" xMin="90" yMin="0" xMax="542" yMax="700">
      <contour>
        <pt x="90" y="700" on="1"/>
        <pt x="316" y="700" on="1"/>
        <pt x="423" y="700" on="0"/>
        <pt x="463" y="642" on="1"/>
        <pt x="499" y="589" on="0"/>
        <pt x="499" y="437" on="0"/>
        <pt x="419" y="330" on="0"/>
        <pt x="351" y="307" on="1"/>
        <pt x="542" y="0" on="1"/>
        <pt x="429" y="0" on="1"/>
        <pt x="257" y="291" on="1"/>
        <pt x="186" y="291" on="1"/>
        <pt x="186" y="0" on="1"/>
        <pt x="90" y="0" on="1"/>
      </contour>
      <contour>
        <pt x="186" y="626" on="1"/>
        <pt x="186" y="371" on="1"/>
        <pt x="263" y="371" on="1"/>
        <pt x="329" y="371" on="0"/>
        <pt x="399" y="440" on="0"/>
        <pt x="399" y="563" on="0"/>
        <pt x="340" y="626" on="0"/>
        <pt x="272" y="626" on="1"/>
      </contour>
    </TTGlyph>
    <TTGlyph name="Racute" xMin="90" yMin="0" xMax="542" yMax="898">
      <contour>
        <pt x="90" y="700" on="1"/>
        <pt x="316" y="700" on="1"/>
        <pt x="417" y="700" on="0"/>
        <pt x="501" y="595" on="0"/>
        <pt x="501" y="437" on="0"/>
        <pt x="419" y="331" on="0"/>
        <pt x="351" y="307" on="1"/>
        <pt x="542" y="0" on="1"/>
        <pt x="429" y="0" on="1"/>
        <pt x="257" y="291" on="1"/>
        <pt x="186" y="291" on="1"/>
        <pt x="186" y="0" on="1"/>
        <pt x="90" y="0" on="1"/>
      </contour>
      <contour>
        <pt x="186" y="625" on="1"/>
        <pt x="186" y="371" on="1"/>
        <pt x="263" y="371" on="1"/>
        <pt x="329" y="371" on="0"/>
        <pt x="399" y="440" on="0"/>
        <pt x="399" y="564" on="0"/>
        <pt x="340" y="625" on="0"/>
        <pt x="272" y="625" on="1"/>
      </contour>
      <contour>
        <pt x="419" y="898" on="1"/>
        <pt x="457" y="821" on="1"/>
        <pt x="249" y="736" on="1"/>
        <pt x="216" y="792" on="1"/>
      </contour>
    </TTGlyph>
    <TTGlyph name="Rcaron" xMin="90" yMin="0" xMax="542" yMax="885">
      <contour>
        <pt x="90" y="700" on="1"/>
        <pt x="316" y="700" on="1"/>
        <pt x="417" y="700" on="0"/>
        <pt x="501" y="595" on="0"/>
        <pt x="501" y="437" on="0"/>
        <pt x="419" y="331" on="0"/>
        <pt x="351" y="307" on="1"/>
        <pt x="542" y="0" on="1"/>
        <pt x="429" y="0" on="1"/>
        <pt x="257" y="291" on="1"/>
        <pt x="186" y="291" on="1"/>
        <pt x="186" y="0" on="1"/>
        <pt x="90" y="0" on="1"/>
      </contour>
      <contour>
        <pt x="186" y="625" on="1"/>
        <pt x="186" y="371" on="1"/>
        <pt x="263" y="371" on="1"/>
        <pt x="329" y="371" on="0"/>
        <pt x="399" y="440" on="0"/>
        <pt x="399" y="564" on="0"/>
        <pt x="340" y="625" on="0"/>
        <pt x="272" y="625" on="1"/>
      </contour>
      <contour>
        <pt x="246" y="735" on="1"/>
        <pt x="119" y="841" on="1"/>
        <pt x="157" y="885" on="1"/>
        <pt x="272" y="808" on="1"/>
        <pt x="387" y="885" on="1"/>
        <pt x="425" y="841" on="1"/>
        <pt x="298" y="735" on="1"/>
      </contour>
    </TTGlyph>
    <TTGlyph name="Rcommaaccent" xMin="90" yMin="-247" xMax="542" yMax="700">
      <contour>
        <pt x="90" y="700" on="1"/>
        <pt x="316" y="700" on="1"/>
        <pt x="417" y="700" on="0"/>
        <pt x="501" y="595" on="0"/>
        <pt x="501" y="437" on="0"/>
        <pt x="419" y="331" on="0"/>
        <pt x="351" y="307" on="1"/>
        <pt x="542" y="0" on="1"/>
        <pt x="429" y="0" on="1"/>
        <pt x="257" y="291" on="1"/>
        <pt x="186" y="291" on="1"/>
        <pt x="186" y="0" on="1"/>
        <pt x="90" y="0" on="1"/>
      </contour>
      <contour>
        <pt x="186" y="625" on="1"/>
        <pt x="186" y="371" on="1"/>
        <pt x="263" y="371" on="1"/>
        <pt x="329" y="371" on="0"/>
        <pt x="399" y="440" on="0"/>
        <pt x="399" y="564" on="0"/>
        <pt x="340" y="625" on="0"/>
        <pt x="272" y="625" on="1"/>
      </contour>
      <contour>
        <pt x="336" y="-31" on="1"/>
        <pt x="344" y="-95" on="0"/>
        <pt x="344" y="-147" on="0"/>
        <pt x="307" y="-196" on="0"/>
        <pt x="249" y="-247" on="1"/>
        <pt x="212" y="-207" on="1"/>
        <pt x="246" y="-165" on="0"/>
        <pt x="262" y="-134" on="0"/>
        <pt x="262" y="-110" on="0"/>
        <pt x="252" y="-43" on="1"/>
      </contour>
    </TTGlyph>
    <TTGlyph name="S" xMin="34" yMin="-12" xMax="462" yMax="712">
      <contour>
        <pt x="37" y="604" on="0"/>
        <pt x="157" y="712" on="0"/>
        <pt x="343" y="712" on="0"/>
        <pt x="439" y="620" on="0"/>
        <pt x="446" y="540" on="1"/>
        <pt x="344" y="530" on="1"/>
        <pt x="341" y="576" on="0"/>
        <pt x="286" y="626" on="0"/>
        <pt x="191" y="626" on="0"/>
        <pt x="137" y="580" on="0"/>
        <pt x="137" y="544" on="1"/>
        <pt x="137" y="496" on="0"/>
        <pt x="168" y="466" on="1"/>
        <pt x="199" y="436" on="0"/>
        <pt x="274" y="398" on="1"/>
        <pt x="340" y="364" on="0"/>
        <pt x="389" y="333" on="0"/>
        <pt x="414" y="310" on="1"/>
        <pt x="462" y="267" on="0"/>
        <pt x="462" y="103" on="0"/>
        <pt x="338" y="-12" on="0"/>
        <pt x="128" y="-12" on="0"/>
        <pt x="34" y="53" on="1"/>
        <pt x="75" y="127" on="1"/>
        <pt x="168" y="74" on="0"/>
        <pt x="250" y="74" on="1"/>
        <pt x="299" y="74" on="0"/>
        <pt x="361" y="123" on="0"/>
        <pt x="361" y="216" on="0"/>
        <pt x="298" y="270" on="0"/>
        <pt x="203" y="314" on="0"/>
        <pt x="181" y="325" on="0"/>
        <pt x="129" y="354" on="0"/>
        <pt x="105" y="374" on="0"/>
        <pt x="68" y="411" on="0"/>
        <pt x="60" y="428" on="1"/>
        <pt x="37" y="475" on="0"/>
        <pt x="37" y="524" on="1"/>
      </contour>
    </TTGlyph>
    <TTGlyph name="Sacute" xMin="34" yMin="-12" xMax="462" yMax="898">
      <contour>
        <pt x="369" y="898" on="1"/>
        <pt x="407" y="821" on="1"/>
        <pt x="199" y="736" on="1"/>
        <pt x="166" y="792" on="1"/>
      </contour>
      <contour>
        <pt x="37" y="604" on="0"/>
        <pt x="157" y="712" on="0"/>
        <pt x="343" y="712" on="0"/>
        <pt x="439" y="620" on="0"/>
        <pt x="446" y="540" on="1"/>
        <pt x="344" y="530" on="1"/>
        <pt x="341" y="576" on="0"/>
        <pt x="286" y="626" on="0"/>
        <pt x="191" y="626" on="0"/>
        <pt x="137" y="580" on="0"/>
        <pt x="137" y="544" on="1"/>
        <pt x="137" y="496" on="0"/>
        <pt x="168" y="466" on="1"/>
        <pt x="199" y="436" on="0"/>
        <pt x="274" y="398" on="1"/>
        <pt x="340" y="364" on="0"/>
        <pt x="389" y="333" on="0"/>
        <pt x="414" y="310" on="1"/>
        <pt x="462" y="267" on="0"/>
        <pt x="462" y="103" on="0"/>
        <pt x="338" y="-12" on="0"/>
        <pt x="128" y="-12" on="0"/>
        <pt x="34" y="53" on="1"/>
        <pt x="75" y="127" on="1"/>
        <pt x="168" y="74" on="0"/>
        <pt x="250" y="74" on="1"/>
        <pt x="299" y="74" on="0"/>
        <pt x="361" y="123" on="0"/>
        <pt x="361" y="216" on="0"/>
        <pt x="298" y="270" on="0"/>
        <pt x="203" y="314" on="0"/>
        <pt x="181" y="325" on="0"/>
        <pt x="129" y="354" on="0"/>
        <pt x="105" y="374" on="0"/>
        <pt x="68" y="411" on="0"/>
        <pt x="60" y="428" on="1"/>
        <pt x="37" y="475" on="0"/>
        <pt x="37" y="524" on="1"/>
      </contour>
    </TTGlyph>
    <TTGlyph name="Scaron" xMin="34" yMin="-12" xMax="462" yMax="885">
      <contour>
        <pt x="358" y="885" on="1"/>
        <pt x="396" y="841" on="1"/>
        <pt x="269" y="735" on="1"/>
        <pt x="217" y="735" on="1"/>
        <pt x="90" y="841" on="1"/>
        <pt x="128" y="885" on="1"/>
        <pt x="243" y="808" on="1"/>
      </contour>
      <contour>
        <pt x="37" y="604" on="0"/>
        <pt x="157" y="712" on="0"/>
        <pt x="343" y="712" on="0"/>
        <pt x="439" y="620" on="0"/>
        <pt x="446" y="540" on="1"/>
        <pt x="344" y="530" on="1"/>
        <pt x="341" y="576" on="0"/>
        <pt x="286" y="626" on="0"/>
        <pt x="191" y="626" on="0"/>
        <pt x="137" y="580" on="0"/>
        <pt x="137" y="544" on="1"/>
        <pt x="137" y="496" on="0"/>
        <pt x="168" y="466" on="1"/>
        <pt x="199" y="436" on="0"/>
        <pt x="274" y="398" on="1"/>
        <pt x="340" y="364" on="0"/>
        <pt x="389" y="333" on="0"/>
        <pt x="414" y="310" on="1"/>
        <pt x="462" y="267" on="0"/>
        <pt x="462" y="103" on="0"/>
        <pt x="338" y="-12" on="0"/>
        <pt x="128" y="-12" on="0"/>
        <pt x="34" y="53" on="1"/>
        <pt x="75" y="127" on="1"/>
        <pt x="168" y="74" on="0"/>
        <pt x="250" y="74" on="1"/>
        <pt x="299" y="74" on="0"/>
        <pt x="361" y="123" on="0"/>
        <pt x="361" y="216" on="0"/>
        <pt x="298" y="270" on="0"/>
        <pt x="203" y="314" on="0"/>
        <pt x="181" y="325" on="0"/>
        <pt x="129" y="354" on="0"/>
        <pt x="105" y="374" on="0"/>
        <pt x="68" y="411" on="0"/>
        <pt x="60" y="428" on="1"/>
        <pt x="37" y="475" on="0"/>
        <pt x="37" y="524" on="1"/>
      </contour>
    </TTGlyph>
    <TTGlyph name="Scedilla" xMin="34" yMin="-188" xMax="462" yMax="712">
      <contour>
        <pt x="37" y="604" on="0"/>
        <pt x="157" y="712" on="0"/>
        <pt x="343" y="712" on="0"/>
        <pt x="439" y="620" on="0"/>
        <pt x="446" y="540" on="1"/>
        <pt x="344" y="530" on="1"/>
        <pt x="341" y="576" on="0"/>
        <pt x="286" y="626" on="0"/>
        <pt x="191" y="626" on="0"/>
        <pt x="137" y="580" on="0"/>
        <pt x="137" y="544" on="1"/>
        <pt x="137" y="496" on="0"/>
        <pt x="168" y="466" on="1"/>
        <pt x="199" y="436" on="0"/>
        <pt x="274" y="398" on="1"/>
        <pt x="340" y="364" on="0"/>
        <pt x="389" y="333" on="0"/>
        <pt x="414" y="310" on="1"/>
        <pt x="462" y="267" on="0"/>
        <pt x="462" y="110" on="0"/>
        <pt x="354" y="-2" on="0"/>
        <pt x="267" y="-10" on="1"/>
        <pt x="262" y="-44" on="1"/>
        <pt x="304" y="-56" on="0"/>
        <pt x="307" y="-58" on="1"/>
        <pt x="338" y="-76" on="0"/>
        <pt x="338" y="-150" on="0"/>
        <pt x="291" y="-188" on="0"/>
        <pt x="211" y="-188" on="0"/>
        <pt x="165" y="-165" on="1"/>
        <pt x="183" y="-120" on="1"/>
        <pt x="220" y="-137" on="0"/>
        <pt x="276" y="-137" on="0"/>
        <pt x="276" y="-111" on="1"/>
        <pt x="276" y="-96" on="0"/>
        <pt x="203" y="-76" on="0"/>
        <pt x="200" y="-75" on="1"/>
        <pt x="217" y="-11" on="1"/>
        <pt x="118" y="-5" on="0"/>
        <pt x="34" y="53" on="1"/>
        <pt x="75" y="127" on="1"/>
        <pt x="168" y="74" on="0"/>
        <pt x="250" y="74" on="1"/>
        <pt x="299" y="74" on="0"/>
        <pt x="361" y="123" on="0"/>
        <pt x="361" y="216" on="0"/>
        <pt x="298" y="270" on="0"/>
        <pt x="203" y="314" on="0"/>
        <pt x="181" y="325" on="0"/>
        <pt x="129" y="354" on="0"/>
        <pt x="105" y="374" on="0"/>
        <pt x="68" y="411" on="0"/>
        <pt x="60" y="428" on="1"/>
        <pt x="37" y="475" on="0"/>
        <pt x="37" y="524" on="1"/>
      </contour>
    </TTGlyph>
    <TTGlyph name="Scircumflex" xMin="34" yMin="-12" xMax="462" yMax="885">
      <contour>
        <pt x="37" y="604" on="0"/>
        <pt x="157" y="712" on="0"/>
        <pt x="343" y="712" on="0"/>
        <pt x="439" y="620" on="0"/>
        <pt x="446" y="540" on="1"/>
        <pt x="344" y="530" on="1"/>
        <pt x="341" y="576" on="0"/>
        <pt x="286" y="626" on="0"/>
        <pt x="191" y="626" on="0"/>
        <pt x="137" y="580" on="0"/>
        <pt x="137" y="544" on="1"/>
        <pt x="137" y="496" on="0"/>
        <pt x="168" y="466" on="1"/>
        <pt x="199" y="436" on="0"/>
        <pt x="274" y="398" on="1"/>
        <pt x="340" y="364" on="0"/>
        <pt x="389" y="333" on="0"/>
        <pt x="414" y="310" on="1"/>
        <pt x="462" y="267" on="0"/>
        <pt x="462" y="103" on="0"/>
        <pt x="338" y="-12" on="0"/>
        <pt x="128" y="-12" on="0"/>
        <pt x="34" y="53" on="1"/>
        <pt x="75" y="127" on="1"/>
        <pt x="168" y="74" on="0"/>
        <pt x="250" y="74" on="1"/>
        <pt x="299" y="74" on="0"/>
        <pt x="361" y="123" on="0"/>
        <pt x="361" y="216" on="0"/>
        <pt x="298" y="270" on="0"/>
        <pt x="203" y="314" on="0"/>
        <pt x="181" y="325" on="0"/>
        <pt x="129" y="354" on="0"/>
        <pt x="105" y="374" on="0"/>
        <pt x="68" y="411" on="0"/>
        <pt x="60" y="428" on="1"/>
        <pt x="37" y="475" on="0"/>
        <pt x="37" y="524" on="1"/>
      </contour>
      <contour>
        <pt x="269" y="885" on="1"/>
        <pt x="396" y="779" on="1"/>
        <pt x="358" y="735" on="1"/>
        <pt x="243" y="812" on="1"/>
        <pt x="128" y="735" on="1"/>
        <pt x="90" y="779" on="1"/>
        <pt x="217" y="885" on="1"/>
      </contour>
    </TTGlyph>
    <TTGlyph name="Scommaaccent" xMin="34" yMin="-247" xMax="462" yMax="712">
      <contour>
        <pt x="37" y="604" on="0"/>
        <pt x="157" y="712" on="0"/>
        <pt x="343" y="712" on="0"/>
        <pt x="439" y="620" on="0"/>
        <pt x="446" y="540" on="1"/>
        <pt x="344" y="530" on="1"/>
        <pt x="341" y="576" on="0"/>
        <pt x="286" y="626" on="0"/>
        <pt x="191" y="626" on="0"/>
        <pt x="137" y="580" on="0"/>
        <pt x="137" y="544" on="1"/>
        <pt x="137" y="496" on="0"/>
        <pt x="168" y="466" on="1"/>
        <pt x="199" y="436" on="0"/>
        <pt x="274" y="398" on="1"/>
        <pt x="340" y="364" on="0"/>
        <pt x="389" y="333" on="0"/>
        <pt x="414" y="310" on="1"/>
        <pt x="462" y="267" on="0"/>
        <pt x="462" y="103" on="0"/>
        <pt x="338" y="-12" on="0"/>
        <pt x="128" y="-12" on="0"/>
        <pt x="34" y="53" on="1"/>
        <pt x="75" y="127" on="1"/>
        <pt x="168" y="74" on="0"/>
        <pt x="250" y="74" on="1"/>
        <pt x="299" y="74" on="0"/>
        <pt x="361" y="123" on="0"/>
        <pt x="361" y="216" on="0"/>
        <pt x="298" y="270" on="0"/>
        <pt x="203" y="314" on="0"/>
        <pt x="181" y="325" on="0"/>
        <pt x="129" y="354" on="0"/>
        <pt x="105" y="374" on="0"/>
        <pt x="68" y="411" on="0"/>
        <pt x="60" y="428" on="1"/>
        <pt x="37" y="475" on="0"/>
        <pt x="37" y="524" on="1"/>
      </contour>
      <contour>
        <pt x="295" y="-31" on="1"/>
        <pt x="303" y="-95" on="0"/>
        <pt x="303" y="-147" on="0"/>
        <pt x="266" y="-196" on="0"/>
        <pt x="208" y="-247" on="1"/>
        <pt x="171" y="-207" on="1"/>
        <pt x="205" y="-165" on="0"/>
        <pt x="221" y="-134" on="0"/>
        <pt x="221" y="-110" on="0"/>
        <pt x="211" y="-43" on="1"/>
      </contour>
    </TTGlyph>
    <TTGlyph name="T" xMin="0" yMin="0" xMax="450" yMax="700">
      <contour>
        <pt x="276" y="616" on="1"/>
        <pt x="276" y="0" on="1"/>
        <pt x="180" y="0" on="1"/>
        <pt x="180" y="616" on="1"/>
        <pt x="0" y="616" on="1"/>
        <pt x="9" y="700" on="1"/>
        <pt x="450" y="700" on="1"/>
        <pt x="441" y="616" on="1"/>
      </contour>
    </TTGlyph>
    <TTGlyph name="Tbar" xMin="10" yMin="0" xMax="460" yMax="700">
      <contour>
        <pt x="286" y="616" on="1"/>
        <pt x="286" y="392" on="1"/>
        <pt x="430" y="392" on="1"/>
        <pt x="430" y="317" on="1"/>
        <pt x="286" y="317" on="1"/>
        <pt x="286" y="0" on="1"/>
        <pt x="190" y="0" on="1"/>
        <pt x="190" y="317" on="1"/>
        <pt x="42" y="317" on="1"/>
        <pt x="42" y="392" on="1"/>
        <pt x="190" y="392" on="1"/>
        <pt x="190" y="616" on="1"/>
        <pt x="10" y="616" on="1"/>
        <pt x="19" y="700" on="1"/>
        <pt x="460" y="700" on="1"/>
        <pt x="451" y="616" on="1"/>
      </contour>
    </TTGlyph>
    <TTGlyph name="Tcaron" xMin="0" yMin="0" xMax="450" yMax="885">
      <contour>
        <pt x="276" y="616" on="1"/>
        <pt x="276" y="0" on="1"/>
        <pt x="180" y="0" on="1"/>
        <pt x="180" y="616" on="1"/>
        <pt x="0" y="616" on="1"/>
        <pt x="9" y="700" on="1"/>
        <pt x="450" y="700" on="1"/>
        <pt x="441" y="616" on="1"/>
      </contour>
      <contour>
        <pt x="199" y="735" on="1"/>
        <pt x="72" y="841" on="1"/>
        <pt x="110" y="885" on="1"/>
        <pt x="225" y="808" on="1"/>
        <pt x="340" y="885" on="1"/>
        <pt x="378" y="841" on="1"/>
        <pt x="251" y="735" on="1"/>
      </contour>
    </TTGlyph>
    <TTGlyph name="Tcedilla" xMin="0" yMin="-188" xMax="450" yMax="700">
      <contour>
        <pt x="276" y="616" on="1"/>
        <pt x="276" y="0" on="1"/>
        <pt x="241" y="0" on="1"/>
        <pt x="234" y="-44" on="1"/>
        <pt x="276" y="-56" on="0"/>
        <pt x="279" y="-58" on="1"/>
        <pt x="310" y="-76" on="0"/>
        <pt x="310" y="-150" on="0"/>
        <pt x="263" y="-188" on="0"/>
        <pt x="183" y="-188" on="0"/>
        <pt x="137" y="-165" on="1"/>
        <pt x="155" y="-120" on="1"/>
        <pt x="192" y="-137" on="0"/>
        <pt x="248" y="-137" on="0"/>
        <pt x="248" y="-111" on="1"/>
        <pt x="248" y="-96" on="0"/>
        <pt x="175" y="-76" on="0"/>
        <pt x="172" y="-75" on="1"/>
        <pt x="192" y="0" on="1"/>
        <pt x="180" y="0" on="1"/>
        <pt x="180" y="616" on="1"/>
        <pt x="0" y="616" on="1"/>
        <pt x="9" y="700" on="1"/>
        <pt x="450" y="700" on="1"/>
        <pt x="441" y="616" on="1"/>
      </contour>
    </TTGlyph>
    <TTGlyph name="Tcommaaccent" xMin="0" yMin="-247" xMax="450" yMax="700">
      <contour>
        <pt x="276" y="616" on="1"/>
        <pt x="276" y="0" on="1"/>
        <pt x="180" y="0" on="1"/>
        <pt x="180" y="616" on="1"/>
        <pt x="0" y="616" on="1"/>
        <pt x="9" y="700" on="1"/>
        <pt x="450" y="700" on="1"/>
        <pt x="441" y="616" on="1"/>
      </contour>
      <contour>
        <pt x="267" y="-31" on="1"/>
        <pt x="275" y="-95" on="0"/>
        <pt x="275" y="-147" on="0"/>
        <pt x="238" y="-196" on="0"/>
        <pt x="180" y="-247" on="1"/>
        <pt x="143" y="-207" on="1"/>
        <pt x="177" y="-165" on="0"/>
        <pt x="193" y="-134" on="0"/>
        <pt x="193" y="-110" on="0"/>
        <pt x="183" y="-43" on="1"/>
      </contour>
    </TTGlyph>
    <TTGlyph name="Thorn" xMin="90" yMin="0" xMax="515" yMax="700">
      <contour>
        <pt x="186" y="700" on="1"/>
        <pt x="186" y="570" on="1"/>
        <pt x="320" y="570" on="1"/>
        <pt x="430" y="570" on="0"/>
        <pt x="515" y="461" on="0"/>
        <pt x="515" y="370" on="1"/>
        <pt x="515" y="281" on="0"/>
        <pt x="467" y="214" on="1"/>
        <pt x="441" y="177" on="0"/>
        <pt x="335" y="134" on="0"/>
        <pt x="260" y="134" on="1"/>
        <pt x="186" y="134" on="1"/>
        <pt x="186" y="0" on="1"/>
        <pt x="90" y="0" on="1"/>
        <pt x="90" y="700" on="1"/>
      </contour>
      <contour>
        <pt x="186" y="494" on="1"/>
        <pt x="186" y="211" on="1"/>
        <pt x="286" y="211" on="1"/>
        <pt x="413" y="211" on="0"/>
        <pt x="413" y="347" on="1"/>
        <pt x="413" y="421" on="0"/>
        <pt x="360" y="494" on="0"/>
        <pt x="277" y="494" on="1"/>
      </contour>
    </TTGlyph>
    <TTGlyph name="U" xMin="85" yMin="-12" xMax="540" yMax="700">
      <contour>
        <pt x="532" y="700" on="1"/>
        <pt x="532" y="153" on="1"/>
        <pt x="540" y="6" on="1"/>
        <pt x="462" y="-5" on="1"/>
        <pt x="452" y="53" on="1"/>
        <pt x="448" y="53" on="1"/>
        <pt x="383" y="-12" on="0"/>
        <pt x="199" y="-12" on="0"/>
        <pt x="85" y="82" on="0"/>
        <pt x="85" y="177" on="1"/>
        <pt x="85" y="700" on="1"/>
        <pt x="181" y="700" on="1"/>
        <pt x="181" y="194" on="1"/>
        <pt x="181" y="131" on="0"/>
        <pt x="258" y="74" on="0"/>
        <pt x="314" y="74" on="1"/>
        <pt x="396" y="74" on="0"/>
        <pt x="436" y="136" on="1"/>
        <pt x="436" y="700" on="1"/>
      </contour>
    </TTGlyph>
    <TTGlyph name="Uacute" xMin="85" yMin="-12" xMax="540" yMax="898">
      <contour>
        <pt x="425" y="898" on="1"/>
        <pt x="463" y="821" on="1"/>
        <pt x="255" y="736" on="1"/>
        <pt x="222" y="792" on="1"/>
      </contour>
      <contour>
        <pt x="532" y="700" on="1"/>
        <pt x="532" y="153" on="1"/>
        <pt x="540" y="6" on="1"/>
        <pt x="462" y="-5" on="1"/>
        <pt x="452" y="53" on="1"/>
        <pt x="448" y="53" on="1"/>
        <pt x="383" y="-12" on="0"/>
        <pt x="199" y="-12" on="0"/>
        <pt x="85" y="82" on="0"/>
        <pt x="85" y="177" on="1"/>
        <pt x="85" y="700" on="1"/>
        <pt x="181" y="700" on="1"/>
        <pt x="181" y="194" on="1"/>
        <pt x="181" y="131" on="0"/>
        <pt x="258" y="74" on="0"/>
        <pt x="314" y="74" on="1"/>
        <pt x="396" y="74" on="0"/>
        <pt x="436" y="136" on="1"/>
        <pt x="436" y="700" on="1"/>
      </contour>
    </TTGlyph>
    <TTGlyph name="Ubreve" xMin="85" yMin="-12" xMax="540" yMax="886">
      <contour>
        <pt x="532" y="700" on="1"/>
        <pt x="532" y="153" on="1"/>
        <pt x="540" y="6" on="1"/>
        <pt x="462" y="-5" on="1"/>
        <pt x="452" y="53" on="1"/>
        <pt x="448" y="53" on="1"/>
        <pt x="383" y="-12" on="0"/>
        <pt x="199" y="-12" on="0"/>
        <pt x="85" y="82" on="0"/>
        <pt x="85" y="177" on="1"/>
        <pt x="85" y="700" on="1"/>
        <pt x="181" y="700" on="1"/>
        <pt x="181" y="194" on="1"/>
        <pt x="181" y="131" on="0"/>
        <pt x="258" y="74" on="0"/>
        <pt x="314" y="74" on="1"/>
        <pt x="396" y="74" on="0"/>
        <pt x="436" y="136" on="1"/>
        <pt x="436" y="700" on="1"/>
      </contour>
      <contour>
        <pt x="462" y="843" on="1"/>
        <pt x="405" y="770" on="0"/>
        <pt x="217" y="770" on="0"/>
        <pt x="160" y="843" on="1"/>
        <pt x="200" y="886" on="1"/>
        <pt x="253" y="842" on="0"/>
        <pt x="371" y="842" on="0"/>
        <pt x="424" y="886" on="1"/>
      </contour>
    </TTGlyph>
    <TTGlyph name="Ucaron" xMin="85" yMin="-12" xMax="540" yMax="885">
      <contour>
        <pt x="532" y="700" on="1"/>
        <pt x="532" y="153" on="1"/>
        <pt x="540" y="6" on="1"/>
        <pt x="462" y="-5" on="1"/>
        <pt x="452" y="53" on="1"/>
        <pt x="448" y="53" on="1"/>
        <pt x="383" y="-12" on="0"/>
        <pt x="199" y="-12" on="0"/>
        <pt x="85" y="82" on="0"/>
        <pt x="85" y="177" on="1"/>
        <pt x="85" y="700" on="1"/>
        <pt x="181" y="700" on="1"/>
        <pt x="181" y="194" on="1"/>
        <pt x="181" y="131" on="0"/>
        <pt x="258" y="74" on="0"/>
        <pt x="314" y="74" on="1"/>
        <pt x="396" y="74" on="0"/>
        <pt x="436" y="136" on="1"/>
        <pt x="436" y="700" on="1"/>
      </contour>
      <contour>
        <pt x="279" y="735" on="1"/>
        <pt x="152" y="841" on="1"/>
        <pt x="190" y="885" on="1"/>
        <pt x="305" y="808" on="1"/>
        <pt x="420" y="885" on="1"/>
        <pt x="458" y="841" on="1"/>
        <pt x="331" y="735" on="1"/>
      </contour>
    </TTGlyph>
    <TTGlyph name="Ucircumflex" xMin="85" yMin="-12" xMax="540" yMax="885">
      <contour>
        <pt x="331" y="885" on="1"/>
        <pt x="458" y="779" on="1"/>
        <pt x="420" y="735" on="1"/>
        <pt x="305" y="812" on="1"/>
        <pt x="190" y="735" on="1"/>
        <pt x="152" y="779" on="1"/>
        <pt x="279" y="885" on="1"/>
      </contour>
      <contour>
        <pt x="532" y="700" on="1"/>
        <pt x="532" y="153" on="1"/>
        <pt x="540" y="6" on="1"/>
        <pt x="462" y="-5" on="1"/>
        <pt x="452" y="53" on="1"/>
        <pt x="448" y="53" on="1"/>
        <pt x="383" y="-12" on="0"/>
        <pt x="199" y="-12" on="0"/>
        <pt x="85" y="82" on="0"/>
        <pt x="85" y="177" on="1"/>
        <pt x="85" y="700" on="1"/>
        <pt x="181" y="700" on="1"/>
        <pt x="181" y="194" on="1"/>
        <pt x="181" y="131" on="0"/>
        <pt x="258" y="74" on="0"/>
        <pt x="314" y="74" on="1"/>
        <pt x="396" y="74" on="0"/>
        <pt x="436" y="136" on="1"/>
        <pt x="436" y="700" on="1"/>
      </contour>
    </TTGlyph>
    <TTGlyph name="Udieresis" xMin="85" yMin="-12" xMax="540" yMax="884">
      <contour>
        <pt x="217" y="884" on="1"/>
        <pt x="269" y="884" on="0"/>
        <pt x="269" y="825" on="1"/>
        <pt x="269" y="773" on="0"/>
        <pt x="210" y="773" on="1"/>
        <pt x="157" y="773" on="0"/>
        <pt x="157" y="832" on="1"/>
        <pt x="157" y="857" on="0"/>
        <pt x="182" y="884" on="0"/>
      </contour>
      <contour>
        <pt x="400" y="884" on="1"/>
        <pt x="453" y="884" on="0"/>
        <pt x="453" y="825" on="1"/>
        <pt x="453" y="800" on="0"/>
        <pt x="428" y="773" on="0"/>
        <pt x="393" y="773" on="1"/>
        <pt x="341" y="773" on="0"/>
        <pt x="341" y="832" on="1"/>
        <pt x="341" y="884" on="0"/>
      </contour>
      <contour>
        <pt x="532" y="700" on="1"/>
        <pt x="532" y="153" on="1"/>
        <pt x="540" y="6" on="1"/>
        <pt x="462" y="-5" on="1"/>
        <pt x="452" y="53" on="1"/>
        <pt x="448" y="53" on="1"/>
        <pt x="383" y="-12" on="0"/>
        <pt x="199" y="-12" on="0"/>
        <pt x="85" y="82" on="0"/>
        <pt x="85" y="177" on="1"/>
        <pt x="85" y="700" on="1"/>
        <pt x="181" y="700" on="1"/>
        <pt x="181" y="194" on="1"/>
        <pt x="181" y="131" on="0"/>
        <pt x="258" y="74" on="0"/>
        <pt x="314" y="74" on="1"/>
        <pt x="396" y="74" on="0"/>
        <pt x="436" y="136" on="1"/>
        <pt x="436" y="700" on="1"/>
      </contour>
    </TTGlyph>
    <TTGlyph name="Ugrave" xMin="85" yMin="-12" xMax="540" yMax="898">
      <contour>
        <pt x="386" y="792" on="1"/>
        <pt x="353" y="736" on="1"/>
        <pt x="145" y="821" on="1"/>
        <pt x="183" y="898" on="1"/>
      </contour>
      <contour>
        <pt x="532" y="700" on="1"/>
        <pt x="532" y="153" on="1"/>
        <pt x="540" y="6" on="1"/>
        <pt x="462" y="-5" on="1"/>
        <pt x="452" y="53" on="1"/>
        <pt x="448" y="53" on="1"/>
        <pt x="383" y="-12" on="0"/>
        <pt x="199" y="-12" on="0"/>
        <pt x="85" y="82" on="0"/>
        <pt x="85" y="177" on="1"/>
        <pt x="85" y="700" on="1"/>
        <pt x="181" y="700" on="1"/>
        <pt x="181" y="194" on="1"/>
        <pt x="181" y="131" on="0"/>
        <pt x="258" y="74" on="0"/>
        <pt x="314" y="74" on="1"/>
        <pt x="396" y="74" on="0"/>
        <pt x="436" y="136" on="1"/>
        <pt x="436" y="700" on="1"/>
      </contour>
    </TTGlyph>
    <TTGlyph name="Uhorn" xMin="85" yMin="-12" xMax="675" yMax="760">
      <contour>
        <pt x="532" y="700" on="1"/>
        <pt x="532" y="621" on="1"/>
        <pt x="566" y="638" on="0"/>
        <pt x="590" y="677" on="0"/>
        <pt x="590" y="740" on="0"/>
        <pt x="589" y="750" on="1"/>
        <pt x="675" y="760" on="1"/>
        <pt x="675" y="719" on="0"/>
        <pt x="666" y="650" on="0"/>
        <pt x="613" y="594" on="0"/>
        <pt x="532" y="566" on="1"/>
        <pt x="532" y="153" on="1"/>
        <pt x="540" y="6" on="1"/>
        <pt x="462" y="-5" on="1"/>
        <pt x="452" y="53" on="1"/>
        <pt x="448" y="53" on="1"/>
        <pt x="383" y="-12" on="0"/>
        <pt x="199" y="-12" on="0"/>
        <pt x="85" y="82" on="0"/>
        <pt x="85" y="177" on="1"/>
        <pt x="85" y="700" on="1"/>
        <pt x="181" y="700" on="1"/>
        <pt x="181" y="194" on="1"/>
        <pt x="181" y="131" on="0"/>
        <pt x="258" y="74" on="0"/>
        <pt x="314" y="74" on="1"/>
        <pt x="396" y="74" on="0"/>
        <pt x="436" y="136" on="1"/>
        <pt x="436" y="700" on="1"/>
      </contour>
    </TTGlyph>
    <TTGlyph name="Uhungarumlaut" xMin="85" yMin="-12" xMax="564" yMax="941">
      <contour>
        <pt x="532" y="700" on="1"/>
        <pt x="532" y="153" on="1"/>
        <pt x="540" y="6" on="1"/>
        <pt x="462" y="-5" on="1"/>
        <pt x="452" y="53" on="1"/>
        <pt x="448" y="53" on="1"/>
        <pt x="383" y="-12" on="0"/>
        <pt x="199" y="-12" on="0"/>
        <pt x="85" y="82" on="0"/>
        <pt x="85" y="177" on="1"/>
        <pt x="85" y="700" on="1"/>
        <pt x="181" y="700" on="1"/>
        <pt x="181" y="194" on="1"/>
        <pt x="181" y="131" on="0"/>
        <pt x="258" y="74" on="0"/>
        <pt x="314" y="74" on="1"/>
        <pt x="396" y="74" on="0"/>
        <pt x="436" y="136" on="1"/>
        <pt x="436" y="700" on="1"/>
      </contour>
      <contour>
        <pt x="337" y="941" on="1"/>
        <pt x="397" y="880" on="1"/>
        <pt x="223" y="736" on="1"/>
        <pt x="175" y="779" on="1"/>
      </contour>
      <contour>
        <pt x="509" y="931" on="1"/>
        <pt x="564" y="864" on="1"/>
        <pt x="379" y="736" on="1"/>
        <pt x="335" y="783" on="1"/>
      </contour>
    </TTGlyph>
    <TTGlyph name="Umacron" xMin="85" yMin="-12" xMax="540" yMax="868">
      <contour>
        <pt x="532" y="700" on="1"/>
        <pt x="532" y="153" on="1"/>
        <pt x="540" y="6" on="1"/>
        <pt x="462" y="-5" on="1"/>
        <pt x="452" y="53" on="1"/>
        <pt x="448" y="53" on="1"/>
        <pt x="383" y="-12" on="0"/>
        <pt x="199" y="-12" on="0"/>
        <pt x="85" y="82" on="0"/>
        <pt x="85" y="177" on="1"/>
        <pt x="85" y="700" on="1"/>
        <pt x="181" y="700" on="1"/>
        <pt x="181" y="194" on="1"/>
        <pt x="181" y="131" on="0"/>
        <pt x="258" y="74" on="0"/>
        <pt x="314" y="74" on="1"/>
        <pt x="396" y="74" on="0"/>
        <pt x="436" y="136" on="1"/>
        <pt x="436" y="700" on="1"/>
      </contour>
      <contour>
        <pt x="176" y="868" on="1"/>
        <pt x="436" y="868" on="1"/>
        <pt x="436" y="794" on="1"/>
        <pt x="176" y="794" on="1"/>
      </contour>
    </TTGlyph>
    <TTGlyph name="Uogonek" xMin="85" yMin="-188" xMax="540" yMax="700">
      <contour>
        <pt x="532" y="700" on="1"/>
        <pt x="532" y="153" on="1"/>
        <pt x="540" y="6" on="1"/>
        <pt x="505" y="-23" on="0"/>
        <pt x="460" y="-82" on="0"/>
        <pt x="460" y="-117" on="0"/>
        <pt x="477" y="-137" on="0"/>
        <pt x="512" y="-137" on="0"/>
        <pt x="528" y="-130" on="1"/>
        <pt x="539" y="-168" on="1"/>
        <pt x="505" y="-188" on="0"/>
        <pt x="438" y="-188" on="0"/>
        <pt x="392" y="-147" on="0"/>
        <pt x="392" y="-75" on="0"/>
        <pt x="424" y="-41" on="1"/>
        <pt x="436" y="-26" on="0"/>
        <pt x="462" y="-4" on="1"/>
        <pt x="452" y="53" on="1"/>
        <pt x="448" y="53" on="1"/>
        <pt x="383" y="-12" on="0"/>
        <pt x="199" y="-12" on="0"/>
        <pt x="85" y="82" on="0"/>
        <pt x="85" y="177" on="1"/>
        <pt x="85" y="700" on="1"/>
        <pt x="181" y="700" on="1"/>
        <pt x="181" y="194" on="1"/>
        <pt x="181" y="131" on="0"/>
        <pt x="258" y="74" on="0"/>
        <pt x="314" y="74" on="1"/>
        <pt x="396" y="74" on="0"/>
        <pt x="436" y="136" on="1"/>
        <pt x="436" y="700" on="1"/>
      </contour>
    </TTGlyph>
    <TTGlyph name="Uring" xMin="85" yMin="-12" xMax="540" yMax="916">
      <contour>
        <pt x="532" y="700" on="1"/>
        <pt x="532" y="153" on="1"/>
        <pt x="540" y="6" on="1"/>
        <pt x="462" y="-5" on="1"/>
        <pt x="452" y="53" on="1"/>
        <pt x="448" y="53" on="1"/>
        <pt x="383" y="-12" on="0"/>
        <pt x="199" y="-12" on="0"/>
        <pt x="85" y="82" on="0"/>
        <pt x="85" y="177" on="1"/>
        <pt x="85" y="700" on="1"/>
        <pt x="181" y="700" on="1"/>
        <pt x="181" y="194" on="1"/>
        <pt x="181" y="131" on="0"/>
        <pt x="258" y="74" on="0"/>
        <pt x="314" y="74" on="1"/>
        <pt x="396" y="74" on="0"/>
        <pt x="436" y="136" on="1"/>
        <pt x="436" y="700" on="1"/>
      </contour>
      <contour>
        <pt x="218" y="863" on="0"/>
        <pt x="265" y="916" on="0"/>
        <pt x="350" y="916" on="0"/>
        <pt x="392" y="868" on="0"/>
        <pt x="392" y="797" on="0"/>
        <pt x="345" y="742" on="0"/>
        <pt x="261" y="742" on="0"/>
        <pt x="218" y="792" on="0"/>
      </contour>
      <contour>
        <pt x="302" y="867" on="1"/>
        <pt x="286" y="867" on="0"/>
        <pt x="269" y="845" on="0"/>
        <pt x="269" y="830" on="1"/>
        <pt x="269" y="791" on="0"/>
        <pt x="308" y="791" on="1"/>
        <pt x="324" y="791" on="0"/>
        <pt x="341" y="813" on="0"/>
        <pt x="341" y="828" on="1"/>
        <pt x="341" y="867" on="0"/>
      </contour>
    </TTGlyph>
    <TTGlyph name="Utilde" xMin="85" yMin="-12" xMax="540" yMax="885">
      <contour>
        <pt x="532" y="700" on="1"/>
        <pt x="532" y="153" on="1"/>
        <pt x="540" y="6" on="1"/>
        <pt x="462" y="-5" on="1"/>
        <pt x="452" y="53" on="1"/>
        <pt x="448" y="53" on="1"/>
        <pt x="383" y="-12" on="0"/>
        <pt x="199" y="-12" on="0"/>
        <pt x="85" y="82" on="0"/>
        <pt x="85" y="177" on="1"/>
        <pt x="85" y="700" on="1"/>
        <pt x="181" y="700" on="1"/>
        <pt x="181" y="194" on="1"/>
        <pt x="181" y="131" on="0"/>
        <pt x="258" y="74" on="0"/>
        <pt x="314" y="74" on="1"/>
        <pt x="396" y="74" on="0"/>
        <pt x="436" y="136" on="1"/>
        <pt x="436" y="700" on="1"/>
      </contour>
      <contour>
        <pt x="362" y="775" on="1"/>
        <pt x="336" y="775" on="0"/>
        <pt x="259" y="807" on="0"/>
        <pt x="206" y="807" on="0"/>
        <pt x="160" y="775" on="1"/>
        <pt x="139" y="836" on="1"/>
        <pt x="195" y="885" on="0"/>
        <pt x="248" y="885" on="1"/>
        <pt x="274" y="885" on="0"/>
        <pt x="351" y="853" on="0"/>
        <pt x="404" y="853" on="0"/>
        <pt x="450" y="885" on="1"/>
        <pt x="471" y="824" on="1"/>
        <pt x="415" y="775" on="0"/>
      </contour>
    </TTGlyph>
    <TTGlyph name="V" xMin="2" yMin="0" xMax="514" yMax="705">
      <contour>
        <pt x="514" y="693" on="1"/>
        <pt x="317" y="0" on="1"/>
        <pt x="193" y="0" on="1"/>
        <pt x="2" y="693" on="1"/>
        <pt x="96" y="705" on="1"/>
        <pt x="240" y="173" on="1"/>
        <pt x="257" y="93" on="1"/>
        <pt x="261" y="93" on="1"/>
        <pt x="279" y="173" on="1"/>
        <pt x="422" y="705" on="1"/>
      </contour>
    </TTGlyph>
    <TTGlyph name="W" xMin="11" yMin="0" xMax="762" yMax="706">
      <contour>
        <pt x="762" y="694" on="1"/>
        <pt x="619" y="0" on="1"/>
        <pt x="479" y="0" on="1"/>
        <pt x="389" y="535" on="1"/>
        <pt x="385" y="535" on="1"/>
        <pt x="380" y="490" on="1"/>
        <pt x="296" y="0" on="1"/>
        <pt x="162" y="0" on="1"/>
        <pt x="11" y="694" on="1"/>
        <pt x="108" y="706" on="1"/>
        <pt x="227" y="127" on="1"/>
        <pt x="232" y="87" on="1"/>
        <pt x="236" y="87" on="1"/>
        <pt x="330" y="641" on="1"/>
        <pt x="451" y="652" on="1"/>
        <pt x="542" y="127" on="1"/>
        <pt x="546" y="87" on="1"/>
        <pt x="550" y="87" on="1"/>
        <pt x="668" y="706" on="1"/>
      </contour>
    </TTGlyph>
    <TTGlyph name="Wacute" xMin="11" yMin="0" xMax="762" yMax="898">
      <contour>
        <pt x="504" y="898" on="1"/>
        <pt x="542" y="821" on="1"/>
        <pt x="334" y="736" on="1"/>
        <pt x="301" y="792" on="1"/>
      </contour>
      <contour>
        <pt x="762" y="694" on="1"/>
        <pt x="619" y="0" on="1"/>
        <pt x="479" y="0" on="1"/>
        <pt x="389" y="535" on="1"/>
        <pt x="385" y="535" on="1"/>
        <pt x="380" y="490" on="1"/>
        <pt x="296" y="0" on="1"/>
        <pt x="162" y="0" on="1"/>
        <pt x="11" y="694" on="1"/>
        <pt x="108" y="706" on="1"/>
        <pt x="227" y="127" on="1"/>
        <pt x="232" y="87" on="1"/>
        <pt x="236" y="87" on="1"/>
        <pt x="330" y="641" on="1"/>
        <pt x="451" y="652" on="1"/>
        <pt x="542" y="127" on="1"/>
        <pt x="546" y="87" on="1"/>
        <pt x="550" y="87" on="1"/>
        <pt x="668" y="706" on="1"/>
      </contour>
    </TTGlyph>
    <TTGlyph name="Wcircumflex" xMin="11" yMin="0" xMax="762" yMax="885">
      <contour>
        <pt x="416" y="885" on="1"/>
        <pt x="543" y="779" on="1"/>
        <pt x="505" y="735" on="1"/>
        <pt x="390" y="812" on="1"/>
        <pt x="275" y="735" on="1"/>
        <pt x="237" y="779" on="1"/>
        <pt x="364" y="885" on="1"/>
      </contour>
      <contour>
        <pt x="762" y="694" on="1"/>
        <pt x="619" y="0" on="1"/>
        <pt x="479" y="0" on="1"/>
        <pt x="389" y="535" on="1"/>
        <pt x="385" y="535" on="1"/>
        <pt x="380" y="490" on="1"/>
        <pt x="296" y="0" on="1"/>
        <pt x="162" y="0" on="1"/>
        <pt x="11" y="694" on="1"/>
        <pt x="108" y="706" on="1"/>
        <pt x="227" y="127" on="1"/>
        <pt x="232" y="87" on="1"/>
        <pt x="236" y="87" on="1"/>
        <pt x="330" y="641" on="1"/>
        <pt x="451" y="652" on="1"/>
        <pt x="542" y="127" on="1"/>
        <pt x="546" y="87" on="1"/>
        <pt x="550" y="87" on="1"/>
        <pt x="668" y="706" on="1"/>
      </contour>
    </TTGlyph>
    <TTGlyph name="Wdieresis" xMin="11" yMin="0" xMax="762" yMax="884">
      <contour>
        <pt x="297" y="773" on="1"/>
        <pt x="244" y="773" on="0"/>
        <pt x="244" y="832" on="1"/>
        <pt x="244" y="857" on="0"/>
        <pt x="269" y="884" on="0"/>
        <pt x="304" y="884" on="1"/>
        <pt x="356" y="884" on="0"/>
        <pt x="356" y="825" on="1"/>
        <pt x="356" y="773" on="0"/>
      </contour>
      <contour>
        <pt x="480" y="773" on="1"/>
        <pt x="428" y="773" on="0"/>
        <pt x="428" y="832" on="1"/>
        <pt x="428" y="884" on="0"/>
        <pt x="487" y="884" on="1"/>
        <pt x="540" y="884" on="0"/>
        <pt x="540" y="825" on="1"/>
        <pt x="540" y="800" on="0"/>
        <pt x="515" y="773" on="0"/>
      </contour>
      <contour>
        <pt x="762" y="694" on="1"/>
        <pt x="619" y="0" on="1"/>
        <pt x="479" y="0" on="1"/>
        <pt x="389" y="535" on="1"/>
        <pt x="385" y="535" on="1"/>
        <pt x="380" y="490" on="1"/>
        <pt x="296" y="0" on="1"/>
        <pt x="162" y="0" on="1"/>
        <pt x="11" y="694" on="1"/>
        <pt x="108" y="706" on="1"/>
        <pt x="227" y="127" on="1"/>
        <pt x="232" y="87" on="1"/>
        <pt x="236" y="87" on="1"/>
        <pt x="330" y="641" on="1"/>
        <pt x="451" y="652" on="1"/>
        <pt x="542" y="127" on="1"/>
        <pt x="546" y="87" on="1"/>
        <pt x="550" y="87" on="1"/>
        <pt x="668" y="706" on="1"/>
      </contour>
    </TTGlyph>
    <TTGlyph name="Wgrave" xMin="11" yMin="0" xMax="762" yMax="898">
      <contour>
        <pt x="228" y="821" on="1"/>
        <pt x="266" y="898" on="1"/>
        <pt x="469" y="792" on="1"/>
        <pt x="436" y="736" on="1"/>
      </contour>
      <contour>
        <pt x="762" y="694" on="1"/>
        <pt x="619" y="0" on="1"/>
        <pt x="479" y="0" on="1"/>
        <pt x="389" y="535" on="1"/>
        <pt x="385" y="535" on="1"/>
        <pt x="380" y="490" on="1"/>
        <pt x="296" y="0" on="1"/>
        <pt x="162" y="0" on="1"/>
        <pt x="11" y="694" on="1"/>
        <pt x="108" y="706" on="1"/>
        <pt x="227" y="127" on="1"/>
        <pt x="232" y="87" on="1"/>
        <pt x="236" y="87" on="1"/>
        <pt x="330" y="641" on="1"/>
        <pt x="451" y="652" on="1"/>
        <pt x="542" y="127" on="1"/>
        <pt x="546" y="87" on="1"/>
        <pt x="550" y="87" on="1"/>
        <pt x="668" y="706" on="1"/>
      </contour>
    </TTGlyph>
    <TTGlyph name="X" xMin="8" yMin="-5" xMax="507" yMax="705">
      <contour>
        <pt x="488" y="693" on="1"/>
        <pt x="305" y="357" on="1"/>
        <pt x="507" y="7" on="1"/>
        <pt x="404" y="-5" on="1"/>
        <pt x="250" y="273" on="1"/>
        <pt x="102" y="-5" on="1"/>
        <pt x="12" y="7" on="1"/>
        <pt x="196" y="357" on="1"/>
        <pt x="8" y="693" on="1"/>
        <pt x="111" y="705" on="1"/>
        <pt x="252" y="438" on="1"/>
        <pt x="397" y="705" on="1"/>
      </contour>
    </TTGlyph>
    <TTGlyph name="Y" xMin="0" yMin="0" xMax="478" yMax="705">
      <contour>
        <pt x="290" y="0" on="1"/>
        <pt x="194" y="0" on="1"/>
        <pt x="194" y="252" on="1"/>
        <pt x="83" y="505" on="0"/>
        <pt x="0" y="693" on="1"/>
        <pt x="97" y="705" on="1"/>
        <pt x="239" y="345" on="1"/>
        <pt x="245" y="345" on="1"/>
        <pt x="387" y="705" on="1"/>
        <pt x="478" y="693" on="1"/>
        <pt x="290" y="252" on="1"/>
      </contour>
    </TTGlyph>
    <TTGlyph name="Yacute" xMin="0" yMin="0" xMax="478" yMax="898">
      <contour>
        <pt x="366" y="898" on="1"/>
        <pt x="404" y="821" on="1"/>
        <pt x="197" y="736" on="1"/>
        <pt x="164" y="792" on="1"/>
      </contour>
      <contour>
        <pt x="290" y="0" on="1"/>
        <pt x="194" y="0" on="1"/>
        <pt x="194" y="252" on="1"/>
        <pt x="83" y="505" on="0"/>
        <pt x="0" y="693" on="1"/>
        <pt x="97" y="705" on="1"/>
        <pt x="239" y="345" on="1"/>
        <pt x="245" y="345" on="1"/>
        <pt x="387" y="705" on="1"/>
        <pt x="478" y="693" on="1"/>
        <pt x="290" y="252" on="1"/>
      </contour>
    </TTGlyph>
    <TTGlyph name="Ycircumflex" xMin="0" yMin="0" xMax="478" yMax="885">
      <contour>
        <pt x="290" y="0" on="1"/>
        <pt x="194" y="0" on="1"/>
        <pt x="194" y="252" on="1"/>
        <pt x="83" y="505" on="0"/>
        <pt x="0" y="693" on="1"/>
        <pt x="97" y="705" on="1"/>
        <pt x="239" y="345" on="1"/>
        <pt x="245" y="345" on="1"/>
        <pt x="387" y="705" on="1"/>
        <pt x="478" y="693" on="1"/>
        <pt x="290" y="252" on="1"/>
      </contour>
      <contour>
        <pt x="268" y="885" on="1"/>
        <pt x="395" y="779" on="1"/>
        <pt x="357" y="735" on="1"/>
        <pt x="242" y="812" on="1"/>
        <pt x="127" y="735" on="1"/>
        <pt x="89" y="779" on="1"/>
        <pt x="216" y="885" on="1"/>
      </contour>
    </TTGlyph>
    <TTGlyph name="Ydieresis" xMin="0" yMin="0" xMax="478" yMax="884">
      <contour>
        <pt x="154" y="884" on="1"/>
        <pt x="206" y="884" on="0"/>
        <pt x="206" y="825" on="1"/>
        <pt x="206" y="773" on="0"/>
        <pt x="147" y="773" on="1"/>
        <pt x="94" y="773" on="0"/>
        <pt x="94" y="832" on="1"/>
        <pt x="94" y="857" on="0"/>
        <pt x="119" y="884" on="0"/>
      </contour>
      <contour>
        <pt x="337" y="884" on="1"/>
        <pt x="390" y="884" on="0"/>
        <pt x="390" y="825" on="1"/>
        <pt x="390" y="800" on="0"/>
        <pt x="365" y="773" on="0"/>
        <pt x="330" y="773" on="1"/>
        <pt x="278" y="773" on="0"/>
        <pt x="278" y="832" on="1"/>
        <pt x="278" y="884" on="0"/>
      </contour>
      <contour>
        <pt x="290" y="0" on="1"/>
        <pt x="194" y="0" on="1"/>
        <pt x="194" y="252" on="1"/>
        <pt x="83" y="505" on="0"/>
        <pt x="0" y="693" on="1"/>
        <pt x="97" y="705" on="1"/>
        <pt x="239" y="345" on="1"/>
        <pt x="245" y="345" on="1"/>
        <pt x="387" y="705" on="1"/>
        <pt x="478" y="693" on="1"/>
        <pt x="290" y="252" on="1"/>
      </contour>
    </TTGlyph>
    <TTGlyph name="Ygrave" xMin="0" yMin="0" xMax="478" yMax="898">
      <contour>
        <pt x="290" y="0" on="1"/>
        <pt x="194" y="0" on="1"/>
        <pt x="194" y="252" on="1"/>
        <pt x="83" y="505" on="0"/>
        <pt x="0" y="693" on="1"/>
        <pt x="97" y="705" on="1"/>
        <pt x="239" y="345" on="1"/>
        <pt x="245" y="345" on="1"/>
        <pt x="387" y="705" on="1"/>
        <pt x="478" y="693" on="1"/>
        <pt x="290" y="252" on="1"/>
      </contour>
      <contour>
        <pt x="83" y="821" on="1"/>
        <pt x="121" y="898" on="1"/>
        <pt x="324" y="792" on="1"/>
        <pt x="291" y="736" on="1"/>
      </contour>
    </TTGlyph>
    <TTGlyph name="Ytilde" xMin="0" yMin="0" xMax="478" yMax="885">
      <contour>
        <pt x="290" y="0" on="1"/>
        <pt x="194" y="0" on="1"/>
        <pt x="194" y="252" on="1"/>
        <pt x="83" y="505" on="0"/>
        <pt x="0" y="693" on="1"/>
        <pt x="97" y="705" on="1"/>
        <pt x="239" y="345" on="1"/>
        <pt x="245" y="345" on="1"/>
        <pt x="387" y="705" on="1"/>
        <pt x="478" y="693" on="1"/>
        <pt x="290" y="252" on="1"/>
      </contour>
      <contour>
        <pt x="286" y="775" on="1"/>
        <pt x="260" y="775" on="0"/>
        <pt x="183" y="807" on="0"/>
        <pt x="130" y="807" on="0"/>
        <pt x="84" y="775" on="1"/>
        <pt x="63" y="836" on="1"/>
        <pt x="119" y="885" on="0"/>
        <pt x="172" y="885" on="1"/>
        <pt x="198" y="885" on="0"/>
        <pt x="275" y="853" on="0"/>
        <pt x="328" y="853" on="0"/>
        <pt x="374" y="885" on="1"/>
        <pt x="395" y="824" on="1"/>
        <pt x="339" y="775" on="0"/>
      </contour>
    </TTGlyph>
    <TTGlyph name="Z" xMin="25" yMin="0" xMax="444" yMax="700">
      <contour>
        <pt x="435" y="700" on="1"/>
        <pt x="435" y="608" on="1"/>
        <pt x="128" y="83" on="1"/>
        <pt x="444" y="83" on="1"/>
        <pt x="435" y="0" on="1"/>
        <pt x="25" y="0" on="1"/>
        <pt x="25" y="93" on="1"/>
        <pt x="328" y="617" on="1"/>
        <pt x="27" y="617" on="1"/>
        <pt x="36" y="700" on="1"/>
      </contour>
    </TTGlyph>
    <TTGlyph name="Zacute" xMin="25" yMin="0" xMax="444" yMax="898">
      <contour>
        <pt x="435" y="700" on="1"/>
        <pt x="435" y="608" on="1"/>
        <pt x="128" y="83" on="1"/>
        <pt x="444" y="83" on="1"/>
        <pt x="435" y="0" on="1"/>
        <pt x="25" y="0" on="1"/>
        <pt x="25" y="93" on="1"/>
        <pt x="328" y="617" on="1"/>
        <pt x="27" y="617" on="1"/>
        <pt x="36" y="700" on="1"/>
      </contour>
      <contour>
        <pt x="353" y="898" on="1"/>
        <pt x="391" y="821" on="1"/>
        <pt x="183" y="736" on="1"/>
        <pt x="150" y="792" on="1"/>
      </contour>
    </TTGlyph>
    <TTGlyph name="Zcaron" xMin="25" yMin="0" xMax="444" yMax="885">
      <contour>
        <pt x="435" y="700" on="1"/>
        <pt x="435" y="608" on="1"/>
        <pt x="128" y="83" on="1"/>
        <pt x="444" y="83" on="1"/>
        <pt x="435" y="0" on="1"/>
        <pt x="25" y="0" on="1"/>
        <pt x="25" y="93" on="1"/>
        <pt x="328" y="617" on="1"/>
        <pt x="27" y="617" on="1"/>
        <pt x="36" y="700" on="1"/>
      </contour>
      <contour>
        <pt x="384" y="841" on="1"/>
        <pt x="257" y="735" on="1"/>
        <pt x="205" y="735" on="1"/>
        <pt x="78" y="841" on="1"/>
        <pt x="116" y="885" on="1"/>
        <pt x="231" y="808" on="1"/>
        <pt x="346" y="885" on="1"/>
      </contour>
    </TTGlyph>
    <TTGlyph name="Zdotaccent" xMin="25" yMin="0" xMax="444" yMax="892">
      <contour>
        <pt x="435" y="700" on="1"/>
        <pt x="435" y="608" on="1"/>
        <pt x="128" y="83" on="1"/>
        <pt x="444" y="83" on="1"/>
        <pt x="435" y="0" on="1"/>
        <pt x="25" y="0" on="1"/>
        <pt x="25" y="93" on="1"/>
        <pt x="328" y="617" on="1"/>
        <pt x="27" y="617" on="1"/>
        <pt x="36" y="700" on="1"/>
      </contour>
      <contour>
        <pt x="227" y="763" on="1"/>
        <pt x="166" y="763" on="0"/>
        <pt x="166" y="831" on="1"/>
        <pt x="166" y="856" on="0"/>
        <pt x="199" y="892" on="0"/>
        <pt x="234" y="892" on="1"/>
        <pt x="295" y="892" on="0"/>
        <pt x="295" y="824" on="1"/>
        <pt x="295" y="799" on="0"/>
        <pt x="262" y="763" on="0"/>
      </contour>
    </TTGlyph>
    <TTGlyph name="a" xMin="29" yMin="-12" xMax="442" yMax="537">
      <contour>
        <pt x="311" y="366" on="1"/>
        <pt x="311" y="457" on="0"/>
        <pt x="228" y="457" on="1"/>
        <pt x="175" y="457" on="0"/>
        <pt x="85" y="429" on="1"/>
        <pt x="53" y="492" on="1"/>
        <pt x="139" y="537" on="0"/>
        <pt x="239" y="537" on="1"/>
        <pt x="360" y="537" on="0"/>
        <pt x="387" y="465" on="1"/>
        <pt x="401" y="428" on="0"/>
        <pt x="401" y="367" on="1"/>
        <pt x="401" y="154" on="1"/>
        <pt x="401" y="82" on="0"/>
        <pt x="442" y="40" on="1"/>
        <pt x="389" y="-12" on="1"/>
        <pt x="371" y="-1" on="0"/>
        <pt x="334" y="42" on="0"/>
        <pt x="327" y="63" on="1"/>
        <pt x="324" y="63" on="1"/>
        <pt x="269" y="-12" on="0"/>
        <pt x="172" y="-12" on="1"/>
        <pt x="29" y="-12" on="0"/>
        <pt x="29" y="137" on="1"/>
        <pt x="29" y="269" on="0"/>
        <pt x="215" y="296" on="1"/>
        <pt x="311" y="310" on="1"/>
      </contour>
      <contour>
        <pt x="125" y="126" on="1"/>
        <pt x="125" y="68" on="0"/>
        <pt x="268" y="68" on="0"/>
        <pt x="311" y="118" on="1"/>
        <pt x="311" y="240" on="1"/>
        <pt x="185" y="223" on="0"/>
        <pt x="156" y="200" on="1"/>
        <pt x="125" y="175" on="0"/>
      </contour>
    </TTGlyph>
    <TTGlyph name="aacute" xMin="29" yMin="-12" xMax="442" yMax="750">
      <contour>
        <pt x="364" y="681" on="1"/>
        <pt x="177" y="564" on="1"/>
        <pt x="135" y="614" on="1"/>
        <pt x="311" y="750" on="1"/>
      </contour>
      <contour>
        <pt x="239" y="537" on="1"/>
        <pt x="360" y="537" on="0"/>
        <pt x="387" y="465" on="1"/>
        <pt x="401" y="428" on="0"/>
        <pt x="401" y="367" on="1"/>
        <pt x="401" y="154" on="1"/>
        <pt x="401" y="82" on="0"/>
        <pt x="442" y="40" on="1"/>
        <pt x="389" y="-12" on="1"/>
        <pt x="371" y="-1" on="0"/>
        <pt x="334" y="42" on="0"/>
        <pt x="327" y="63" on="1"/>
        <pt x="324" y="63" on="1"/>
        <pt x="269" y="-12" on="0"/>
        <pt x="172" y="-12" on="1"/>
        <pt x="29" y="-12" on="0"/>
        <pt x="29" y="137" on="1"/>
        <pt x="29" y="269" on="0"/>
        <pt x="215" y="296" on="1"/>
        <pt x="311" y="310" on="1"/>
        <pt x="311" y="366" on="1"/>
        <pt x="311" y="457" on="0"/>
        <pt x="228" y="457" on="1"/>
        <pt x="175" y="457" on="0"/>
        <pt x="85" y="429" on="1"/>
        <pt x="53" y="492" on="1"/>
        <pt x="139" y="537" on="0"/>
      </contour>
      <contour>
        <pt x="125" y="126" on="1"/>
        <pt x="125" y="68" on="0"/>
        <pt x="268" y="68" on="0"/>
        <pt x="311" y="118" on="1"/>
        <pt x="311" y="240" on="1"/>
        <pt x="185" y="223" on="0"/>
        <pt x="156" y="200" on="1"/>
        <pt x="125" y="175" on="0"/>
      </contour>
    </TTGlyph>
    <TTGlyph name="abreve" xMin="29" yMin="-12" xMax="442" yMax="711">
      <contour>
        <pt x="311" y="366" on="1"/>
        <pt x="311" y="457" on="0"/>
        <pt x="228" y="457" on="1"/>
        <pt x="175" y="457" on="0"/>
        <pt x="85" y="429" on="1"/>
        <pt x="53" y="492" on="1"/>
        <pt x="139" y="537" on="0"/>
        <pt x="239" y="537" on="1"/>
        <pt x="360" y="537" on="0"/>
        <pt x="387" y="465" on="1"/>
        <pt x="401" y="428" on="0"/>
        <pt x="401" y="367" on="1"/>
        <pt x="401" y="154" on="1"/>
        <pt x="401" y="82" on="0"/>
        <pt x="442" y="40" on="1"/>
        <pt x="389" y="-12" on="1"/>
        <pt x="371" y="-1" on="0"/>
        <pt x="334" y="42" on="0"/>
        <pt x="327" y="63" on="1"/>
        <pt x="324" y="62" on="1"/>
        <pt x="268" y="-12" on="0"/>
        <pt x="172" y="-12" on="1"/>
        <pt x="29" y="-12" on="0"/>
        <pt x="29" y="137" on="1"/>
        <pt x="29" y="269" on="0"/>
        <pt x="215" y="296" on="1"/>
        <pt x="311" y="310" on="1"/>
      </contour>
      <contour>
        <pt x="125" y="134" on="1"/>
        <pt x="125" y="68" on="0"/>
        <pt x="267" y="68" on="0"/>
        <pt x="311" y="114" on="1"/>
        <pt x="311" y="240" on="1"/>
        <pt x="185" y="223" on="0"/>
        <pt x="156" y="200" on="1"/>
        <pt x="125" y="175" on="0"/>
      </contour>
      <contour>
        <pt x="389" y="668" on="1"/>
        <pt x="332" y="595" on="0"/>
        <pt x="144" y="595" on="0"/>
        <pt x="87" y="668" on="1"/>
        <pt x="127" y="711" on="1"/>
        <pt x="180" y="667" on="0"/>
        <pt x="298" y="667" on="0"/>
        <pt x="351" y="711" on="1"/>
      </contour>
    </TTGlyph>
    <TTGlyph name="acaron" xMin="29" yMin="-12" xMax="442" yMax="733">
      <contour>
        <pt x="311" y="366" on="1"/>
        <pt x="311" y="457" on="0"/>
        <pt x="228" y="457" on="1"/>
        <pt x="175" y="457" on="0"/>
        <pt x="85" y="429" on="1"/>
        <pt x="53" y="492" on="1"/>
        <pt x="139" y="537" on="0"/>
        <pt x="239" y="537" on="1"/>
        <pt x="360" y="537" on="0"/>
        <pt x="387" y="465" on="1"/>
        <pt x="401" y="428" on="0"/>
        <pt x="401" y="367" on="1"/>
        <pt x="401" y="154" on="1"/>
        <pt x="401" y="82" on="0"/>
        <pt x="442" y="40" on="1"/>
        <pt x="389" y="-12" on="1"/>
        <pt x="371" y="-1" on="0"/>
        <pt x="334" y="42" on="0"/>
        <pt x="327" y="63" on="1"/>
        <pt x="324" y="62" on="1"/>
        <pt x="268" y="-12" on="0"/>
        <pt x="172" y="-12" on="1"/>
        <pt x="29" y="-12" on="0"/>
        <pt x="29" y="137" on="1"/>
        <pt x="29" y="269" on="0"/>
        <pt x="215" y="296" on="1"/>
        <pt x="311" y="310" on="1"/>
      </contour>
      <contour>
        <pt x="125" y="134" on="1"/>
        <pt x="125" y="68" on="0"/>
        <pt x="267" y="68" on="0"/>
        <pt x="311" y="114" on="1"/>
        <pt x="311" y="240" on="1"/>
        <pt x="185" y="223" on="0"/>
        <pt x="156" y="200" on="1"/>
        <pt x="125" y="175" on="0"/>
      </contour>
      <contour>
        <pt x="391" y="687" on="1"/>
        <pt x="266" y="569" on="1"/>
        <pt x="210" y="569" on="1"/>
        <pt x="85" y="687" on="1"/>
        <pt x="123" y="733" on="1"/>
        <pt x="238" y="646" on="1"/>
        <pt x="353" y="733" on="1"/>
      </contour>
    </TTGlyph>
    <TTGlyph name="acircumflex" xMin="29" yMin="-12" xMax="442" yMax="731">
      <contour>
        <pt x="242" y="731" on="1"/>
        <pt x="367" y="613" on="1"/>
        <pt x="329" y="567" on="1"/>
        <pt x="214" y="656" on="1"/>
        <pt x="99" y="567" on="1"/>
        <pt x="61" y="613" on="1"/>
        <pt x="186" y="731" on="1"/>
      </contour>
      <contour>
        <pt x="239" y="537" on="1"/>
        <pt x="360" y="537" on="0"/>
        <pt x="387" y="465" on="1"/>
        <pt x="401" y="428" on="0"/>
        <pt x="401" y="367" on="1"/>
        <pt x="401" y="154" on="1"/>
        <pt x="401" y="82" on="0"/>
        <pt x="442" y="40" on="1"/>
        <pt x="389" y="-12" on="1"/>
        <pt x="371" y="-1" on="0"/>
        <pt x="334" y="42" on="0"/>
        <pt x="327" y="63" on="1"/>
        <pt x="324" y="63" on="1"/>
        <pt x="269" y="-12" on="0"/>
        <pt x="172" y="-12" on="1"/>
        <pt x="29" y="-12" on="0"/>
        <pt x="29" y="137" on="1"/>
        <pt x="29" y="269" on="0"/>
        <pt x="215" y="296" on="1"/>
        <pt x="311" y="310" on="1"/>
        <pt x="311" y="366" on="1"/>
        <pt x="311" y="457" on="0"/>
        <pt x="228" y="457" on="1"/>
        <pt x="175" y="457" on="0"/>
        <pt x="85" y="429" on="1"/>
        <pt x="53" y="492" on="1"/>
        <pt x="139" y="537" on="0"/>
      </contour>
      <contour>
        <pt x="125" y="126" on="1"/>
        <pt x="125" y="68" on="0"/>
        <pt x="268" y="68" on="0"/>
        <pt x="311" y="118" on="1"/>
        <pt x="311" y="240" on="1"/>
        <pt x="185" y="223" on="0"/>
        <pt x="156" y="200" on="1"/>
        <pt x="125" y="175" on="0"/>
      </contour>
    </TTGlyph>
    <TTGlyph name="acute" xMin="40" yMin="564" xMax="269" yMax="750">
      <contour>
        <pt x="216" y="750" on="1"/>
        <pt x="269" y="681" on="1"/>
        <pt x="82" y="564" on="1"/>
        <pt x="40" y="614" on="1"/>
      </contour>
    </TTGlyph>
    <TTGlyph name="acute.case" xMin="32" yMin="736" xMax="273" yMax="898">
      <contour>
        <pt x="235" y="898" on="1"/>
        <pt x="273" y="821" on="1"/>
        <pt x="65" y="736" on="1"/>
        <pt x="32" y="792" on="1"/>
      </contour>
    </TTGlyph>
    <TTGlyph name="adieresis" xMin="29" yMin="-12" xMax="442" yMax="711">
      <contour>
        <pt x="131" y="711" on="1"/>
        <pt x="183" y="711" on="0"/>
        <pt x="183" y="652" on="1"/>
        <pt x="183" y="600" on="0"/>
        <pt x="124" y="600" on="1"/>
        <pt x="71" y="600" on="0"/>
        <pt x="71" y="659" on="1"/>
        <pt x="71" y="684" on="0"/>
        <pt x="96" y="711" on="0"/>
      </contour>
      <contour>
        <pt x="314" y="711" on="1"/>
        <pt x="367" y="711" on="0"/>
        <pt x="367" y="652" on="1"/>
        <pt x="367" y="627" on="0"/>
        <pt x="342" y="600" on="0"/>
        <pt x="307" y="600" on="1"/>
        <pt x="255" y="600" on="0"/>
        <pt x="255" y="659" on="1"/>
        <pt x="255" y="711" on="0"/>
      </contour>
      <contour>
        <pt x="239" y="537" on="1"/>
        <pt x="360" y="537" on="0"/>
        <pt x="387" y="465" on="1"/>
        <pt x="401" y="428" on="0"/>
        <pt x="401" y="367" on="1"/>
        <pt x="401" y="154" on="1"/>
        <pt x="401" y="82" on="0"/>
        <pt x="442" y="40" on="1"/>
        <pt x="389" y="-12" on="1"/>
        <pt x="371" y="-1" on="0"/>
        <pt x="334" y="42" on="0"/>
        <pt x="327" y="63" on="1"/>
        <pt x="324" y="63" on="1"/>
        <pt x="269" y="-12" on="0"/>
        <pt x="172" y="-12" on="1"/>
        <pt x="29" y="-12" on="0"/>
        <pt x="29" y="137" on="1"/>
        <pt x="29" y="269" on="0"/>
        <pt x="215" y="296" on="1"/>
        <pt x="311" y="310" on="1"/>
        <pt x="311" y="366" on="1"/>
        <pt x="311" y="457" on="0"/>
        <pt x="228" y="457" on="1"/>
        <pt x="175" y="457" on="0"/>
        <pt x="85" y="429" on="1"/>
        <pt x="53" y="492" on="1"/>
        <pt x="139" y="537" on="0"/>
      </contour>
      <contour>
        <pt x="125" y="126" on="1"/>
        <pt x="125" y="68" on="0"/>
        <pt x="268" y="68" on="0"/>
        <pt x="311" y="118" on="1"/>
        <pt x="311" y="240" on="1"/>
        <pt x="185" y="223" on="0"/>
        <pt x="156" y="200" on="1"/>
        <pt x="125" y="175" on="0"/>
      </contour>
    </TTGlyph>
    <TTGlyph name="ae" xMin="29" yMin="-12" xMax="700" yMax="537">
      <contour>
        <pt x="53" y="492" on="1"/>
        <pt x="139" y="537" on="0"/>
        <pt x="340" y="537" on="0"/>
        <pt x="373" y="463" on="1"/>
        <pt x="428" y="537" on="0"/>
        <pt x="531" y="537" on="1"/>
        <pt x="615" y="537" on="0"/>
        <pt x="656" y="485" on="1"/>
        <pt x="689" y="442" on="0"/>
        <pt x="697" y="344" on="1"/>
        <pt x="700" y="305" on="0"/>
        <pt x="700" y="247" on="1"/>
        <pt x="659" y="241" on="1"/>
        <pt x="403" y="241" on="1"/>
        <pt x="403" y="166" on="0"/>
        <pt x="424" y="121" on="1"/>
        <pt x="450" y="68" on="0"/>
        <pt x="530" y="68" on="1"/>
        <pt x="593" y="68" on="0"/>
        <pt x="657" y="100" on="1"/>
        <pt x="685" y="38" on="1"/>
        <pt x="602" y="-12" on="0"/>
        <pt x="518" y="-12" on="1"/>
        <pt x="396" y="-12" on="0"/>
        <pt x="350" y="71" on="1"/>
        <pt x="275" y="-12" on="0"/>
        <pt x="166" y="-12" on="1"/>
        <pt x="29" y="-12" on="0"/>
        <pt x="29" y="138" on="1"/>
        <pt x="29" y="270" on="0"/>
        <pt x="215" y="298" on="1"/>
        <pt x="311" y="312" on="1"/>
        <pt x="311" y="366" on="1"/>
        <pt x="311" y="457" on="0"/>
        <pt x="228" y="457" on="1"/>
        <pt x="175" y="457" on="0"/>
        <pt x="85" y="429" on="1"/>
      </contour>
      <contour>
        <pt x="125" y="135" on="1"/>
        <pt x="125" y="64" on="0"/>
        <pt x="199" y="64" on="1"/>
        <pt x="231" y="64" on="0"/>
        <pt x="294" y="98" on="0"/>
        <pt x="311" y="118" on="1"/>
        <pt x="311" y="242" on="1"/>
        <pt x="186" y="225" on="0"/>
        <pt x="156" y="201" on="1"/>
        <pt x="125" y="176" on="0"/>
      </contour>
      <contour>
        <pt x="514" y="457" on="1"/>
        <pt x="474" y="457" on="0"/>
        <pt x="425" y="414" on="0"/>
        <pt x="408" y="355" on="0"/>
        <pt x="405" y="312" on="1"/>
        <pt x="604" y="312" on="1"/>
        <pt x="604" y="392" on="0"/>
        <pt x="572" y="457" on="0"/>
      </contour>
    </TTGlyph>
    <TTGlyph name="aeacute" xMin="29" yMin="-12" xMax="700" yMax="750">
      <contour>
        <pt x="531" y="537" on="1"/>
        <pt x="615" y="537" on="0"/>
        <pt x="656" y="485" on="1"/>
        <pt x="689" y="442" on="0"/>
        <pt x="697" y="344" on="1"/>
        <pt x="700" y="305" on="0"/>
        <pt x="700" y="247" on="1"/>
        <pt x="659" y="241" on="1"/>
        <pt x="403" y="241" on="1"/>
        <pt x="403" y="155" on="0"/>
        <pt x="453" y="68" on="0"/>
        <pt x="593" y="68" on="0"/>
        <pt x="657" y="100" on="1"/>
        <pt x="685" y="38" on="1"/>
        <pt x="602" y="-12" on="0"/>
        <pt x="518" y="-12" on="1"/>
        <pt x="396" y="-12" on="0"/>
        <pt x="350" y="71" on="1"/>
        <pt x="278" y="-12" on="0"/>
        <pt x="166" y="-12" on="1"/>
        <pt x="29" y="-12" on="0"/>
        <pt x="29" y="138" on="1"/>
        <pt x="29" y="270" on="0"/>
        <pt x="215" y="298" on="1"/>
        <pt x="311" y="312" on="1"/>
        <pt x="311" y="366" on="1"/>
        <pt x="311" y="457" on="0"/>
        <pt x="228" y="457" on="1"/>
        <pt x="175" y="457" on="0"/>
        <pt x="85" y="429" on="1"/>
        <pt x="53" y="492" on="1"/>
        <pt x="139" y="537" on="0"/>
        <pt x="340" y="537" on="0"/>
        <pt x="373" y="463" on="1"/>
        <pt x="428" y="537" on="0"/>
      </contour>
      <contour>
        <pt x="514" y="457" on="1"/>
        <pt x="474" y="457" on="0"/>
        <pt x="425" y="414" on="0"/>
        <pt x="408" y="355" on="0"/>
        <pt x="405" y="312" on="1"/>
        <pt x="604" y="312" on="1"/>
        <pt x="604" y="392" on="0"/>
        <pt x="572" y="457" on="0"/>
      </contour>
      <contour>
        <pt x="459" y="750" on="1"/>
        <pt x="512" y="681" on="1"/>
        <pt x="325" y="564" on="1"/>
        <pt x="283" y="614" on="1"/>
      </contour>
      <contour>
        <pt x="125" y="135" on="1"/>
        <pt x="125" y="64" on="0"/>
        <pt x="199" y="64" on="1"/>
        <pt x="216" y="64" on="0"/>
        <pt x="234" y="69" on="1"/>
        <pt x="282" y="83" on="0"/>
        <pt x="311" y="118" on="1"/>
        <pt x="311" y="242" on="1"/>
        <pt x="186" y="225" on="0"/>
        <pt x="156" y="201" on="1"/>
        <pt x="125" y="176" on="0"/>
      </contour>
    </TTGlyph>
    <TTGlyph name="agrave" xMin="29" yMin="-12" xMax="442" yMax="750">
      <contour>
        <pt x="291" y="614" on="1"/>
        <pt x="249" y="564" on="1"/>
        <pt x="62" y="681" on="1"/>
        <pt x="115" y="750" on="1"/>
      </contour>
      <contour>
        <pt x="239" y="537" on="1"/>
        <pt x="360" y="537" on="0"/>
        <pt x="387" y="465" on="1"/>
        <pt x="401" y="428" on="0"/>
        <pt x="401" y="367" on="1"/>
        <pt x="401" y="154" on="1"/>
        <pt x="401" y="82" on="0"/>
        <pt x="442" y="40" on="1"/>
        <pt x="389" y="-12" on="1"/>
        <pt x="371" y="-1" on="0"/>
        <pt x="334" y="42" on="0"/>
        <pt x="327" y="63" on="1"/>
        <pt x="324" y="63" on="1"/>
        <pt x="269" y="-12" on="0"/>
        <pt x="172" y="-12" on="1"/>
        <pt x="29" y="-12" on="0"/>
        <pt x="29" y="137" on="1"/>
        <pt x="29" y="269" on="0"/>
        <pt x="215" y="296" on="1"/>
        <pt x="311" y="310" on="1"/>
        <pt x="311" y="366" on="1"/>
        <pt x="311" y="457" on="0"/>
        <pt x="228" y="457" on="1"/>
        <pt x="175" y="457" on="0"/>
        <pt x="85" y="429" on="1"/>
        <pt x="53" y="492" on="1"/>
        <pt x="139" y="537" on="0"/>
      </contour>
      <contour>
        <pt x="125" y="126" on="1"/>
        <pt x="125" y="68" on="0"/>
        <pt x="268" y="68" on="0"/>
        <pt x="311" y="118" on="1"/>
        <pt x="311" y="240" on="1"/>
        <pt x="185" y="223" on="0"/>
        <pt x="156" y="200" on="1"/>
        <pt x="125" y="175" on="0"/>
      </contour>
    </TTGlyph>
    <TTGlyph name="amacron" xMin="29" yMin="-12" xMax="442" yMax="691">
      <contour>
        <pt x="108" y="691" on="1"/>
        <pt x="368" y="691" on="1"/>
        <pt x="368" y="621" on="1"/>
        <pt x="108" y="621" on="1"/>
      </contour>
      <contour>
        <pt x="311" y="366" on="1"/>
        <pt x="311" y="457" on="0"/>
        <pt x="228" y="457" on="1"/>
        <pt x="175" y="457" on="0"/>
        <pt x="85" y="429" on="1"/>
        <pt x="53" y="492" on="1"/>
        <pt x="139" y="537" on="0"/>
        <pt x="239" y="537" on="1"/>
        <pt x="360" y="537" on="0"/>
        <pt x="387" y="465" on="1"/>
        <pt x="401" y="428" on="0"/>
        <pt x="401" y="367" on="1"/>
        <pt x="401" y="154" on="1"/>
        <pt x="401" y="82" on="0"/>
        <pt x="442" y="40" on="1"/>
        <pt x="389" y="-12" on="1"/>
        <pt x="371" y="-1" on="0"/>
        <pt x="334" y="42" on="0"/>
        <pt x="327" y="63" on="1"/>
        <pt x="324" y="62" on="1"/>
        <pt x="268" y="-12" on="0"/>
        <pt x="172" y="-12" on="1"/>
        <pt x="29" y="-12" on="0"/>
        <pt x="29" y="137" on="1"/>
        <pt x="29" y="269" on="0"/>
        <pt x="215" y="296" on="1"/>
        <pt x="311" y="310" on="1"/>
      </contour>
      <contour>
        <pt x="125" y="134" on="1"/>
        <pt x="125" y="68" on="0"/>
        <pt x="267" y="68" on="0"/>
        <pt x="311" y="114" on="1"/>
        <pt x="311" y="240" on="1"/>
        <pt x="185" y="223" on="0"/>
        <pt x="156" y="200" on="1"/>
        <pt x="125" y="175" on="0"/>
      </contour>
    </TTGlyph>
    <TTGlyph name="ampersand" xMin="41" yMin="-12" xMax="592" yMax="672">
      <contour>
        <pt x="340" y="560" on="0"/>
        <pt x="291" y="597" on="0"/>
        <pt x="212" y="597" on="0"/>
        <pt x="157" y="558" on="0"/>
        <pt x="157" y="465" on="0"/>
        <pt x="233" y="401" on="0"/>
        <pt x="319" y="377" on="1"/>
        <pt x="311" y="310" on="1"/>
        <pt x="268" y="305" on="1"/>
        <pt x="208" y="298" on="0"/>
        <pt x="135" y="232" on="0"/>
        <pt x="135" y="119" on="0"/>
        <pt x="201" y="67" on="0"/>
        <pt x="251" y="67" on="1"/>
        <pt x="331" y="67" on="0"/>
        <pt x="366" y="125" on="1"/>
        <pt x="366" y="377" on="1"/>
        <pt x="448" y="377" on="1"/>
        <pt x="537" y="382" on="1"/>
        <pt x="528" y="319" on="1"/>
        <pt x="450" y="307" on="1"/>
        <pt x="450" y="131" on="1"/>
        <pt x="450" y="97" on="0"/>
        <pt x="482" y="62" on="0"/>
        <pt x="540" y="62" on="0"/>
        <pt x="567" y="72" on="1"/>
        <pt x="592" y="18" on="1"/>
        <pt x="552" y="-12" on="0"/>
        <pt x="486" y="-12" on="1"/>
        <pt x="450" y="-12" on="0"/>
        <pt x="395" y="23" on="0"/>
        <pt x="388" y="52" on="1"/>
        <pt x="384" y="52" on="1"/>
        <pt x="334" y="-12" on="0"/>
        <pt x="231" y="-12" on="1"/>
        <pt x="148" y="-12" on="0"/>
        <pt x="41" y="75" on="0"/>
        <pt x="41" y="239" on="0"/>
        <pt x="125" y="327" on="0"/>
        <pt x="187" y="346" on="1"/>
        <pt x="187" y="350" on="1"/>
        <pt x="68" y="394" on="0"/>
        <pt x="68" y="503" on="1"/>
        <pt x="68" y="578" on="0"/>
        <pt x="171" y="672" on="0"/>
        <pt x="341" y="672" on="0"/>
        <pt x="427" y="602" on="0"/>
        <pt x="436" y="531" on="1"/>
        <pt x="349" y="516" on="1"/>
      </contour>
    </TTGlyph>
    <TTGlyph name="aogonek" xMin="29" yMin="-188" xMax="442" yMax="537">
      <contour>
        <pt x="311" y="366" on="1"/>
        <pt x="311" y="457" on="0"/>
        <pt x="228" y="457" on="1"/>
        <pt x="175" y="457" on="0"/>
        <pt x="85" y="429" on="1"/>
        <pt x="53" y="492" on="1"/>
        <pt x="139" y="537" on="0"/>
        <pt x="239" y="537" on="1"/>
        <pt x="360" y="537" on="0"/>
        <pt x="387" y="465" on="1"/>
        <pt x="401" y="428" on="0"/>
        <pt x="401" y="367" on="1"/>
        <pt x="401" y="154" on="1"/>
        <pt x="401" y="82" on="0"/>
        <pt x="442" y="40" on="1"/>
        <pt x="369" y="-33" on="0"/>
        <pt x="362" y="-42" on="1"/>
        <pt x="331" y="-81" on="0"/>
        <pt x="331" y="-117" on="0"/>
        <pt x="348" y="-137" on="0"/>
        <pt x="383" y="-137" on="0"/>
        <pt x="399" y="-130" on="1"/>
        <pt x="410" y="-168" on="1"/>
        <pt x="376" y="-188" on="0"/>
        <pt x="309" y="-188" on="0"/>
        <pt x="263" y="-147" on="0"/>
        <pt x="263" y="-78" on="0"/>
        <pt x="295" y="-41" on="1"/>
        <pt x="354" y="18" on="1"/>
        <pt x="334" y="39" on="0"/>
        <pt x="327" y="63" on="1"/>
        <pt x="324" y="62" on="1"/>
        <pt x="268" y="-12" on="0"/>
        <pt x="172" y="-12" on="1"/>
        <pt x="29" y="-12" on="0"/>
        <pt x="29" y="137" on="1"/>
        <pt x="29" y="269" on="0"/>
        <pt x="215" y="296" on="1"/>
        <pt x="311" y="310" on="1"/>
      </contour>
      <contour>
        <pt x="125" y="134" on="1"/>
        <pt x="125" y="68" on="0"/>
        <pt x="267" y="68" on="0"/>
        <pt x="311" y="114" on="1"/>
        <pt x="311" y="240" on="1"/>
        <pt x="185" y="223" on="0"/>
        <pt x="156" y="200" on="1"/>
        <pt x="125" y="175" on="0"/>
      </contour>
    </TTGlyph>
    <TTGlyph name="approxequal" xMin="18" yMin="95" xMax="524" yMax="462">
      <contour>
        <pt x="506" y="354" on="0"/>
        <pt x="431" y="305" on="0"/>
        <pt x="352" y="305" on="0"/>
        <pt x="189" y="385" on="0"/>
        <pt x="91" y="385" on="0"/>
        <pt x="40" y="329" on="1"/>
        <pt x="18" y="388" on="1"/>
        <pt x="36" y="413" on="0"/>
        <pt x="111" y="462" on="0"/>
        <pt x="190" y="462" on="0"/>
        <pt x="353" y="382" on="0"/>
        <pt x="451" y="382" on="0"/>
        <pt x="502" y="438" on="1"/>
        <pt x="524" y="379" on="1"/>
      </contour>
      <contour>
        <pt x="506" y="144" on="0"/>
        <pt x="431" y="95" on="0"/>
        <pt x="352" y="95" on="0"/>
        <pt x="189" y="175" on="0"/>
        <pt x="93" y="175" on="0"/>
        <pt x="42" y="119" on="1"/>
        <pt x="18" y="174" on="1"/>
        <pt x="36" y="199" on="0"/>
        <pt x="111" y="248" on="0"/>
        <pt x="190" y="248" on="0"/>
        <pt x="353" y="168" on="0"/>
        <pt x="449" y="168" on="0"/>
        <pt x="500" y="224" on="1"/>
        <pt x="524" y="169" on="1"/>
      </contour>
    </TTGlyph>
    <TTGlyph name="aring" xMin="29" yMin="-12" xMax="442" yMax="747">
      <contour>
        <pt x="239" y="537" on="1"/>
        <pt x="360" y="537" on="0"/>
        <pt x="387" y="465" on="1"/>
        <pt x="401" y="428" on="0"/>
        <pt x="401" y="367" on="1"/>
        <pt x="401" y="154" on="1"/>
        <pt x="401" y="82" on="0"/>
        <pt x="442" y="40" on="1"/>
        <pt x="389" y="-12" on="1"/>
        <pt x="371" y="-1" on="0"/>
        <pt x="334" y="42" on="0"/>
        <pt x="327" y="63" on="1"/>
        <pt x="324" y="63" on="1"/>
        <pt x="269" y="-12" on="0"/>
        <pt x="172" y="-12" on="1"/>
        <pt x="29" y="-12" on="0"/>
        <pt x="29" y="137" on="1"/>
        <pt x="29" y="269" on="0"/>
        <pt x="215" y="296" on="1"/>
        <pt x="311" y="310" on="1"/>
        <pt x="311" y="366" on="1"/>
        <pt x="311" y="457" on="0"/>
        <pt x="228" y="457" on="1"/>
        <pt x="175" y="457" on="0"/>
        <pt x="85" y="429" on="1"/>
        <pt x="53" y="492" on="1"/>
        <pt x="139" y="537" on="0"/>
      </contour>
      <contour>
        <pt x="125" y="126" on="1"/>
        <pt x="125" y="68" on="0"/>
        <pt x="268" y="68" on="0"/>
        <pt x="311" y="118" on="1"/>
        <pt x="311" y="240" on="1"/>
        <pt x="185" y="223" on="0"/>
        <pt x="156" y="200" on="1"/>
        <pt x="125" y="175" on="0"/>
      </contour>
      <contour>
        <pt x="151" y="694" on="0"/>
        <pt x="198" y="747" on="0"/>
        <pt x="283" y="747" on="0"/>
        <pt x="325" y="699" on="0"/>
        <pt x="325" y="628" on="0"/>
        <pt x="278" y="573" on="0"/>
        <pt x="194" y="573" on="0"/>
        <pt x="151" y="623" on="0"/>
      </contour>
      <contour>
        <pt x="241" y="618" on="1"/>
        <pt x="259" y="618" on="0"/>
        <pt x="278" y="642" on="0"/>
        <pt x="278" y="659" on="1"/>
        <pt x="278" y="702" on="0"/>
        <pt x="235" y="702" on="1"/>
        <pt x="217" y="702" on="0"/>
        <pt x="198" y="678" on="0"/>
        <pt x="198" y="661" on="1"/>
        <pt x="198" y="618" on="0"/>
      </contour>
    </TTGlyph>
    <TTGlyph name="aringbelow" xMin="29" yMin="-202" xMax="442" yMax="537">
      <contour>
        <pt x="311" y="366" on="1"/>
        <pt x="311" y="457" on="0"/>
        <pt x="228" y="457" on="1"/>
        <pt x="175" y="457" on="0"/>
        <pt x="85" y="429" on="1"/>
        <pt x="53" y="492" on="1"/>
        <pt x="139" y="537" on="0"/>
        <pt x="239" y="537" on="1"/>
        <pt x="360" y="537" on="0"/>
        <pt x="387" y="465" on="1"/>
        <pt x="401" y="428" on="0"/>
        <pt x="401" y="367" on="1"/>
        <pt x="401" y="154" on="1"/>
        <pt x="401" y="82" on="0"/>
        <pt x="442" y="40" on="1"/>
        <pt x="389" y="-12" on="1"/>
        <pt x="371" y="-1" on="0"/>
        <pt x="334" y="42" on="0"/>
        <pt x="327" y="63" on="1"/>
        <pt x="324" y="62" on="1"/>
        <pt x="268" y="-12" on="0"/>
        <pt x="172" y="-12" on="1"/>
        <pt x="29" y="-12" on="0"/>
        <pt x="29" y="137" on="1"/>
        <pt x="29" y="269" on="0"/>
        <pt x="215" y="296" on="1"/>
        <pt x="311" y="310" on="1"/>
      </contour>
      <contour>
        <pt x="125" y="134" on="1"/>
        <pt x="125" y="68" on="0"/>
        <pt x="267" y="68" on="0"/>
        <pt x="311" y="114" on="1"/>
        <pt x="311" y="240" on="1"/>
        <pt x="185" y="223" on="0"/>
        <pt x="156" y="200" on="1"/>
        <pt x="125" y="175" on="0"/>
      </contour>
      <contour>
        <pt x="327" y="-147" on="0"/>
        <pt x="280" y="-202" on="0"/>
        <pt x="196" y="-202" on="0"/>
        <pt x="153" y="-152" on="0"/>
        <pt x="153" y="-81" on="0"/>
        <pt x="200" y="-28" on="0"/>
        <pt x="285" y="-28" on="0"/>
        <pt x="327" y="-76" on="0"/>
      </contour>
      <contour>
        <pt x="243" y="-153" on="1"/>
        <pt x="259" y="-153" on="0"/>
        <pt x="276" y="-131" on="0"/>
        <pt x="276" y="-116" on="1"/>
        <pt x="276" y="-77" on="0"/>
        <pt x="237" y="-77" on="1"/>
        <pt x="221" y="-77" on="0"/>
        <pt x="204" y="-99" on="0"/>
        <pt x="204" y="-114" on="1"/>
        <pt x="204" y="-153" on="0"/>
      </contour>
    </TTGlyph>
    <TTGlyph name="asciicircum" xMin="65" yMin="282" xMax="544" yMax="748">
      <contour>
        <pt x="335" y="748" on="1"/>
        <pt x="544" y="299" on="1"/>
        <pt x="460" y="282" on="1"/>
        <pt x="300" y="632" on="1"/>
        <pt x="150" y="283" on="1"/>
        <pt x="65" y="298" on="1"/>
        <pt x="256" y="734" on="1"/>
      </contour>
    </TTGlyph>
    <TTGlyph name="asciitilde" xMin="41" yMin="209" xMax="491" yMax="339">
      <contour>
        <pt x="367" y="209" on="1"/>
        <pt x="324" y="209" on="0"/>
        <pt x="196" y="259" on="0"/>
        <pt x="147" y="259" on="0"/>
        <pt x="117" y="249" on="0"/>
        <pt x="110" y="244" on="1"/>
        <pt x="88" y="232" on="0"/>
        <pt x="66" y="214" on="1"/>
        <pt x="41" y="275" on="1"/>
        <pt x="110" y="339" on="0"/>
        <pt x="208" y="339" on="0"/>
        <pt x="336" y="287" on="0"/>
        <pt x="385" y="287" on="0"/>
        <pt x="415" y="297" on="0"/>
        <pt x="422" y="302" on="1"/>
        <pt x="444" y="314" on="0"/>
        <pt x="466" y="332" on="1"/>
        <pt x="491" y="271" on="1"/>
        <pt x="424" y="209" on="0"/>
      </contour>
    </TTGlyph>
    <TTGlyph name="asterisk" xMin="35" yMin="356" xMax="361" yMax="706">
      <contour>
        <pt x="338" y="423" on="1"/>
        <pt x="237" y="477" on="1"/>
        <pt x="222" y="517" on="1"/>
        <pt x="264" y="524" on="1"/>
        <pt x="356" y="467" on="1"/>
      </contour>
      <contour>
        <pt x="58" y="638" on="1"/>
        <pt x="159" y="585" on="1"/>
        <pt x="174" y="544" on="1"/>
        <pt x="132" y="538" on="1"/>
        <pt x="40" y="595" on="1"/>
      </contour>
      <contour>
        <pt x="361" y="598" on="1"/>
        <pt x="264" y="538" on="1"/>
        <pt x="222" y="544" on="1"/>
        <pt x="237" y="585" on="1"/>
        <pt x="333" y="636" on="1"/>
      </contour>
      <contour>
        <pt x="221" y="706" on="1"/>
        <pt x="225" y="592" on="1"/>
        <pt x="198" y="558" on="1"/>
        <pt x="171" y="592" on="1"/>
        <pt x="175" y="700" on="1"/>
      </contour>
      <contour>
        <pt x="175" y="356" on="1"/>
        <pt x="171" y="470" on="1"/>
        <pt x="198" y="503" on="1"/>
        <pt x="225" y="470" on="1"/>
        <pt x="221" y="362" on="1"/>
      </contour>
      <contour>
        <pt x="35" y="463" on="1"/>
        <pt x="132" y="524" on="1"/>
        <pt x="174" y="517" on="1"/>
        <pt x="159" y="477" on="1"/>
        <pt x="64" y="426" on="1"/>
      </contour>
    </TTGlyph>
    <TTGlyph name="at" xMin="57" yMin="-142" xMax="801" yMax="700">
      <contour>
        <pt x="408" y="136" on="1"/>
        <pt x="436" y="136" on="0"/>
        <pt x="486" y="168" on="0"/>
        <pt x="496" y="186" on="1"/>
        <pt x="500" y="229" on="0"/>
        <pt x="516" y="376" on="0"/>
        <pt x="520" y="419" on="1"/>
        <pt x="496" y="427" on="0"/>
        <pt x="467" y="427" on="1"/>
        <pt x="420" y="427" on="0"/>
        <pt x="389" y="396" on="1"/>
        <pt x="336" y="342" on="0"/>
        <pt x="336" y="136" on="0"/>
      </contour>
      <contour>
        <pt x="590" y="461" on="1"/>
        <pt x="561" y="158" on="1"/>
        <pt x="561" y="133" on="0"/>
        <pt x="595" y="133" on="1"/>
        <pt x="643" y="133" on="0"/>
        <pt x="723" y="269" on="0"/>
        <pt x="723" y="399" on="1"/>
        <pt x="723" y="463" on="0"/>
        <pt x="678" y="557" on="0"/>
        <pt x="639" y="582" on="1"/>
        <pt x="564" y="630" on="0"/>
        <pt x="457" y="630" on="1"/>
        <pt x="366" y="630" on="0"/>
        <pt x="288" y="580" on="1"/>
        <pt x="245" y="552" on="0"/>
        <pt x="180" y="466" on="0"/>
        <pt x="138" y="326" on="0"/>
        <pt x="138" y="176" on="0"/>
        <pt x="165" y="75" on="0"/>
        <pt x="206" y="12" on="0"/>
        <pt x="267" y="-34" on="0"/>
        <pt x="319" y="-57" on="0"/>
        <pt x="352" y="-64" on="1"/>
        <pt x="394" y="-72" on="0"/>
        <pt x="439" y="-72" on="1"/>
        <pt x="540" y="-72" on="0"/>
        <pt x="616" y="-35" on="1"/>
        <pt x="641" y="-95" on="1"/>
        <pt x="542" y="-142" on="0"/>
        <pt x="410" y="-142" on="1"/>
        <pt x="257" y="-142" on="0"/>
        <pt x="163" y="-58" on="1"/>
        <pt x="57" y="36" on="0"/>
        <pt x="57" y="227" on="1"/>
        <pt x="57" y="348" on="0"/>
        <pt x="130" y="535" on="0"/>
        <pt x="192" y="590" on="1"/>
        <pt x="314" y="700" on="0"/>
        <pt x="631" y="700" on="0"/>
        <pt x="801" y="546" on="0"/>
        <pt x="801" y="412" on="1"/>
        <pt x="801" y="251" on="0"/>
        <pt x="672" y="68" on="0"/>
        <pt x="579" y="68" on="1"/>
        <pt x="538" y="68" on="0"/>
        <pt x="507" y="101" on="0"/>
        <pt x="504" y="131" on="1"/>
        <pt x="500" y="131" on="1"/>
        <pt x="458" y="72" on="0"/>
        <pt x="317" y="72" on="0"/>
        <pt x="257" y="167" on="0"/>
        <pt x="257" y="299" on="0"/>
        <pt x="300" y="410" on="0"/>
        <pt x="395" y="489" on="0"/>
        <pt x="527" y="489" on="0"/>
      </contour>
    </TTGlyph>
    <TTGlyph name="atilde" xMin="29" yMin="-12" xMax="442" yMax="710">
      <contour>
        <pt x="268" y="600" on="1"/>
        <pt x="242" y="600" on="0"/>
        <pt x="165" y="632" on="0"/>
        <pt x="112" y="632" on="0"/>
        <pt x="66" y="600" on="1"/>
        <pt x="45" y="661" on="1"/>
        <pt x="101" y="710" on="0"/>
        <pt x="154" y="710" on="1"/>
        <pt x="180" y="710" on="0"/>
        <pt x="257" y="678" on="0"/>
        <pt x="310" y="678" on="0"/>
        <pt x="356" y="710" on="1"/>
        <pt x="377" y="649" on="1"/>
        <pt x="321" y="600" on="0"/>
      </contour>
      <contour>
        <pt x="311" y="366" on="1"/>
        <pt x="311" y="457" on="0"/>
        <pt x="228" y="457" on="1"/>
        <pt x="175" y="457" on="0"/>
        <pt x="85" y="429" on="1"/>
        <pt x="53" y="492" on="1"/>
        <pt x="139" y="537" on="0"/>
        <pt x="239" y="537" on="1"/>
        <pt x="360" y="537" on="0"/>
        <pt x="387" y="465" on="1"/>
        <pt x="401" y="428" on="0"/>
        <pt x="401" y="367" on="1"/>
        <pt x="401" y="154" on="1"/>
        <pt x="401" y="82" on="0"/>
        <pt x="442" y="40" on="1"/>
        <pt x="389" y="-12" on="1"/>
        <pt x="371" y="-1" on="0"/>
        <pt x="334" y="42" on="0"/>
        <pt x="327" y="63" on="1"/>
        <pt x="324" y="63" on="1"/>
        <pt x="269" y="-12" on="0"/>
        <pt x="172" y="-12" on="1"/>
        <pt x="29" y="-12" on="0"/>
        <pt x="29" y="137" on="1"/>
        <pt x="29" y="269" on="0"/>
        <pt x="215" y="296" on="1"/>
        <pt x="311" y="310" on="1"/>
      </contour>
      <contour>
        <pt x="125" y="126" on="1"/>
        <pt x="125" y="68" on="0"/>
        <pt x="268" y="68" on="0"/>
        <pt x="311" y="118" on="1"/>
        <pt x="311" y="240" on="1"/>
        <pt x="185" y="223" on="0"/>
        <pt x="156" y="200" on="1"/>
        <pt x="125" y="175" on="0"/>
      </contour>
    </TTGlyph>
    <TTGlyph name="b" xMin="75" yMin="-13" xMax="483" yMax="755">
      <contour>
        <pt x="442" y="460" on="1"/>
        <pt x="483" y="395" on="0"/>
        <pt x="483" y="274" on="1"/>
        <pt x="483" y="108" on="0"/>
        <pt x="411" y="44" on="1"/>
        <pt x="348" y="-12" on="0"/>
        <pt x="158" y="-12" on="0"/>
        <pt x="75" y="46" on="1"/>
        <pt x="75" y="745" on="1"/>
        <pt x="165" y="755" on="1"/>
        <pt x="165" y="530" on="1"/>
        <pt x="160" y="480" on="1"/>
        <pt x="163" y="478" on="1"/>
        <pt x="209" y="537" on="0"/>
        <pt x="393" y="537" on="0"/>
      </contour>
      <contour>
        <pt x="347" y="99" on="1"/>
        <pt x="387" y="139" on="0"/>
        <pt x="387" y="373" on="0"/>
        <pt x="328" y="457" on="0"/>
        <pt x="271" y="457" on="1"/>
        <pt x="198" y="457" on="0"/>
        <pt x="165" y="408" on="1"/>
        <pt x="165" y="96" on="1"/>
        <pt x="204" y="67" on="0"/>
        <pt x="315" y="67" on="0"/>
      </contour>
    </TTGlyph>
    <TTGlyph name="backslash" xMin="18" yMin="-110" xMax="300" yMax="750">
      <contour>
        <pt x="97" y="750" on="1"/>
        <pt x="300" y="-110" on="1"/>
        <pt x="220" y="-110" on="1"/>
        <pt x="18" y="750" on="1"/>
      </contour>
    </TTGlyph>
    <TTGlyph name="bar" xMin="95" yMin="-150" xMax="170" yMax="760">
      <contour>
        <pt x="170" y="760" on="1"/>
        <pt x="170" y="-150" on="1"/>
        <pt x="95" y="-150" on="1"/>
        <pt x="95" y="760" on="1"/>
      </contour>
    </TTGlyph>
    <TTGlyph name="braceleft" xMin="45" yMin="-187" xMax="360" yMax="813">
      <contour>
        <pt x="222" y="617" on="1"/>
        <pt x="232" y="454" on="1"/>
        <pt x="232" y="418" on="0"/>
        <pt x="205" y="362" on="0"/>
        <pt x="185" y="348" on="1"/>
        <pt x="144" y="318" on="0"/>
        <pt x="115" y="316" on="1"/>
        <pt x="115" y="310" on="1"/>
        <pt x="170" y="305" on="0"/>
        <pt x="208" y="251" on="1"/>
        <pt x="232" y="218" on="0"/>
        <pt x="232" y="145" on="0"/>
        <pt x="220" y="37" on="0"/>
        <pt x="220" y="8" on="1"/>
        <pt x="220" y="-115" on="0"/>
        <pt x="349" y="-127" on="1"/>
        <pt x="360" y="-187" on="1"/>
        <pt x="324" y="-187" on="1"/>
        <pt x="256" y="-187" on="0"/>
        <pt x="198" y="-148" on="1"/>
        <pt x="168" y="-128" on="0"/>
        <pt x="130" y="-57" on="0"/>
        <pt x="130" y="18" on="0"/>
        <pt x="142" y="132" on="0"/>
        <pt x="142" y="164" on="1"/>
        <pt x="142" y="221" on="0"/>
        <pt x="94" y="269" on="0"/>
        <pt x="45" y="276" on="1"/>
        <pt x="45" y="350" on="1"/>
        <pt x="93" y="356" on="0"/>
        <pt x="142" y="404" on="0"/>
        <pt x="142" y="461" on="1"/>
        <pt x="142" y="490" on="0"/>
        <pt x="130" y="606" on="0"/>
        <pt x="130" y="637" on="1"/>
        <pt x="130" y="725" on="0"/>
        <pt x="253" y="813" on="0"/>
        <pt x="324" y="813" on="1"/>
        <pt x="359" y="813" on="1"/>
        <pt x="349" y="753" on="1"/>
        <pt x="222" y="742" on="0"/>
      </contour>
    </TTGlyph>
    <TTGlyph name="braceright" xMin="-14" yMin="-187" xMax="301" yMax="813">
      <contour>
        <pt x="114" y="454" on="1"/>
        <pt x="124" y="617" on="1"/>
        <pt x="124" y="742" on="0"/>
        <pt x="-3" y="753" on="1"/>
        <pt x="-13" y="813" on="1"/>
        <pt x="22" y="813" on="1"/>
        <pt x="93" y="813" on="0"/>
        <pt x="216" y="725" on="0"/>
        <pt x="216" y="637" on="1"/>
        <pt x="216" y="606" on="0"/>
        <pt x="204" y="490" on="0"/>
        <pt x="204" y="461" on="1"/>
        <pt x="204" y="404" on="0"/>
        <pt x="253" y="356" on="0"/>
        <pt x="301" y="350" on="1"/>
        <pt x="301" y="276" on="1"/>
        <pt x="252" y="269" on="0"/>
        <pt x="204" y="221" on="0"/>
        <pt x="204" y="164" on="1"/>
        <pt x="204" y="132" on="0"/>
        <pt x="216" y="18" on="0"/>
        <pt x="216" y="-57" on="0"/>
        <pt x="178" y="-128" on="0"/>
        <pt x="148" y="-148" on="1"/>
        <pt x="89" y="-187" on="0"/>
        <pt x="22" y="-187" on="1"/>
        <pt x="-14" y="-187" on="1"/>
        <pt x="-3" y="-127" on="1"/>
        <pt x="126" y="-115" on="0"/>
        <pt x="126" y="8" on="1"/>
        <pt x="126" y="37" on="0"/>
        <pt x="114" y="145" on="0"/>
        <pt x="114" y="218" on="0"/>
        <pt x="138" y="251" on="1"/>
        <pt x="176" y="305" on="0"/>
        <pt x="231" y="310" on="1"/>
        <pt x="231" y="316" on="1"/>
        <pt x="202" y="318" on="0"/>
        <pt x="161" y="348" on="1"/>
        <pt x="141" y="362" on="0"/>
        <pt x="114" y="418" on="0"/>
      </contour>
    </TTGlyph>
    <TTGlyph name="bracketleft" xMin="95" yMin="-158" xMax="289" yMax="798">
      <contour>
        <pt x="289" y="798" on="1"/>
        <pt x="289" y="733" on="1"/>
        <pt x="175" y="733" on="1"/>
        <pt x="175" y="-93" on="1"/>
        <pt x="289" y="-93" on="1"/>
        <pt x="289" y="-158" on="1"/>
        <pt x="95" y="-158" on="1"/>
        <pt x="95" y="798" on="1"/>
      </contour>
    </TTGlyph>
    <TTGlyph name="bracketright" xMin="15" yMin="-158" xMax="209" yMax="798">
      <contour>
        <pt x="209" y="798" on="1"/>
        <pt x="209" y="-158" on="1"/>
        <pt x="15" y="-158" on="1"/>
        <pt x="15" y="-93" on="1"/>
        <pt x="129" y="-93" on="1"/>
        <pt x="129" y="733" on="1"/>
        <pt x="15" y="733" on="1"/>
        <pt x="15" y="798" on="1"/>
      </contour>
    </TTGlyph>
    <TTGlyph name="breve" xMin="33" yMin="595" xMax="335" yMax="711">
      <contour>
        <pt x="335" y="668" on="1"/>
        <pt x="278" y="595" on="0"/>
        <pt x="90" y="595" on="0"/>
        <pt x="33" y="668" on="1"/>
        <pt x="73" y="711" on="1"/>
        <pt x="126" y="667" on="0"/>
        <pt x="244" y="667" on="0"/>
        <pt x="297" y="711" on="1"/>
      </contour>
    </TTGlyph>
    <TTGlyph name="brokenbar" xMin="95" yMin="-150" xMax="170" yMax="760">
      <contour>
        <pt x="95" y="190" on="1"/>
        <pt x="170" y="190" on="1"/>
        <pt x="170" y="-150" on="1"/>
        <pt x="95" y="-150" on="1"/>
      </contour>
      <contour>
        <pt x="95" y="760" on="1"/>
        <pt x="170" y="760" on="1"/>
        <pt x="170" y="420" on="1"/>
        <pt x="95" y="420" on="1"/>
      </contour>
    </TTGlyph>
    <TTGlyph name="bullet" xMin="65" yMin="154" xMax="314" yMax="414">
      <contour>
        <pt x="198" y="414" on="1"/>
        <pt x="314" y="414" on="0"/>
        <pt x="314" y="272" on="1"/>
        <pt x="314" y="221" on="0"/>
        <pt x="248" y="154" on="0"/>
        <pt x="180" y="154" on="1"/>
        <pt x="65" y="154" on="0"/>
        <pt x="65" y="295" on="1"/>
        <pt x="66" y="347" on="0"/>
        <pt x="131" y="414" on="0"/>
      </contour>
    </TTGlyph>
    <TTGlyph name="c" xMin="45" yMin="-12" xMax="427" yMax="537">
      <contour>
        <pt x="45" y="384" on="0"/>
        <pt x="162" y="537" on="0"/>
        <pt x="357" y="537" on="0"/>
        <pt x="422" y="446" on="0"/>
        <pt x="422" y="359" on="1"/>
        <pt x="332" y="353" on="1"/>
        <pt x="332" y="410" on="0"/>
        <pt x="298" y="457" on="0"/>
        <pt x="246" y="457" on="1"/>
        <pt x="141" y="457" on="0"/>
        <pt x="141" y="68" on="0"/>
        <pt x="275" y="68" on="1"/>
        <pt x="334" y="68" on="0"/>
        <pt x="400" y="101" on="1"/>
        <pt x="427" y="41" on="1"/>
        <pt x="402" y="19" on="0"/>
        <pt x="310" y="-12" on="0"/>
        <pt x="257" y="-12" on="1"/>
        <pt x="45" y="-12" on="0"/>
        <pt x="45" y="259" on="1"/>
      </contour>
    </TTGlyph>
    <TTGlyph name="cacute" xMin="45" yMin="-12" xMax="427" yMax="750">
      <contour>
        <pt x="45" y="384" on="0"/>
        <pt x="162" y="537" on="0"/>
        <pt x="357" y="537" on="0"/>
        <pt x="422" y="446" on="0"/>
        <pt x="422" y="359" on="1"/>
        <pt x="332" y="353" on="1"/>
        <pt x="332" y="410" on="0"/>
        <pt x="298" y="457" on="0"/>
        <pt x="246" y="457" on="1"/>
        <pt x="141" y="457" on="0"/>
        <pt x="141" y="68" on="0"/>
        <pt x="275" y="68" on="1"/>
        <pt x="334" y="68" on="0"/>
        <pt x="400" y="101" on="1"/>
        <pt x="427" y="41" on="1"/>
        <pt x="402" y="19" on="0"/>
        <pt x="310" y="-12" on="0"/>
        <pt x="257" y="-12" on="1"/>
        <pt x="45" y="-12" on="0"/>
        <pt x="45" y="259" on="1"/>
      </contour>
      <contour>
        <pt x="331" y="750" on="1"/>
        <pt x="384" y="681" on="1"/>
        <pt x="197" y="564" on="1"/>
        <pt x="155" y="614" on="1"/>
      </contour>
    </TTGlyph>
    <TTGlyph name="caron" xMin="35" yMin="569" xMax="341" yMax="733">
      <contour>
        <pt x="341" y="687" on="1"/>
        <pt x="216" y="569" on="1"/>
        <pt x="160" y="569" on="1"/>
        <pt x="35" y="687" on="1"/>
        <pt x="73" y="733" on="1"/>
        <pt x="188" y="646" on="1"/>
        <pt x="303" y="733" on="1"/>
      </contour>
    </TTGlyph>
    <TTGlyph name="caron.case" xMin="35" yMin="735" xMax="341" yMax="885">
      <contour>
        <pt x="341" y="841" on="1"/>
        <pt x="214" y="735" on="1"/>
        <pt x="162" y="735" on="1"/>
        <pt x="35" y="841" on="1"/>
        <pt x="73" y="885" on="1"/>
        <pt x="188" y="808" on="1"/>
        <pt x="303" y="885" on="1"/>
      </contour>
    </TTGlyph>
    <TTGlyph name="ccaron" xMin="45" yMin="-12" xMax="427" yMax="733">
      <contour>
        <pt x="45" y="384" on="0"/>
        <pt x="162" y="537" on="0"/>
        <pt x="357" y="537" on="0"/>
        <pt x="422" y="446" on="0"/>
        <pt x="422" y="359" on="1"/>
        <pt x="332" y="353" on="1"/>
        <pt x="332" y="410" on="0"/>
        <pt x="298" y="457" on="0"/>
        <pt x="246" y="457" on="1"/>
        <pt x="141" y="457" on="0"/>
        <pt x="141" y="68" on="0"/>
        <pt x="275" y="68" on="1"/>
        <pt x="334" y="68" on="0"/>
        <pt x="400" y="101" on="1"/>
        <pt x="427" y="41" on="1"/>
        <pt x="402" y="19" on="0"/>
        <pt x="310" y="-12" on="0"/>
        <pt x="257" y="-12" on="1"/>
        <pt x="45" y="-12" on="0"/>
        <pt x="45" y="259" on="1"/>
      </contour>
      <contour>
        <pt x="414" y="687" on="1"/>
        <pt x="289" y="569" on="1"/>
        <pt x="233" y="569" on="1"/>
        <pt x="108" y="687" on="1"/>
        <pt x="146" y="733" on="1"/>
        <pt x="261" y="646" on="1"/>
        <pt x="376" y="733" on="1"/>
      </contour>
    </TTGlyph>
    <TTGlyph name="ccedilla" xMin="45" yMin="-188" xMax="427" yMax="537">
      <contour>
        <pt x="45" y="384" on="0"/>
        <pt x="162" y="537" on="0"/>
        <pt x="357" y="537" on="0"/>
        <pt x="422" y="446" on="0"/>
        <pt x="422" y="359" on="1"/>
        <pt x="332" y="353" on="1"/>
        <pt x="332" y="410" on="0"/>
        <pt x="298" y="457" on="0"/>
        <pt x="246" y="457" on="1"/>
        <pt x="141" y="457" on="0"/>
        <pt x="141" y="68" on="0"/>
        <pt x="275" y="68" on="1"/>
        <pt x="334" y="68" on="0"/>
        <pt x="400" y="101" on="1"/>
        <pt x="427" y="41" on="1"/>
        <pt x="401" y="19" on="0"/>
        <pt x="309" y="-12" on="0"/>
        <pt x="255" y="-12" on="1"/>
        <pt x="250" y="-44" on="1"/>
        <pt x="311" y="-59" on="0"/>
        <pt x="321" y="-84" on="1"/>
        <pt x="326" y="-96" on="0"/>
        <pt x="326" y="-114" on="1"/>
        <pt x="326" y="-150" on="0"/>
        <pt x="279" y="-188" on="0"/>
        <pt x="199" y="-188" on="0"/>
        <pt x="153" y="-165" on="1"/>
        <pt x="171" y="-120" on="1"/>
        <pt x="208" y="-137" on="0"/>
        <pt x="264" y="-137" on="0"/>
        <pt x="264" y="-111" on="1"/>
        <pt x="264" y="-94" on="0"/>
        <pt x="211" y="-81" on="1"/>
        <pt x="190" y="-76" on="0"/>
        <pt x="188" y="-75" on="1"/>
        <pt x="206" y="-7" on="1"/>
        <pt x="45" y="22" on="0"/>
        <pt x="45" y="259" on="1"/>
      </contour>
    </TTGlyph>
    <TTGlyph name="cdotaccent" xMin="45" yMin="-12" xMax="427" yMax="688">
      <contour>
        <pt x="45" y="384" on="0"/>
        <pt x="162" y="537" on="0"/>
        <pt x="357" y="537" on="0"/>
        <pt x="422" y="446" on="0"/>
        <pt x="422" y="359" on="1"/>
        <pt x="332" y="353" on="1"/>
        <pt x="332" y="410" on="0"/>
        <pt x="298" y="457" on="0"/>
        <pt x="246" y="457" on="1"/>
        <pt x="141" y="457" on="0"/>
        <pt x="141" y="68" on="0"/>
        <pt x="275" y="68" on="1"/>
        <pt x="334" y="68" on="0"/>
        <pt x="400" y="101" on="1"/>
        <pt x="427" y="41" on="1"/>
        <pt x="402" y="19" on="0"/>
        <pt x="310" y="-12" on="0"/>
        <pt x="257" y="-12" on="1"/>
        <pt x="45" y="-12" on="0"/>
        <pt x="45" y="259" on="1"/>
      </contour>
      <contour>
        <pt x="257" y="559" on="1"/>
        <pt x="196" y="559" on="0"/>
        <pt x="196" y="627" on="1"/>
        <pt x="196" y="652" on="0"/>
        <pt x="229" y="688" on="0"/>
        <pt x="264" y="688" on="1"/>
        <pt x="325" y="688" on="0"/>
        <pt x="325" y="620" on="1"/>
        <pt x="325" y="595" on="0"/>
        <pt x="292" y="559" on="0"/>
      </contour>
    </TTGlyph>
    <TTGlyph name="cedilla" xMin="35" yMin="-188" xMax="208" yMax="21">
      <contour>
        <pt x="177" y="-58" on="1"/>
        <pt x="208" y="-76" on="0"/>
        <pt x="208" y="-150" on="0"/>
        <pt x="161" y="-188" on="0"/>
        <pt x="81" y="-188" on="0"/>
        <pt x="35" y="-165" on="1"/>
        <pt x="53" y="-120" on="1"/>
        <pt x="90" y="-137" on="0"/>
        <pt x="146" y="-137" on="0"/>
        <pt x="146" y="-111" on="1"/>
        <pt x="146" y="-96" on="0"/>
        <pt x="73" y="-76" on="0"/>
        <pt x="70" y="-75" on="1"/>
        <pt x="96" y="21" on="1"/>
        <pt x="143" y="21" on="1"/>
        <pt x="132" y="-44" on="1"/>
        <pt x="174" y="-56" on="0"/>
      </contour>
    </TTGlyph>
    <TTGlyph name="cent" xMin="56" yMin="-73" xMax="448" yMax="749">
      <contour>
        <pt x="306" y="536" on="1"/>
        <pt x="230" y="536" on="0"/>
        <pt x="152" y="431" on="0"/>
        <pt x="152" y="222" on="0"/>
        <pt x="210" y="147" on="0"/>
        <pt x="334" y="147" on="0"/>
        <pt x="392" y="176" on="1"/>
        <pt x="413" y="117" on="1"/>
        <pt x="360" y="74" on="0"/>
        <pt x="277" y="67" on="1"/>
        <pt x="277" y="-63" on="1"/>
        <pt x="195" y="-73" on="1"/>
        <pt x="216" y="68" on="1"/>
        <pt x="140" y="79" on="0"/>
        <pt x="56" y="192" on="0"/>
        <pt x="56" y="288" on="1"/>
        <pt x="56" y="427" on="0"/>
        <pt x="164" y="605" on="0"/>
        <pt x="272" y="615" on="1"/>
        <pt x="277" y="739" on="1"/>
        <pt x="359" y="749" on="1"/>
        <pt x="331" y="614" on="1"/>
        <pt x="394" y="607" on="0"/>
        <pt x="448" y="570" on="1"/>
        <pt x="412" y="509" on="1"/>
        <pt x="351" y="536" on="0"/>
      </contour>
    </TTGlyph>
    <TTGlyph name="circumflex" xMin="35" yMin="567" xMax="341" yMax="731">
      <contour>
        <pt x="216" y="731" on="1"/>
        <pt x="341" y="613" on="1"/>
        <pt x="303" y="567" on="1"/>
        <pt x="188" y="656" on="1"/>
        <pt x="73" y="567" on="1"/>
        <pt x="35" y="613" on="1"/>
        <pt x="160" y="731" on="1"/>
      </contour>
    </TTGlyph>
    <TTGlyph name="circumflex.case" xMin="35" yMin="735" xMax="341" yMax="885">
      <contour>
        <pt x="214" y="885" on="1"/>
        <pt x="341" y="779" on="1"/>
        <pt x="303" y="735" on="1"/>
        <pt x="188" y="812" on="1"/>
        <pt x="73" y="735" on="1"/>
        <pt x="35" y="779" on="1"/>
        <pt x="162" y="885" on="1"/>
      </contour>
    </TTGlyph>
    <TTGlyph name="colon" xMin="60" yMin="-12" xMax="189" yMax="498">
      <contour>
        <pt x="128" y="117" on="1"/>
        <pt x="189" y="117" on="0"/>
        <pt x="189" y="49" on="1"/>
        <pt x="189" y="24" on="0"/>
        <pt x="156" y="-12" on="0"/>
        <pt x="121" y="-12" on="1"/>
        <pt x="60" y="-12" on="0"/>
        <pt x="60" y="56" on="1"/>
        <pt x="60" y="81" on="0"/>
        <pt x="93" y="117" on="0"/>
      </contour>
      <contour>
        <pt x="128" y="498" on="1"/>
        <pt x="189" y="498" on="0"/>
        <pt x="189" y="430" on="1"/>
        <pt x="189" y="405" on="0"/>
        <pt x="156" y="369" on="0"/>
        <pt x="121" y="369" on="1"/>
        <pt x="60" y="369" on="0"/>
        <pt x="60" y="437" on="1"/>
        <pt x="60" y="462" on="0"/>
        <pt x="93" y="498" on="0"/>
      </contour>
    </TTGlyph>
    <TTGlyph name="comma" xMin="-9" yMin="-147" xMax="154" yMax="118">
      <contour>
        <pt x="154" y="76" on="0"/>
        <pt x="154" y="24" on="0"/>
        <pt x="147" y="-15" on="0"/>
        <pt x="136" y="-42" on="1"/>
        <pt x="114" y="-97" on="0"/>
        <pt x="31" y="-147" on="1"/>
        <pt x="-9" y="-97" on="1"/>
        <pt x="37" y="-55" on="0"/>
        <pt x="60" y="-6" on="0"/>
        <pt x="60" y="73" on="0"/>
        <pt x="57" y="104" on="1"/>
        <pt x="151" y="118" on="1"/>
      </contour>
    </TTGlyph>
    <TTGlyph name="commaaccent" xMin="28" yMin="-247" xMax="160" yMax="-31">
      <contour>
        <pt x="152" y="-31" on="1"/>
        <pt x="160" y="-95" on="0"/>
        <pt x="160" y="-147" on="0"/>
        <pt x="123" y="-196" on="0"/>
        <pt x="65" y="-247" on="1"/>
        <pt x="28" y="-207" on="1"/>
        <pt x="62" y="-165" on="0"/>
        <pt x="78" y="-134" on="0"/>
        <pt x="78" y="-110" on="0"/>
        <pt x="68" y="-43" on="1"/>
      </contour>
    </TTGlyph>
</ttFont>
